<?xml version="1.0" encoding="UTF-8" standalone="no"?>
<svg
   version="1.1"
   viewBox="0 0 255.855 255.855"
   enable-background="new 0 0 255.855 255.855"
   id="svg621"
   sodipodi:docname="construction.svg"
   inkscape:version="1.2.1 (9c6d41e4, 2022-07-14)"
   xmlns:inkscape="http://www.inkscape.org/namespaces/inkscape"
   xmlns:sodipodi="http://sodipodi.sourceforge.net/DTD/sodipodi-0.dtd"
   xmlns="http://www.w3.org/2000/svg"
   xmlns:svg="http://www.w3.org/2000/svg">
  <defs
     id="defs625" />
  <sodipodi:namedview
     id="namedview623"
     pagecolor="#505050"
     bordercolor="#eeeeee"
     borderopacity="1"
     inkscape:showpageshadow="0"
     inkscape:pageopacity="0"
     inkscape:pagecheckerboard="0"
     inkscape:deskcolor="#505050"
     showgrid="false"
     inkscape:zoom="0.92239747"
     inkscape:cx="127.38543"
     inkscape:cy="122.50684"
     inkscape:window-width="1280"
     inkscape:window-height="456"
     inkscape:window-x="0"
     inkscape:window-y="25"
     inkscape:window-maximized="0"
     inkscape:current-layer="svg621" />
  <g
     id="g619"
     style="fill:#2AA126">
    <path
       d="m246.934,160.079c0-7.581-6.168-13.749-13.749-13.749h-22.843v-38.856c0-2.197-1.031-4.266-2.785-5.589l-93.71-70.666c-2.496-1.882-5.934-1.882-8.43,0l-93.71,70.666c-1.754,1.323-2.785,3.392-2.785,5.589v118.977c0,3.866 3.134,7 7,7h109.103v8.654c0,7.581 6.168,13.749 13.749,13.749h94.411c7.581,0 13.749-6.168 13.749-13.749v-18.343c0-2.453-0.654-4.753-1.784-6.749 1.131-1.996 1.784-4.296 1.784-6.749v-18.344c0-2.453-0.654-4.753-1.784-6.749 1.13-1.996 1.784-4.296 1.784-6.749v-18.343zm-107.91,63.934h93.909v17.841h-93.909v-17.841zm-116.102-113.049l86.71-65.387 86.71,65.387v35.367h-57.568c-7.581,0-13.749,6.167-13.749,13.749v18.344c0,2.453 0.654,4.753 1.784,6.749-1.13,1.996-1.784,4.296-1.784,6.749v18.344c0,2.453 0.654,4.753 1.784,6.749-0.436,0.77-0.799,1.585-1.082,2.438h-102.805v-108.489zm210.012,99.049h-93.909v-17.841h93.909v17.841zm0-31.841h-93.909v-17.841h93.909v17.841z"
       id="path615"
       style="fill:#2AA126" />
    <path
       d="m20.137,83.255l89.495-67.487 89.495,67.487c1.263,0.952 2.742,1.412 4.21,1.412 2.121,0 4.218-0.961 5.594-2.786 2.328-3.087 1.713-7.476-1.374-9.804l-93.71-70.666c-2.496-1.882-5.934-1.882-8.43,0l-93.71,70.666c-3.087,2.328-3.702,6.717-1.374,9.804 2.327,3.086 6.718,3.7 9.804,1.374z"
       id="path617"
       style="fill:#2AA126" />
  </g>
</svg>