<?xml version="1.0" encoding="UTF-8" standalone="no"?>
<!-- Generator: Adobe Illustrator 19.0.0, SVG Export Plug-In . SVG Version: 6.00 Build 0)  -->
<svg
   version="1.1"
   id="Layer_1"
   x="0px"
   y="0px"
   viewBox="0 0 469.333 469.333"
   style="enable-background:new 0 0 469.333 469.333;"
   xml:space="preserve"
   sodipodi:docname="ecom.svg"
   inkscape:version="1.2.1 (9c6d41e4, 2022-07-14)"
   xmlns:inkscape="http://www.inkscape.org/namespaces/inkscape"
   xmlns:sodipodi="http://sodipodi.sourceforge.net/DTD/sodipodi-0.dtd"
   xmlns="http://www.w3.org/2000/svg"
   xmlns:svg="http://www.w3.org/2000/svg">
   <defs
   id="defs3349" />
   <sodipodi:namedview
   id="namedview3347"
   pagecolor="#505050"
   bordercolor="#eeeeee"
   borderopacity="1"
   inkscape:showpageshadow="0"
   inkscape:pageopacity="0"
   inkscape:pagecheckerboard="0"
   inkscape:deskcolor="#505050"
   showgrid="false"
   inkscape:zoom="0.50284126"
   inkscape:cx="233.67215"
   inkscape:cy="234.6665"
   inkscape:window-width="1280"
   inkscape:window-height="456"
   inkscape:window-x="0"
   inkscape:window-y="25"
   inkscape:window-maximized="0"
   inkscape:current-layer="Layer_1" />
   <g
   id="g3296"
   style="fill:#2AA126">
      <g
   id="g3294"
   style="fill:#2AA126">
         <path
   d="M437.333,0H32C14.357,0,0,14.357,0,32v245.333V320c0,17.643,14.357,32,32,32h138.848L142.4,416h-9.067    c-14.709,0-26.667,11.968-26.667,26.667c0,14.699,11.957,26.667,26.667,26.667H336c14.709,0,26.667-11.968,26.667-26.667    C362.667,427.968,350.709,416,336,416h-9.067l-28.448-64h138.848c17.643,0,32-14.357,32-32v-42.667V32    C469.333,14.357,454.976,0,437.333,0z M336,437.333c2.933,0,5.333,2.389,5.333,5.333c0,2.944-2.4,5.333-5.333,5.333H133.333    c-2.933,0-5.333-2.389-5.333-5.333c0-2.944,2.4-5.333,5.333-5.333h16H320H336z M303.584,416h-59.435h-78.4l28.437-64h80.96    L303.584,416z M448,320c0,5.877-4.779,10.667-10.667,10.667H282.069h-94.816H32c-5.888,0-10.667-4.789-10.667-10.667v-32H448V320z     M448,266.667H21.333V32c0-5.877,4.779-10.667,10.667-10.667h405.333C443.221,21.333,448,26.123,448,32V266.667z"
   id="path3292"
   style="fill:#2AA126" />
      </g>
   </g>
   <g
   id="g3302"
   style="fill:#2AA126">
      <g
   id="g3300"
   style="fill:#2AA126">
         <circle
   cx="234.667"
   cy="384"
   r="10.667"
   id="circle3298"
   style="fill:#2AA126" />
      </g>
   </g>
   <g
   id="g3308"
   style="fill:#2AA126">
      <g
   id="g3306"
   style="fill:#2AA126">
         <path
   d="M349.461,99.776c-2.016-2.4-4.992-3.776-8.128-3.776H288c0-29.408-23.925-53.333-53.333-53.333S181.333,66.592,181.333,96    H128c-3.136,0-6.112,1.376-8.139,3.776c-2.027,2.4-2.912,5.557-2.389,8.651l21.333,128c0.864,5.131,5.312,8.907,10.528,8.907H320    c5.216,0,9.664-3.776,10.517-8.907l21.333-128C352.373,105.333,351.499,102.165,349.461,99.776z M234.667,64    c17.643,0,32,14.357,32,32h-64C202.667,78.357,217.024,64,234.667,64z M310.965,224H158.368l-17.771-106.667h40.736v21.333    c0,5.888,4.768,10.667,10.667,10.667c5.899,0,10.667-4.779,10.667-10.667v-21.333h64v21.333c0,5.888,4.768,10.667,10.667,10.667    c5.899,0,10.667-4.779,10.667-10.667v-21.333h40.736L310.965,224z"
   id="path3304"
   style="fill:#2AA126" />
      </g>
   </g>
   <g
   id="g3314"
   style="fill:#2AA126">
      <g
   id="g3312"
   style="fill:#2AA126">
         <path
   d="M192,160c0,23.563,19.104,42.667,42.667,42.667s42.667-19.104,42.667-42.667H192z"
   id="path3310"
   style="fill:#2AA126" />
      </g>
   </g>
   <g
   id="g3316">
</g>
   <g
   id="g3318">
</g>
   <g
   id="g3320">
</g>
   <g
   id="g3322">
</g>
   <g
   id="g3324">
</g>
   <g
   id="g3326">
</g>
   <g
   id="g3328">
</g>
   <g
   id="g3330">
</g>
   <g
   id="g3332">
</g>
   <g
   id="g3334">
</g>
   <g
   id="g3336">
</g>
   <g
   id="g3338">
</g>
   <g
   id="g3340">
</g>
   <g
   id="g3342">
</g>
   <g
   id="g3344">
</g>
</svg>