<?xml version="1.0" encoding="UTF-8" standalone="no"?>
<svg
   x="0px"
   y="0px"
   width="88.5"
   height="88.5"
   viewBox="0 0 88.5 88.5"
   enable-background="new 0 0 52 52"
   xml:space="preserve"
   version="1.1"
   id="svg2347"
   sodipodi:docname="education.svg"
   inkscape:version="1.2.1 (9c6d41e4, 2022-07-14)"
   xmlns:inkscape="http://www.inkscape.org/namespaces/inkscape"
   xmlns:sodipodi="http://sodipodi.sourceforge.net/DTD/sodipodi-0.dtd"
   xmlns="http://www.w3.org/2000/svg"
   xmlns:svg="http://www.w3.org/2000/svg">
  <sodipodi:namedview
   id="namedview1077"
   pagecolor="#505050"
   bordercolor="#eeeeee"
   borderopacity="1"
   inkscape:showpageshadow="0"
   inkscape:pageopacity="0"
   inkscape:pagecheckerboard="0"
   inkscape:deskcolor="#505050"
   showgrid="false"
   inkscape:zoom="2.6666667"
   inkscape:cx="44.0625"
   inkscape:cy="44.25"
   inkscape:window-width="1280"
   inkscape:window-height="456"
   inkscape:window-x="0"
   inkscape:window-y="25"
   inkscape:window-maximized="0"
   inkscape:current-layer="svg2347" />
  <defs
   id="defs2351" />
  <g
   display="none"
   id="g2229"
   transform="translate(-1.9999999,-10.925)">
    <path
   display="inline"
   opacity="0.2"
   enable-background="new"
   d="M 0,0 V 52 H 52 V 0 Z M 49.9,49.9 H 2.1 V 2.1 h 47.8 c 0,0 0,47.8 0,47.8 z"
   id="path2227" />
  </g>
  <g
   display="none"
   id="g2233"
   transform="translate(-1.9999999,-10.925)">
    <rect
   x="2"
   y="2"
   display="inline"
   fill="none"
   stroke-width="0.25"
   stroke-miterlimit="10"
   width="48"
   height="48"
   id="rect2231" />
  </g>
  <g
   display="none"
   id="g2337"
   transform="translate(-1.9999999,-10.925)">
    <g
   display="inline"
   opacity="0.5"
   id="g2335">
      <line
   fill="none"
   stroke-width="0.25"
   stroke-miterlimit="10"
   x1="50"
   y1="2"
   x2="2"
   y2="50"
   id="line2235" />
      <line
   fill="none"
   stroke-width="0.25"
   stroke-miterlimit="10"
   x1="2"
   y1="2"
   x2="49.900002"
   y2="50"
   id="line2237" />
      <rect
   x="2"
   y="2"
   fill="none"
   stroke-width="0.25"
   stroke-miterlimit="10"
   width="2"
   height="48"
   id="rect2239" />
      <rect
   x="4"
   y="2"
   fill="none"
   stroke-width="0.25"
   stroke-miterlimit="10"
   width="2"
   height="48"
   id="rect2241" />
      <rect
   x="6"
   y="2"
   fill="none"
   stroke-width="0.25"
   stroke-miterlimit="10"
   width="2"
   height="48"
   id="rect2243" />
      <rect
   x="8"
   y="2"
   fill="none"
   stroke-width="0.25"
   stroke-miterlimit="10"
   width="2"
   height="48"
   id="rect2245" />
      <rect
   x="10"
   y="2"
   fill="none"
   stroke-width="0.25"
   stroke-miterlimit="10"
   width="2"
   height="48"
   id="rect2247" />
      <rect
   x="12"
   y="2"
   fill="none"
   stroke-width="0.25"
   stroke-miterlimit="10"
   width="2"
   height="48"
   id="rect2249" />
      <rect
   x="14"
   y="2"
   fill="none"
   stroke-width="0.25"
   stroke-miterlimit="10"
   width="2"
   height="48"
   id="rect2251" />
      <rect
   x="16"
   y="2"
   fill="none"
   stroke-width="0.25"
   stroke-miterlimit="10"
   width="2"
   height="48"
   id="rect2253" />
      <rect
   x="18"
   y="2"
   fill="none"
   stroke-width="0.25"
   stroke-miterlimit="10"
   width="2"
   height="48"
   id="rect2255" />
      <rect
   x="20"
   y="2"
   fill="none"
   stroke-width="0.25"
   stroke-miterlimit="10"
   width="2"
   height="48"
   id="rect2257" />
      <rect
   x="22"
   y="2"
   fill="none"
   stroke-width="0.25"
   stroke-miterlimit="10"
   width="2"
   height="48"
   id="rect2259" />
      <rect
   x="24"
   y="2"
   fill="none"
   stroke-width="0.25"
   stroke-miterlimit="10"
   width="2"
   height="48"
   id="rect2261" />
      <rect
   x="26"
   y="2"
   fill="none"
   stroke-width="0.25"
   stroke-miterlimit="10"
   width="2"
   height="48"
   id="rect2263" />
      <rect
   x="28"
   y="2"
   fill="none"
   stroke-width="0.25"
   stroke-miterlimit="10"
   width="2"
   height="48"
   id="rect2265" />
      <rect
   x="30"
   y="2"
   fill="none"
   stroke-width="0.25"
   stroke-miterlimit="10"
   width="2"
   height="48"
   id="rect2267" />
      <rect
   x="32"
   y="2"
   fill="none"
   stroke-width="0.25"
   stroke-miterlimit="10"
   width="2"
   height="48"
   id="rect2269" />
      <rect
   x="34"
   y="2"
   fill="none"
   stroke-width="0.25"
   stroke-miterlimit="10"
   width="2"
   height="48"
   id="rect2271" />
      <rect
   x="36"
   y="2"
   fill="none"
   stroke-width="0.25"
   stroke-miterlimit="10"
   width="2"
   height="48"
   id="rect2273" />
      <rect
   x="38"
   y="2"
   fill="none"
   stroke-width="0.25"
   stroke-miterlimit="10"
   width="2"
   height="48"
   id="rect2275" />
      <rect
   x="40"
   y="2"
   fill="none"
   stroke-width="0.25"
   stroke-miterlimit="10"
   width="2"
   height="48"
   id="rect2277" />
      <rect
   x="42"
   y="2"
   fill="none"
   stroke-width="0.25"
   stroke-miterlimit="10"
   width="2"
   height="48"
   id="rect2279" />
      <rect
   x="44"
   y="2"
   fill="none"
   stroke-width="0.25"
   stroke-miterlimit="10"
   width="2"
   height="48"
   id="rect2281" />
      <rect
   x="46"
   y="2"
   fill="none"
   stroke-width="0.25"
   stroke-miterlimit="10"
   width="2"
   height="48"
   id="rect2283" />
      <rect
   x="48"
   y="2"
   fill="none"
   stroke-width="0.25"
   stroke-miterlimit="10"
   width="2"
   height="48"
   id="rect2285" />
      <rect
   x="2"
   y="48"
   fill="none"
   stroke-width="0.25"
   stroke-miterlimit="10"
   width="48"
   height="2"
   id="rect2287" />
      <rect
   x="2"
   y="46"
   fill="none"
   stroke-width="0.25"
   stroke-miterlimit="10"
   width="48"
   height="2"
   id="rect2289" />
      <rect
   x="2"
   y="44"
   fill="none"
   stroke-width="0.25"
   stroke-miterlimit="10"
   width="48"
   height="2"
   id="rect2291" />
      <rect
   x="2"
   y="42"
   fill="none"
   stroke-width="0.25"
   stroke-miterlimit="10"
   width="48"
   height="2"
   id="rect2293" />
      <rect
   x="2"
   y="40"
   fill="none"
   stroke-width="0.25"
   stroke-miterlimit="10"
   width="48"
   height="2"
   id="rect2295" />
      <rect
   x="2"
   y="38"
   fill="none"
   stroke-width="0.25"
   stroke-miterlimit="10"
   width="48"
   height="2"
   id="rect2297" />
      <rect
   x="2"
   y="36"
   fill="none"
   stroke-width="0.25"
   stroke-miterlimit="10"
   width="48"
   height="2"
   id="rect2299" />
      <rect
   x="2"
   y="34"
   fill="none"
   stroke-width="0.25"
   stroke-miterlimit="10"
   width="48"
   height="2"
   id="rect2301" />
      <rect
   x="2"
   y="32"
   fill="none"
   stroke-width="0.25"
   stroke-miterlimit="10"
   width="48"
   height="2"
   id="rect2303" />
      <rect
   x="2"
   y="30"
   fill="none"
   stroke-width="0.25"
   stroke-miterlimit="10"
   width="48"
   height="2"
   id="rect2305" />
      <rect
   x="2"
   y="28"
   fill="none"
   stroke-width="0.25"
   stroke-miterlimit="10"
   width="48"
   height="2"
   id="rect2307" />
      <rect
   x="2"
   y="26"
   fill="none"
   stroke-width="0.25"
   stroke-miterlimit="10"
   width="48"
   height="2"
   id="rect2309" />
      <rect
   x="2"
   y="24"
   fill="none"
   stroke-width="0.25"
   stroke-miterlimit="10"
   width="48"
   height="2"
   id="rect2311" />
      <rect
   x="2"
   y="22"
   fill="none"
   stroke-width="0.25"
   stroke-miterlimit="10"
   width="48"
   height="2"
   id="rect2313" />
      <rect
   x="2"
   y="20"
   fill="none"
   stroke-width="0.25"
   stroke-miterlimit="10"
   width="48"
   height="2"
   id="rect2315" />
      <rect
   x="2"
   y="18"
   fill="none"
   stroke-width="0.25"
   stroke-miterlimit="10"
   width="48"
   height="2"
   id="rect2317" />
      <rect
   x="2"
   y="16"
   fill="none"
   stroke-width="0.25"
   stroke-miterlimit="10"
   width="48"
   height="2"
   id="rect2319" />
      <rect
   x="2"
   y="14"
   fill="none"
   stroke-width="0.25"
   stroke-miterlimit="10"
   width="48"
   height="2"
   id="rect2321" />
      <rect
   x="2"
   y="12"
   fill="none"
   stroke-width="0.25"
   stroke-miterlimit="10"
   width="48"
   height="2"
   id="rect2323" />
      <rect
   x="2"
   y="10"
   fill="none"
   stroke-width="0.25"
   stroke-miterlimit="10"
   width="48"
   height="2"
   id="rect2325" />
      <rect
   x="2"
   y="8"
   fill="none"
   stroke-width="0.25"
   stroke-miterlimit="10"
   width="48"
   height="2"
   id="rect2327" />
      <rect
   x="2"
   y="6"
   fill="none"
   stroke-width="0.25"
   stroke-miterlimit="10"
   width="48"
   height="2"
   id="rect2329" />
      <rect
   x="2"
   y="4"
   fill="none"
   stroke-width="0.25"
   stroke-miterlimit="10"
   width="48"
   height="2"
   id="rect2331" />
      <rect
   x="2"
   y="2"
   fill="none"
   stroke-width="0.25"
   stroke-miterlimit="10"
   width="48"
   height="2"
   id="rect2333" />
    </g>
  </g>
  <g
   id="g2345"
   style="fill:#2AA126"
   transform="matrix(1.8408736,0,0,2.9075051,-3.6817472,-31.764493)">
    <path
   d="M 25.8,26.7 C 24.6,26.8 23.5,26.3 22.3,25.9 16,23.8 9.6,21.7 3.3,19.6 2.9,19.4 2.6,19.3 2.3,19 1.9,18.7 1.9,18.3 2.3,18 2.6,17.8 3,17.5 3.4,17.4 c 6.8,-2 13.5,-4 20.3,-6.1 1.5,-0.5 3.1,-0.5 4.7,0 6.7,2 13.4,4 20.1,6 0.4,0.2 0.8,0.3 1.2,0.6 0.5,0.3 0.5,0.8 0,1.1 -0.3,0.2 -0.6,0.4 -1,0.5 -6.7,2.2 -13.4,4.5 -20.2,6.7 -0.9,0.4 -1.7,0.5 -2.7,0.5 z"
   id="path2339"
   style="fill:#2AA126" />
    <path
   d="m 12.5,27 c -1,-0.2 -1.2,0.4 -1.2,0.9 0,2.6 0,5.1 0,7.6 0,0.9 0.3,1.4 0.9,2 0.2,0.2 0.5,0.4 0.7,0.6 1.6,1.1 3.5,1.8 5.4,2.3 3.8,1 7.6,1.2 11.5,0.7 2.5,-0.3 5,-1 7.3,-2 1,-0.5 2,-1 2.7,-1.8 0.5,-0.5 0.7,-1 0.6,-1.7 0.1,-2.4 0.1,-4.9 0.1,-7.4 0,-1.4 -1,-1.2 -1.4,-1.1 -3.5,1.2 -7.2,2.3 -10.7,3.5 -1.8,0.6 -3.5,0.6 -5.2,0 z"
   id="path2341"
   style="fill:#2AA126" />
    <path
   d="m 45.9,24.7 c -0.3,0.1 -0.4,0.2 -0.4,0.6 0,2.3 0,4.5 0,6.8 0,0.2 -0.1,0.5 -0.2,0.7 -0.5,1.2 -1,2.4 -1.4,3.6 -0.4,1.1 -0.2,2.3 0.6,3.1 0.2,0.3 0.6,0.6 0.9,0.8 0.3,0.3 0.8,0.4 1.2,0.5 0.7,0.1 1.3,-0.3 1.8,-0.7 0.2,-0.2 0.5,-0.4 0.7,-0.7 0.6,-0.8 0.7,-1.8 0.5,-2.7 -0.3,-1.4 -0.9,-2.6 -1.5,-3.8 -0.2,-0.2 -0.2,-0.6 -0.2,-0.8 0,-2.5 0,-4.9 0,-7.4 0,-0.5 -0.4,-0.4 -0.6,-0.3 z"
   id="path2343"
   style="fill:#2AA126" />
  </g>
</svg>