<?xml version="1.0" encoding="UTF-8" standalone="no"?>
<!-- Generator: Adobe Illustrator 19.0.0, SVG Export Plug-In . SVG Version: 6.00 Build 0)  -->
<svg
   version="1.1"
   id="Capa_1"
   x="0px"
   y="0px"
   viewBox="0 0 512.002 512.002"
   style="enable-background:new 0 0 512.002 512.002;"
   xml:space="preserve"
   sodipodi:docname="entertainment.svg"
   inkscape:version="1.2.1 (9c6d41e4, 2022-07-14)"
   xmlns:inkscape="http://www.inkscape.org/namespaces/inkscape"
   xmlns:sodipodi="http://sodipodi.sourceforge.net/DTD/sodipodi-0.dtd"
   xmlns="http://www.w3.org/2000/svg"
   xmlns:svg="http://www.w3.org/2000/svg">
  <defs
   id="defs1284" />
  <sodipodi:namedview
   id="namedview1282"
   pagecolor="#505050"
   bordercolor="#eeeeee"
   borderopacity="1"
   inkscape:showpageshadow="0"
   inkscape:pageopacity="0"
   inkscape:pagecheckerboard="0"
   inkscape:deskcolor="#505050"
   showgrid="false"
   inkscape:zoom="0.46093569"
   inkscape:cx="254.91626"
   inkscape:cy="256.00101"
   inkscape:window-width="1280"
   inkscape:window-height="456"
   inkscape:window-x="0"
   inkscape:window-y="25"
   inkscape:window-maximized="0"
   inkscape:current-layer="Capa_1" />
  <g
   id="g1249"
   style="fill:#2AA126">
    <g
   id="g1247"
   style="fill:#2AA126">
      <path
   d="M501.969,5.636c-5.049-4.379-11.751-6.345-18.366-5.406L160.829,46.341c-11.359,1.623-19.795,11.351-19.795,22.825v92.221    v178.088c-13.656-7.956-29.509-12.537-46.421-12.537c-51.023,0-92.532,41.51-92.532,92.532s41.509,92.532,92.532,92.532    s92.532-41.51,92.532-92.532V181.383l276.664-39.524v151.506c-13.656-7.956-29.509-12.537-46.421-12.537    c-51.023,0-92.532,41.51-92.532,92.532s41.509,92.532,92.532,92.532c51.023,0,92.532-41.51,92.532-92.532V115.275V23.054    C509.918,16.37,507.018,10.015,501.969,5.636z M94.612,465.89c-25.596,0-46.421-20.825-46.421-46.421    c0-25.596,20.825-46.421,46.421-46.421c25.596,0,46.421,20.825,46.421,46.421C141.033,445.065,120.208,465.89,94.612,465.89z     M463.808,95.279l-276.664,39.524V89.161l276.664-39.524V95.279z M417.387,419.779c-25.596,0-46.421-20.825-46.421-46.421    s20.825-46.421,46.421-46.421c25.596,0,46.421,20.825,46.421,46.421C463.808,398.954,442.983,419.779,417.387,419.779z"
   id="path1245"
   style="fill:#2AA126" />
    </g>
  </g>
  <g
   id="g1251">
</g>
  <g
   id="g1253">
</g>
  <g
   id="g1255">
</g>
  <g
   id="g1257">
</g>
  <g
   id="g1259">
</g>
  <g
   id="g1261">
</g>
  <g
   id="g1263">
</g>
  <g
   id="g1265">
</g>
  <g
   id="g1267">
</g>
  <g
   id="g1269">
</g>
  <g
   id="g1271">
</g>
  <g
   id="g1273">
</g>
  <g
   id="g1275">
</g>
  <g
   id="g1277">
</g>
  <g
   id="g1279">
</g>
</svg>