<?xml version="1.0" encoding="UTF-8" standalone="no"?>
<!-- Generator: Adobe Illustrator 16.0.0, SVG Export Plug-In . SVG Version: 6.00 Build 0)  -->
<svg
   version="1.1"
   id="Capa_1"
   x="0px"
   y="0px"
   width="907.887px"
   height="907.887px"
   viewBox="0 0 907.887 907.887"
   style="enable-background:new 0 0 907.887 907.887;"
   xml:space="preserve"
   sodipodi:docname="eventmanagement.svg"
   inkscape:version="1.2.1 (9c6d41e4, 2022-07-14)"
   xmlns:inkscape="http://www.inkscape.org/namespaces/inkscape"
   xmlns:sodipodi="http://sodipodi.sourceforge.net/DTD/sodipodi-0.dtd"
   xmlns="http://www.w3.org/2000/svg"
   xmlns:svg="http://www.w3.org/2000/svg">
   <defs
   id="defs696" />
   <sodipodi:namedview
   id="namedview694"
   pagecolor="#505050"
   bordercolor="#eeeeee"
   borderopacity="1"
   inkscape:showpageshadow="0"
   inkscape:pageopacity="0"
   inkscape:pagecheckerboard="0"
   inkscape:deskcolor="#505050"
   showgrid="false"
   inkscape:zoom="0.25994424"
   inkscape:cx="452.02002"
   inkscape:cy="453.94351"
   inkscape:window-width="1280"
   inkscape:window-height="456"
   inkscape:window-x="0"
   inkscape:window-y="25"
   inkscape:window-maximized="0"
   inkscape:current-layer="Capa_1" />
   <g
   id="g661"
   style="fill:#2AA126">
      <g
   id="g659"
   style="fill:#2AA126">
         <path
   d="M905.986,112.61H725.53V0h-161v112.61H343.356V0h-161v112.61H1.9v795.277h904.086V112.61L905.986,112.61z M629.53,112.61    V65h31v47.61v65V189h-31v-11.39V112.61z M247.356,112.61V65h31v47.61v65V189h-31v-11.39V112.61z M66.9,177.61h115.456V254h161    v-76.39H564.53V254h161v-76.39h115.456v119.804H66.9V177.61z M840.986,842.887H66.9V362.414h774.086V842.887L840.986,842.887z"
   id="path639"
   style="fill:#2AA126" />
         <rect
   x="120.856"
   y="570.91"
   width="68"
   height="68"
   id="rect641"
   style="fill:#2AA126" />
         <rect
   x="270.4"
   y="570.91"
   width="68"
   height="68"
   id="rect643"
   style="fill:#2AA126" />
         <rect
   x="419.943"
   y="570.91"
   width="68"
   height="68"
   id="rect645"
   style="fill:#2AA126" />
         <rect
   x="569.486"
   y="570.91"
   width="68"
   height="68"
   id="rect647"
   style="fill:#2AA126" />
         <rect
   x="719.03"
   y="570.91"
   width="68"
   height="68"
   id="rect649"
   style="fill:#2AA126" />
         <rect
   x="120.856"
   y="713.5"
   width="68"
   height="68"
   id="rect651"
   style="fill:#2AA126" />
         <rect
   x="270.4"
   y="713.5"
   width="68"
   height="68"
   id="rect653"
   style="fill:#2AA126" />
         <rect
   x="569.486"
   y="429.5"
   width="68"
   height="68"
   id="rect655"
   style="fill:#2AA126" />
         <rect
   x="719.03"
   y="429.5"
   width="68"
   height="68"
   id="rect657"
   style="fill:#2AA126" />
      </g>
   </g>
   <g
   id="g663">
</g>
   <g
   id="g665">
</g>
   <g
   id="g667">
</g>
   <g
   id="g669">
</g>
   <g
   id="g671">
</g>
   <g
   id="g673">
</g>
   <g
   id="g675">
</g>
   <g
   id="g677">
</g>
   <g
   id="g679">
</g>
   <g
   id="g681">
</g>
   <g
   id="g683">
</g>
   <g
   id="g685">
</g>
   <g
   id="g687">
</g>
   <g
   id="g689">
</g>
   <g
   id="g691">
</g>
</svg>