<?xml version="1.0" encoding="UTF-8" standalone="no"?>
<svg
   width="512px"
   height="512px"
   viewBox="0 0 512 512"
   data-name="Layer 1"
   id="Layer_1"
   version="1.1"
   sodipodi:docname="fintech.svg"
   xml:space="preserve"
   inkscape:version="1.2.1 (9c6d41e4, 2022-07-14)"
   xmlns:inkscape="http://www.inkscape.org/namespaces/inkscape"
   xmlns:sodipodi="http://sodipodi.sourceforge.net/DTD/sodipodi-0.dtd"
   xmlns="http://www.w3.org/2000/svg"
   xmlns:svg="http://www.w3.org/2000/svg">
  <sodipodi:namedview
     id="namedview143"
     pagecolor="#505050"
     bordercolor="#eeeeee"
     borderopacity="1"
     inkscape:showpageshadow="0"
     inkscape:pageopacity="0"
     inkscape:pagecheckerboard="0"
     inkscape:deskcolor="#505050"
     showgrid="false"
     inkscape:zoom="0.47086925"
     inkscape:cx="300.50805"
     inkscape:cy="271.83767"
     inkscape:window-width="1280"
     inkscape:window-height="666"
     inkscape:window-x="0"
     inkscape:window-y="25"
     inkscape:window-maximized="0"
     inkscape:current-layer="Layer_1" />
  <defs
     id="defs134">
    <style
       id="style132">.cls-1{fill:#083b43;}.cls-2{fill:none;stroke:#083b43;stroke-linecap:round;stroke-linejoin:round;stroke-width:20px;}</style>
  </defs>
  <title
     id="title136" />
  <g
     id="g1543"
     transform="matrix(1.9308043,0,0,1.659543,-234.50182,-186.89517)"
     style="fill:#2AA126">
    <path
       class="cls-1"
       d="m 283.87,254.81 v 0 c -3.46,-2.72 -8.61,-4.9 -15.32,-6.48 l -14.72,-3.47 c -2.37,-0.55 -4.3,-1.05 -5.91,-1.52 a 23.57,23.57 0 0 1 -4.73,-1.76 5.17,5.17 0 0 1 -3,-4.91 6.57,6.57 0 0 1 3.22,-5.91 13.82,13.82 0 0 1 4.42,-1.82 24.45,24.45 0 0 1 5.54,-0.57 22,22 0 0 1 9.06,1.66 l 0.45,0.22 a 9.6,9.6 0 0 1 4.67,4.74 10.34,10.34 0 0 0 9.36,6.25 h 0.62 a 10.14,10.14 0 0 0 8.58,-4.72 10,10 0 0 0 0.64,-9.64 25.39,25.39 0 0 0 -8,-9.76 37,37 0 0 0 -13.36,-6.21 v -2.78 a 10,10 0 0 0 -20,0 v 2.26 c -6.79,1.11 -12.32,3.55 -16.47,7.28 a 26.22,26.22 0 0 0 -9,20.26 c 0,8.91 3.15,15.59 9.37,19.85 3.39,2.35 9.17,4.45 17.65,6.41 l 1.48,0.34 9.09,2 c 2,0.44 3.75,0.87 5.25,1.33 a 25.94,25.94 0 0 1 5.74,2.33 5.15,5.15 0 0 1 2.71,4.69 c 0,3.86 -1.95,6.33 -6.12,7.79 a 18.85,18.85 0 0 1 -2.17,0.59 36.26,36.26 0 0 1 -7.45,0.67 27.54,27.54 0 0 1 -7.48,-0.91 11.74,11.74 0 0 1 -5.88,-3.54 9.92,9.92 0 0 1 -1.54,-2.73 10.52,10.52 0 1 0 -19.19,8.57 26.27,26.27 0 0 0 7.45,9.08 36.75,36.75 0 0 0 16.54,7 v 2.46 a 10,10 0 0 0 20,0 v -2.24 c 7,-1.12 12.75,-3.6 17.21,-7.41 a 26.17,26.17 0 0 0 9.6,-20.66 c -0.03,-8.09 -2.81,-14.4 -8.31,-18.74 z"
       id="path138"
       style="display:inline;fill:#2AA126" />
    <g
       id="g1520"
       transform="matrix(1.1395677,0,0,1.1003683,96.0448,115.93047)"
       style="fill:#2AA126">
      <g
         id="g1464"
         style="fill:#2AA126">
        <path
   d="M 195.69,0 H 79.379 C 69.495,0 61.453,8.05 61.453,17.945 v 239.192 c 0,9.89 8.042,17.935 17.926,17.935 h 116.31 c 9.886,0 17.929,-8.045 17.929,-17.935 V 17.945 C 213.619,8.05 205.576,0 195.69,0 Z M 76.454,61.934 198.619,61.937 V 195.36 H 76.454 Z M 79.379,15 h 116.31 c 1.615,0 2.929,1.321 2.929,2.945 V 46.936 L 76.454,46.934 V 17.945 C 76.454,16.321 77.766,15 79.379,15 Z M 195.69,260.072 H 79.379 c -1.586,0 -2.926,-1.344 -2.926,-2.935 v -46.778 h 122.165 v 46.778 c 0.001,1.618 -1.313,2.935 -2.928,2.935 z"
   id="path1458"
   style="fill:#2AA126" />
        <path
   d="m 137.536,217.458 c -9.784,0 -17.744,7.966 -17.744,17.758 0,9.778 7.96,17.733 17.744,17.733 9.785,0 17.745,-7.955 17.745,-17.733 0,-9.792 -7.961,-17.758 -17.745,-17.758 z m 0,25.491 c -4.299,0 -7.744,-3.457 -7.744,-7.733 0,-4.28 3.445,-7.758 7.744,-7.758 4.29,0 7.745,3.479 7.745,7.758 0,4.276 -3.455,7.733 -7.745,7.733 z"
   id="path1460"
   style="fill:#2AA126" />
        <path
   d="m 122.45,35.967 h 30.174 c 2.761,0 5,-2.239 5,-5 0,-2.761 -2.239,-5 -5,-5 H 122.45 c -2.761,0 -5,2.239 -5,5 0,2.761 2.238,5 5,5 z"
   id="path1462"
   style="fill:#2AA126" />
      </g>
      <g
         id="g1466"
         style="fill:#2AA126">
</g>
      <g
         id="g1468"
         style="fill:#2AA126">
</g>
      <g
         id="g1470"
         style="fill:#2AA126">
</g>
      <g
         id="g1472"
         style="fill:#2AA126">
</g>
      <g
         id="g1474"
         style="fill:#2AA126">
</g>
      <g
         id="g1476"
         style="fill:#2AA126">
</g>
      <g
         id="g1478"
         style="fill:#2AA126">
</g>
      <g
         id="g1480"
         style="fill:#2AA126">
</g>
      <g
         id="g1482"
         style="fill:#2AA126">
</g>
      <g
         id="g1484"
         style="fill:#2AA126">
</g>
      <g
         id="g1486"
         style="fill:#2AA126">
</g>
      <g
         id="g1488"
         style="fill:#2AA126">
</g>
      <g
         id="g1490"
         style="fill:#2AA126">
</g>
      <g
         id="g1492"
         style="fill:#2AA126">
</g>
      <g
         id="g1494"
         style="fill:#2AA126">
</g>
    </g>
  </g>
</svg>