<?xml version="1.0" encoding="UTF-8" standalone="no"?>
<!-- Generator: Adobe Illustrator 19.0.0, SVG Export Plug-In . SVG Version: 6.00 Build 0)  -->
<svg
   version="1.1"
   id="Layer_1"
   x="0px"
   y="0px"
   viewBox="0 0 511.999 511.999"
   style="enable-background:new 0 0 511.999 511.999;"
   xml:space="preserve"
   sodipodi:docname="social.svg"
   inkscape:version="1.2.1 (9c6d41e4, 2022-07-14)"
   xmlns:inkscape="http://www.inkscape.org/namespaces/inkscape"
   xmlns:sodipodi="http://sodipodi.sourceforge.net/DTD/sodipodi-0.dtd"
   xmlns="http://www.w3.org/2000/svg"
   xmlns:svg="http://www.w3.org/2000/svg">
  <defs
   id="defs177" />
  <sodipodi:namedview
   id="namedview175"
   pagecolor="#505050"
   bordercolor="#eeeeee"
   borderopacity="1"
   inkscape:showpageshadow="0"
   inkscape:pageopacity="0"
   inkscape:pagecheckerboard="0"
   inkscape:deskcolor="#505050"
   showgrid="false"
   inkscape:zoom="0.46093841"
   inkscape:cx="254.91475"
   inkscape:cy="255.9995"
   inkscape:window-width="1280"
   inkscape:window-height="456"
   inkscape:window-x="0"
   inkscape:window-y="25"
   inkscape:window-maximized="0"
   inkscape:current-layer="Layer_1" />
  <g
   id="g136"
   style="fill:#2AA126">
    <g
   id="g134"
   style="fill:#2AA126">
      <path
   d="M438.428,236.088c-0.317-11.571-6.001-21.92-14.633-28.724c2.28-4.886,3.554-10.333,3.554-16.071    c0-21.028-17.108-38.136-38.136-38.136h-44.203l0.227-53.358c0.044-10.451-3.993-20.286-11.368-27.692    c-7.375-7.406-17.192-11.485-27.643-11.485c-15.681,0-29.787,9.355-35.935,23.832c-5.271,12.408-15.34,30.832-29.12,53.278    c-5.84,9.513-16.409,15.424-27.581,15.424h-31.346h-30.417h-78.27v213.841h78.271h30.417v0.001h195.875    c21.028,0,38.136-17.109,38.136-38.137c0-5.669-1.244-11.054-3.473-15.894c8.866-6.99,14.567-17.823,14.567-29.961    c0-5.662-1.24-11.038-3.462-15.874c1.313-1.037,2.567-2.169,3.754-3.389C434.882,256.3,438.713,246.478,438.428,236.088z     M151.827,336.58h-47.853V183.574h47.853V336.58z M405.843,242.53c-0.85,0.873-2.698,2.338-5.534,2.338h-11.093h-30.393v30.417    h30.393c4.256,0,7.719,3.464,7.719,7.72c0,4.256-3.462,7.719-7.719,7.719h-11.094h-19.298v30.417h19.298    c4.256,0,7.719,3.464,7.719,7.719c0,4.256-3.462,7.72-7.719,7.72H182.244V183.574h31.346c21.671,0,42.173-11.468,53.505-29.929    c10.15-16.534,23.802-39.896,31.194-57.3c1.369-3.223,4.486-5.306,7.939-5.306c2.303,0,4.464,0.898,6.09,2.53    c1.625,1.631,2.513,3.798,2.504,6.101l-0.358,83.904h74.751c4.256,0,7.719,3.464,7.719,7.719c0,4.256-3.463,7.72-7.719,7.72    h-30.393v30.417h30.393h10.617c4.404,0,8.08,3.36,8.193,7.492C408.103,239.77,406.691,241.658,405.843,242.53z"
   id="path132"
   style="fill:#2AA126" />
    </g>
  </g>
  <g
   id="g142"
   style="fill:#2AA126">
    <g
   id="g140"
   style="fill:#2AA126">
      <path
   d="M0,10.015v417.73h201.339l54.661,74.239l54.661-74.239h201.339V10.015H0z M481.583,397.328H295.283l-39.284,53.354    l-39.284-53.355H30.417V40.431h451.166V397.328z"
   id="path138"
   style="fill:#2AA126" />
    </g>
  </g>
  <g
   id="g144">
</g>
  <g
   id="g146">
</g>
  <g
   id="g148">
</g>
  <g
   id="g150">
</g>
  <g
   id="g152">
</g>
  <g
   id="g154">
</g>
  <g
   id="g156">
</g>
  <g
   id="g158">
</g>
  <g
   id="g160">
</g>
  <g
   id="g162">
</g>
  <g
   id="g164">
</g>
  <g
   id="g166">
</g>
  <g
   id="g168">
</g>
  <g
   id="g170">
</g>
  <g
   id="g172">
</g>
</svg>