<?xml version="1.0" encoding="UTF-8" standalone="no"?>
<!-- Generator: Adobe Illustrator 19.0.0, SVG Export Plug-In . SVG Version: 6.00 Build 0)  -->
<svg
   version="1.1"
   id="Layer_1"
   x="0px"
   y="0px"
   viewBox="0 0 490 490"
   style="enable-background:new 0 0 490 490;"
   xml:space="preserve"
   sodipodi:docname="startupsolution.svg"
   inkscape:version="1.2.1 (9c6d41e4, 2022-07-14)"
   xmlns:inkscape="http://www.inkscape.org/namespaces/inkscape"
   xmlns:sodipodi="http://sodipodi.sourceforge.net/DTD/sodipodi-0.dtd"
   xmlns="http://www.w3.org/2000/svg"
   xmlns:svg="http://www.w3.org/2000/svg">
  <defs
   id="defs471" />
  <sodipodi:namedview
   id="namedview469"
   pagecolor="#505050"
   bordercolor="#eeeeee"
   borderopacity="1"
   inkscape:showpageshadow="0"
   inkscape:pageopacity="0"
   inkscape:pagecheckerboard="0"
   inkscape:deskcolor="#505050"
   showgrid="false"
   inkscape:zoom="0.48163265"
   inkscape:cx="243.96186"
   inkscape:cy="245"
   inkscape:window-width="1280"
   inkscape:window-height="456"
   inkscape:window-x="0"
   inkscape:window-y="25"
   inkscape:window-maximized="0"
   inkscape:current-layer="Layer_1" />
  <g
   id="g436"
   style="fill:#2AA126">
    <g
   id="g434"
   style="fill:#2AA126">
      <g
   id="g432"
   style="fill:#2AA126">
        <path
   d="M433.612,344.918l-29.506-50.007L305,127.265V100h-0.007c0-1.672-0.412-3.345-1.251-4.856l-50-90     C251.978,1.969,248.632,0,245,0s-6.978,1.969-8.742,5.144l-50,90c-0.839,1.511-1.251,3.185-1.251,4.856H185v27.265L85.89,294.918     l-29.502,50c-1.824,3.091-1.852,6.923-0.072,10.041C58.096,358.076,61.411,360,65,360h130h5v20c0,5.523,4.477,10,10,10h70     c5.523,0,10-4.477,10-10v-20h5h130c3.589,0,6.904-1.924,8.684-5.041C435.464,351.842,435.436,348.01,433.612,344.918z M185,340     H82.511l17.701-30H170v-20h-57.97L185,166.566V340z M245,30.591L278.005,90h-66.01L245,30.591z M270,370h-50v-10h50V370z      M285,340h-80V230h80V340z M285,130v80h-80v-80v-20h80V130z M305,340V166.566L377.97,290H320v20h69.788l17.701,30H305z"
   id="path424"
   style="fill:#2AA126" />
        <path
   d="M245,195c16.542,0,30-13.458,30-30s-13.458-30-30-30s-30,13.458-30,30S228.458,195,245,195z M245,155     c5.514,0,10,4.486,10,10c0,5.514-4.486,10-10,10c-5.514,0-10-4.486-10-10C235,159.486,239.486,155,245,155z"
   id="path426"
   style="fill:#2AA126" />
        <path
   d="M245.009,469.65C236.73,467.011,205,453.395,205,400h-20c0,21.99,4.912,52.624,28.311,73.683     c14.131,12.718,28.173,15.811,29.729,16.123c0.647,0.129,1.304,0.194,1.961,0.194c0.657,0,1.314-0.065,1.961-0.194     c1.555-0.311,15.598-3.405,29.729-16.123C300.088,452.624,305,421.99,305,400h-20C285,453.479,253.393,467.005,245.009,469.65z"
   id="path428"
   style="fill:#2AA126" />
        <rect
   x="235"
   y="400"
   width="20"
   height="40"
   id="rect430"
   style="fill:#2AA126" />
      </g>
    </g>
  </g>
  <g
   id="g438"
   style="fill:#2AA126">
</g>
  <g
   id="g440"
   style="fill:#2AA126">
</g>
  <g
   id="g442"
   style="fill:#2AA126">
</g>
  <g
   id="g444"
   style="fill:#2AA126">
</g>
  <g
   id="g446"
   style="fill:#2AA126">
</g>
  <g
   id="g448"
   style="fill:#2AA126">
</g>
  <g
   id="g450"
   style="fill:#2AA126">
</g>
  <g
   id="g452"
   style="fill:#2AA126">
</g>
  <g
   id="g454"
   style="fill:#2AA126">
</g>
  <g
   id="g456"
   style="fill:#2AA126">
</g>
  <g
   id="g458"
   style="fill:#2AA126">
</g>
  <g
   id="g460"
   style="fill:#2AA126">
</g>
  <g
   id="g462"
   style="fill:#2AA126">
</g>
  <g
   id="g464"
   style="fill:#2AA126">
</g>
  <g
   id="g466"
   style="fill:#2AA126">
</g>
</svg>