<svg xmlns="http://www.w3.org/2000/svg" width="60.786" height="71.729" viewBox="0 0 60.786 71.729">
  <g id="Group_9420" data-name="Group 9420" transform="translate(-1313.918 -4784.985)">
    <path id="Path_217" data-name="Path 217" d="M175.947,5.062H119.042A1.441,1.441,0,0,0,117.6,6.5V74.351a1.441,1.441,0,0,0,1.441,1.441h56.906a1.441,1.441,0,0,0,1.441-1.441V6.5a1.441,1.441,0,0,0-1.441-1.441Zm-1.441,67.849H120.482V7.944h54.024Z" transform="translate(1196.817 4780.422)" fill="#2AA126" stroke="#2AA126" stroke-width="1"/>
    <path id="Path_218" data-name="Path 218" d="M228.869,92.787c.013.017.03.028.044.044a16.325,16.325,0,1,0-.088-.111c.016.022.027.046.044.068Zm25.677-10a13.143,13.143,0,0,1-22.461,9.277l10.21-8.151c.02-.017.036-.037.055-.054a1.291,1.291,0,0,0,.106-.1c.032-.035.061-.071.089-.108s.053-.074.076-.113.048-.083.068-.125.038-.083.053-.126.03-.09.043-.136.02-.088.028-.133a1.507,1.507,0,0,0,.015-.151c0-.027.008-.05.008-.076V69.719a13.166,13.166,0,0,1,11.71,13.067Zm-14.59-13.067V82.094l-9.661,7.712a13.121,13.121,0,0,1,9.661-20.087Z" transform="translate(1102.917 4726.666)" fill="#2AA126" stroke="#2AA126" stroke-width="1"/>
    <path id="Path_219" data-name="Path 219" d="M206.012,371.64h34.531a1.441,1.441,0,1,0,0-2.881H206.012a1.441,1.441,0,0,0,0,2.882Z" transform="translate(1121.034 4463.509)" fill="#2AA126" stroke="#2AA126" stroke-width="1"/>
    <path id="Path_220" data-name="Path 220" d="M206.012,422.68h34.531a1.441,1.441,0,1,0,0-2.881H206.012a1.441,1.441,0,0,0,0,2.882Z" transform="translate(1121.034 4419.034)" fill="#2AA126" stroke="#2AA126" stroke-width="1"/>
    <path id="Path_221" data-name="Path 221" d="M206.012,473.723h34.531a1.441,1.441,0,0,0,0-2.881H206.012a1.441,1.441,0,0,0,0,2.881Z" transform="translate(1121.034 4374.556)" fill="#2AA126" stroke="#2AA126" stroke-width="1"/>
  </g>
</svg>