<svg xmlns="http://www.w3.org/2000/svg" xmlns:xlink="http://www.w3.org/1999/xlink" id="Layer_1" x="0px" y="0px" width="80px" height="80px" viewBox="0 0 80 80" xml:space="preserve"><path stroke="#000000" stroke-width="0.75" stroke-miterlimit="10" d="M28.168,77.597c-3.072,0-10.76-0.752-15.772-7.712 L3.677,59.014l-0.027-0.03c-0.803-0.829-1.244-1.923-1.244-3.08c0-1.185,0.463-2.3,1.302-3.138c0.838-0.839,1.953-1.299,3.138-1.299 c1.184,0,2.299,0.46,3.137,1.299l4.704,4.938V41.207c0-2.446,1.992-4.439,4.438-4.439c0.616,0,1.218,0.129,1.785,0.382l1.146,0.505 V35.68c0-2.446,1.989-4.436,4.436-4.436c2.45,0,4.439,1.989,4.439,4.436v1.975l1.142-0.505c0.568-0.253,1.173-0.382,1.789-0.382 c2.092,0,3.922,1.487,4.346,3.537l0.207,1.01l0.935-0.438c0.599-0.279,1.232-0.424,1.879-0.424c2.449,0,4.438,1.993,4.438,4.439 V61.43c0,8.839-7.188,16.062-16.024,16.104l-0.036,0.003l-0.039,0.003C29.388,77.554,28.895,77.597,28.168,77.597z M6.851,53.003 c-0.791,0-1.548,0.304-2.077,0.832c-0.553,0.551-0.859,1.287-0.859,2.071c0,0.781,0.307,1.518,0.859,2.07 c0.015,0.019,0.033,0.036,0.051,0.058l8.773,10.939c4.604,6.426,11.697,7.117,14.534,7.117c0.697,0,1.169-0.039,1.34-0.058 c0.033-0.003,0.063-0.006,0.091-0.006c8.048,0,14.597-6.549,14.597-14.594V44.892c0-1.617-1.316-2.931-2.93-2.931 c-1.617,0-2.931,1.313-2.931,2.931v9.785c0,0.415-0.337,0.755-0.754,0.755c-0.415,0-0.755-0.34-0.755-0.755v-13.47 c0-1.617-1.313-2.931-2.93-2.931c-1.614,0-2.928,1.313-2.928,2.931v13.509c0,0.415-0.34,0.755-0.754,0.755 c-0.418,0-0.755-0.34-0.755-0.755V35.683c0-1.617-1.316-2.93-2.93-2.93c-1.617,0-2.931,1.313-2.931,2.93v19.033 c0,0.415-0.34,0.755-0.755,0.755c-0.414,0-0.754-0.34-0.754-0.755V41.207c0-1.614-1.313-2.931-2.931-2.931 c-1.613,0-2.93,1.316-2.93,2.931v18.401c0,0.007-0.006,0.03-0.009,0.052l-0.01,0.093l-0.045,0.139l-0.036,0.06l-0.021,0.042 c0,0-0.091,0.117-0.105,0.133c-0.024,0.018-0.123,0.099-0.123,0.099l-0.114,0.058c-0.03,0.015-0.058,0.021-0.084,0.027l-0.063,0.018 c-0.033,0.006-0.063,0.006-0.096,0.009l-0.036,0.003l-0.033,0.003c-0.024,0-0.052-0.006-0.081-0.012 c-0.021-0.003-0.039-0.006-0.061-0.006l-0.135-0.045l-0.117-0.063l-0.127-0.105l-0.042-0.039l-5.953-6.248 C8.377,53.298,7.635,53.003,6.851,53.003z"></path><path fill="#F1592B" stroke="#F26522" stroke-width="0.75" stroke-miterlimit="10" d="M55.192,48.125 c-0.156,0-0.313-0.003-0.472-0.006c-0.204-0.006-0.391-0.087-0.529-0.234c-0.138-0.145-0.213-0.337-0.207-0.538 c0.009-0.405,0.346-0.736,0.751-0.736c0.156,0.003,0.289,0.006,0.421,0.006c4.396,0,7.349-1.707,11.276-6.521l8.739-10.897 c0.019-0.021,0.04-0.042,0.058-0.063c0.553-0.55,0.856-1.286,0.856-2.067c0-0.784-0.304-1.521-0.859-2.074 c-0.532-0.531-1.286-0.835-2.071-0.835c-0.784,0-1.538,0.304-2.07,0.835l-5.818,6.026l-0.051,0.093 c-0.066,0.117-0.16,0.214-0.273,0.282l-0.091,0.055l-2.206,2.281c-0.141,0.15-0.333,0.231-0.541,0.231 c-0.195,0-0.382-0.075-0.525-0.214c-0.142-0.138-0.226-0.327-0.229-0.528c-0.003-0.202,0.072-0.392,0.213-0.535l2.242-2.323V12.367 c0-1.614-1.313-2.931-2.93-2.931c-1.614,0-2.931,1.316-2.931,2.931v13.509c0,0.415-0.337,0.755-0.751,0.755 c-0.418,0-0.755-0.34-0.755-0.755V6.843c0-1.617-1.313-2.931-2.93-2.931c-1.617,0-2.931,1.313-2.931,2.931v19.033 c0,0.415-0.337,0.755-0.755,0.755c-0.414,0-0.754-0.34-0.754-0.755V12.367c0-1.614-1.313-2.931-2.931-2.931 c-1.613,0-2.93,1.316-2.93,2.931l0.003,13.47c0,0.415-0.34,0.755-0.755,0.755c-0.417,0-0.754-0.34-0.754-0.755v-9.785 c0-1.614-1.316-2.931-2.931-2.931c-1.616,0-2.93,1.316-2.93,2.931v11.573c0,0.415-0.34,0.755-0.755,0.755 c-0.414,0-0.754-0.34-0.754-0.755V16.052c0-2.447,1.992-4.439,4.438-4.439c0.649,0,1.28,0.145,1.879,0.427l0.935,0.438l0.21-1.01 c0.424-2.05,2.251-3.537,4.343-3.537c0.616,0,1.218,0.126,1.789,0.379l1.142,0.505V6.843c0-2.449,1.992-4.439,4.439-4.439 c2.446,0,4.438,1.99,4.438,4.439v1.972l1.143-0.505c0.567-0.253,1.169-0.382,1.788-0.382c2.446,0,4.436,1.992,4.436,4.439v16.427 l4.694-4.859c0.842-0.839,1.963-1.308,3.146-1.308c1.188,0,2.3,0.46,3.138,1.299c0.839,0.838,1.302,1.953,1.302,3.138 c0,1.157-0.441,2.254-1.244,3.083l-0.027,0.027l-8.719,10.87C63.395,46.205,60.028,48.125,55.192,48.125z"></path></svg>