<svg xmlns="http://www.w3.org/2000/svg" xmlns:xlink="http://www.w3.org/1999/xlink" id="Layer_1" x="0px" y="0px" width="80px" height="80px" viewBox="0 0 80 80" xml:space="preserve">
  <path d="M46.107,2.06c-2.889,0-5.253,2.366-5.253,5.253V21.44l-5.882,6.894c-0.335,0.391-0.413,0.938-0.199,1.404 c0.215,0.467,0.683,0.764,1.195,0.761h35.237c2.887,0,5.253-2.365,5.253-5.253V7.313c0-2.887-2.366-5.253-5.253-5.253H46.107z  M46.107,4.677h25.098c1.486,0,2.637,1.156,2.637,2.636v17.934c0,1.48-1.151,2.633-2.637,2.633H38.797l4.356-5.107 c0.205-0.236,0.317-0.537,0.317-0.85V7.313C43.47,5.833,44.62,4.677,46.107,4.677L46.107,4.677z"></path>
  <path fill="#2AA126" d="M52.325,10.818c-0.348,0-0.68,0.137-0.927,0.38c-0.246,0.245-0.384,0.576-0.385,0.925 c-0.001,0.346,0.137,0.683,0.382,0.928c0.247,0.246,0.582,0.386,0.93,0.386h13.066c0.347-0.004,0.681-0.143,0.925-0.389 c0.244-0.245,0.381-0.579,0.379-0.925c-0.003-0.719-0.585-1.302-1.304-1.305H52.325z"></path>
  <path fill="#2AA126" d="M52.325,19.123L52.325,19.123c-0.348-0.003-0.683,0.137-0.93,0.382c-0.246,0.246-0.384,0.582-0.382,0.932 c0,0.346,0.138,0.679,0.385,0.925c0.246,0.242,0.579,0.379,0.927,0.379h13.066c0.72-0.003,1.302-0.585,1.304-1.304 c0.002-0.35-0.135-0.68-0.379-0.929c-0.244-0.245-0.578-0.385-0.925-0.385H52.325z"></path>
  <path fill="#2AA126" d="M17.863,12.189c-5.729,0-10.391,4.726-10.391,10.497c0,3.764,1.985,7.085,4.956,8.938 c-5.215,2.138-8.886,7.27-8.886,13.263v6.672l0,0c-0.003,0.723,0.581,1.311,1.303,1.313h26.035c0.723-0.003,1.306-0.591,1.304-1.313 v-6.675c0-5.99-3.671-11.122-8.887-13.26c2.969-1.854,4.956-5.175,4.956-8.938c0-5.771-4.662-10.497-10.391-10.497H17.863z  M17.863,14.807c4.299,0,7.772,3.507,7.772,7.88c0,4.271-3.315,7.719-7.476,7.873c-0.097-0.003-0.197-0.006-0.296-0.006 s-0.198,0.003-0.295,0.006c-4.161-0.154-7.479-3.6-7.479-7.873C10.088,18.313,13.564,14.807,17.863,14.807L17.863,14.807z  M17.542,33.178c0.107,0.003,0.214,0.003,0.321,0.003c0.106,0,0.212,0,0.319-0.003c6.357,0.166,11.385,5.305,11.385,11.707v5.371 H6.158v-5.371C6.158,38.482,11.185,33.344,17.542,33.178L17.542,33.178z"></path>
  <path d="M52.44,37.257c-5.728,0-10.388,4.729-10.388,10.5c0,3.767,1.986,7.085,4.961,8.932c-5.223,2.142-8.901,7.273-8.901,13.267 v6.669v0.003c-0.001,0.349,0.136,0.683,0.384,0.928c0.246,0.249,0.581,0.386,0.929,0.386h26.023 c0.349,0.003,0.684-0.137,0.931-0.382c0.248-0.249,0.387-0.583,0.385-0.932v-6.672c0-5.993-3.677-11.125-8.897-13.264 c2.972-1.85,4.954-5.168,4.954-8.935C62.822,41.985,58.171,37.257,52.44,37.257L52.44,37.257z M52.44,39.874 c4.301,0,7.766,3.506,7.766,7.883c0,4.271-3.307,7.716-7.469,7.873c-0.098-0.003-0.197-0.006-0.297-0.006 c-0.099,0-0.194,0.003-0.294,0.006c-4.16-0.157-7.478-3.6-7.478-7.873C44.668,43.38,48.143,39.874,52.44,39.874L52.44,39.874z  M52.44,58.241c6.507,0,11.706,5.202,11.706,11.714v5.368H40.73v-5.368C40.73,63.443,45.935,58.241,52.44,58.241L52.44,58.241z"></path>
</svg>