<svg xmlns="http://www.w3.org/2000/svg" xmlns:xlink="http://www.w3.org/1999/xlink" id="Layer_1" x="0px" y="0px" width="80px" height="80px" viewBox="0 0 80 80" xml:space="preserve">
  <path fill="#2AA126" d="M1.997,5.421v69.158h49.942V53.812c-0.617,0.362-1.259,0.674-1.921,0.94v17.907H3.918V7.34h46.101v20.583 c0.662,0.26,1.304,0.567,1.921,0.919V5.421H1.997z"></path>
  <rect x="7.761" y="10.703" width="38.421" height="0.965"></rect>
  <rect x="7.761" y="15.509" width="38.421" height="0.958"></rect>
  <rect x="7.761" y="20.312" width="38.421" height="0.954"></rect>
  <rect x="7.761" y="25.11" width="38.421" height="0.958"></rect>
  <path d="M7.761,29.909v0.958h27.122l0.002,0.001c0.359-0.34,0.733-0.659,1.126-0.959H7.761z"></path>
  <path d="M7.761,34.716v0.958h23.77c0.144-0.325,0.299-0.646,0.464-0.958H7.761z"></path>
  <path d="M7.761,39.518v0.955h22.652c0.019-0.319,0.046-0.637,0.085-0.955H7.761z"></path>
  <path d="M7.761,44.316v0.967h23.17l0,0c-0.086-0.32-0.161-0.641-0.226-0.967H7.761z"></path>
  <path d="M7.761,49.118v0.965h25.587l0,0c-0.243-0.313-0.473-0.636-0.688-0.965H7.761z"></path>
  <path d="M7.761,53.922v0.965h32.2v0.003c-0.749-0.263-1.476-0.586-2.173-0.968H7.761z"></path>
  <rect x="7.761" y="58.726" width="38.421" height="0.954"></rect>
  <rect x="7.761" y="63.531" width="38.421" height="0.967"></rect>
  <rect x="7.761" y="68.329" width="38.421" height="0.968"></rect>
  <path fill="#2AA126" d="M44.736,25.945c-3.935,0-7.873,1.498-10.87,4.498c-5.993,5.993-5.993,15.737,0,21.732 c5.368,5.362,13.615,5.655,19.612,1.41c0.304,0.531,2.574,4.514,6.205,9.271c3.864,5.07,8.736,10.499,13.704,11.643 c1.291,0.29,2.457-0.376,3.312-1.23c0.853-0.857,1.532-2.018,1.232-3.314c-1.146-4.967-6.574-9.838-11.642-13.705 c-4.761-3.629-8.746-5.904-9.275-6.211c4.242-5.996,3.956-14.23-1.409-19.594C52.608,27.445,48.67,25.945,44.736,25.945 L44.736,25.945z M44.736,27.854c3.438,0,6.879,1.31,9.509,3.942c5.259,5.26,5.259,13.756,0,19.014c-5.26,5.26-13.758,5.26-19.018,0 c-5.261-5.258-5.261-13.753,0-19.014C37.856,29.164,41.295,27.854,44.736,27.854L44.736,27.854z"></path>
</svg>