<svg xmlns="http://www.w3.org/2000/svg" xmlns:xlink="http://www.w3.org/1999/xlink" id="Layer_1" x="0px" y="0px" width="80px" height="80px" viewBox="0 0 80 80" xml:space="preserve">
  <path fill="#2AA126" d="M65.315,2.027H28.492c-0.305,0-0.597,0.122-0.814,0.337l-16.11,16.108c-0.215,0.217-0.337,0.509-0.337,0.815 v55.234c0,1.903,1.55,3.452,3.453,3.452h50.631c1.903,0,3.453-1.548,3.453-3.452V5.479c0-1.903-1.55-3.453-3.453-3.453V2.027z  M27.341,5.956v12.182h-12.18L27.341,5.956z M66.466,74.522c0,0.635-0.518,1.151-1.151,1.151H14.683 c-0.633,0-1.151-0.516-1.151-1.151V20.438h14.96c0.634,0,1.15-0.516,1.15-1.15V4.328h35.673c0.635,0,1.151,0.516,1.151,1.151V74.522 z M46.904,11.233h9.206v2.301h-9.206V11.233z"></path>
  <rect x="23.89" y="63.015" width="9.206" height="2.301"></rect>
  <rect x="23.89" y="37.699" width="32.22" height="2.301"></rect>
  <rect x="23.89" y="44.604" width="32.22" height="2.301"></rect>
  <rect x="23.89" y="30.794" width="13.809" height="2.301"></rect>
  <rect x="23.89" y="51.51" width="32.22" height="2.301"></rect>
</svg>