<svg id="analysis" xmlns="http://www.w3.org/2000/svg" width="62.733" height="62.733" viewBox="0 0 62.733 62.733">
  <path id="Path_129" data-name="Path 129" d="M61.838,163.676H82.667a1.838,1.838,0,0,0,0-3.676H61.838a1.838,1.838,0,1,0,0,3.676Z" transform="translate(-52.648 -140.396)" fill="#fbfcfc"/>
  <path id="Path_130" data-name="Path 130" d="M77.766,220H61.838a1.838,1.838,0,1,0,0,3.676H77.766a1.838,1.838,0,1,0,0-3.676Z" transform="translate(-52.648 -193.044)" fill="#fbfcfc"/>
  <path id="Path_131" data-name="Path 131" d="M77.766,280H61.838a1.838,1.838,0,0,0,0,3.676H77.766a1.838,1.838,0,1,0,0-3.676Z" transform="translate(-52.648 -245.693)" fill="#fbfcfc"/>
  <path id="Path_132" data-name="Path 132" d="M77.766,340H61.838a1.838,1.838,0,1,0,0,3.676H77.766a1.838,1.838,0,1,0,0-3.676Z" transform="translate(-52.648 -298.341)" fill="#fbfcfc"/>
  <path id="Path_133" data-name="Path 133" d="M62.2,51.815,53,42.624A12.881,12.881,0,0,0,47.785,23.1v-9a1.837,1.837,0,0,0-.538-1.3L34.995.538A1.838,1.838,0,0,0,33.7,0H6.739A6.747,6.747,0,0,0,0,6.739V55.994a6.747,6.747,0,0,0,6.739,6.739H41.046a6.747,6.747,0,0,0,6.739-6.739v-9.25a12.754,12.754,0,0,0,2.622-1.52L59.6,54.414a1.838,1.838,0,0,0,2.6-2.6Zm-13-10.4a9.144,9.144,0,0,1-3.736,2.27q-.064.017-.126.039a9.223,9.223,0,0,1-2.635.383,9.189,9.189,0,0,1,0-18.379,9.223,9.223,0,0,1,2.636.383c.041.014.083.027.125.039A9.194,9.194,0,0,1,49.2,41.418ZM41.51,12.253H35.533V6.275Zm2.6,43.742a3.067,3.067,0,0,1-3.063,3.063H6.739a3.067,3.067,0,0,1-3.063-3.063V6.739A3.067,3.067,0,0,1,6.739,3.676H31.857V14.09a1.838,1.838,0,0,0,1.838,1.838H44.109v6.2a13.091,13.091,0,0,0-1.408-.077,12.865,12.865,0,0,0,0,25.731,13.092,13.092,0,0,0,1.408-.077Z" transform="translate(0 0)" fill="#fbfcfc"/>
</svg>
