<?xml version="1.0" encoding="UTF-8" standalone="no"?>
<svg
   width="512px"
   height="512px"
   viewBox="0 0 512 512"
   style="enable-background:new 0 0 512 512;"
   version="1.1"
   xml:space="preserve"
   id="svg138"
   sodipodi:docname="app-development.svg"
   inkscape:version="1.2.1 (9c6d41e4, 2022-07-14)"
   xmlns:inkscape="http://www.inkscape.org/namespaces/inkscape"
   xmlns:sodipodi="http://sodipodi.sourceforge.net/DTD/sodipodi-0.dtd"
   xmlns="http://www.w3.org/2000/svg"
   xmlns:svg="http://www.w3.org/2000/svg">
  <defs
     id="defs142" />
  <sodipodi:namedview
     id="namedview140"
     pagecolor="#505050"
     bordercolor="#eeeeee"
     borderopacity="1"
     inkscape:showpageshadow="0"
     inkscape:pageopacity="0"
     inkscape:pagecheckerboard="0"
     inkscape:deskcolor="#505050"
     showgrid="false"
     inkscape:zoom="0.4609375"
     inkscape:cx="120.40678"
     inkscape:cy="256"
     inkscape:window-width="1280"
     inkscape:window-height="456"
     inkscape:window-x="0"
     inkscape:window-y="25"
     inkscape:window-maximized="0"
     inkscape:current-layer="svg138" />
  <g
     id="_x31_77_x2C__frontend_x2C__interface_x2C__mobile_x2C__phone_x2C__developer"
     style="fill:#2AA126;fill-opacity:1"
     transform="matrix(0.99860512,0,0,1.0000065,0.09308851,-1.6957937e-4)">
    <g
       id="g134"
       style="fill:#2AA126;fill-opacity:1">
      <path
         d="M 375.969,381.521 H 130.978 v 50.003 0.16 0.032 l 0.018,0.161 v 0.032 0.16 0.033 0.16 0.032 l 0.014,0.161 0.018,0.192 v 0 l 0.014,0.193 v 0 l 0.018,0.193 0.014,0.192 0.018,0.193 v 0 l 0.032,0.16 v 0.033 l 0.031,0.16 v 0 l 0.035,0.193 0.032,0.192 v 0 l 0.032,0.193 0.031,0.161 0.032,0.193 0.049,0.161 0.049,0.193 0.046,0.193 v 0 l 0.049,0.16 0.049,0.193 0.049,0.16 0.063,0.193 0.049,0.161 0.049,0.193 0.063,0.16 0.063,0.193 0.067,0.16 0.063,0.162 0.063,0.161 0.081,0.192 0.081,0.16 0.063,0.161 0.081,0.162 0.081,0.16 0.066,0.161 0.095,0.161 0.081,0.192 0.081,0.129 0.095,0.161 0.098,0.16 0.081,0.161 0.095,0.161 0.098,0.161 0.095,0.16 0.098,0.129 0.112,0.16 0.099,0.162 0.095,0.128 0.112,0.161 0.112,0.128 0.098,0.162 0.112,0.129 0.112,0.16 0.13,0.129 0.095,0.129 0.13,0.161 0.112,0.129 0.112,0.128 0.13,0.129 0.126,0.129 0.13,0.128 0.129,0.129 c 2.703,2.735 6.465,4.409 10.585,4.409 H 360.96 v 0 h 0.193 0.192 v 0 h 0.179 0.014 0.162 0.031 0.162 l 0.031,-0.033 h 0.161 0.032 0.161 0.018 l 0.161,-0.032 h 0.031 0.145 l 0.031,-0.031 h 0.162 0.031 l 0.147,-0.033 h 0.046 l 0.129,-0.031 h 0.063 l 0.13,-0.032 h 0.049 l 0.127,-0.033 h 0.049 l 0.13,-0.031 h 0.063 l 0.13,-0.032 h 0.049 l 0.112,-0.033 h 0.081 l 0.112,-0.031 0.063,-0.031 h 0.099 l 0.077,-0.033 0.115,-0.032 h 0.064 l 0.094,-0.031 0.099,-0.033 0.081,-0.032 h 0.08 l 0.096,-0.031 0.098,-0.033 0.08,-0.031 0.082,-0.033 h 0.094 l 0.099,-0.032 0.063,-0.031 0.094,-0.033 0.067,-0.032 0.112,-0.031 0.063,-0.032 0.113,-0.033 0.066,-0.031 0.095,-0.032 0.063,-0.033 0.129,-0.031 0.032,-0.032 0.13,-0.032 0.049,-0.032 0.112,-0.032 0.05,-0.032 0.111,-0.064 h 0.063 l 0.112,-0.063 h 0.049 l 0.113,-0.065 0.031,-0.031 0.144,-0.065 h 0.035 l 0.126,-0.063 h 0.032 l 0.291,-0.161 0.015,-0.032 0.146,-0.063 v 0 l 0.162,-0.097 v 0 l 0.158,-0.065 v 0 l 0.161,-0.097 v 0 l 0.579,-0.386 h 0.031 l 0.13,-0.097 v 0 l 0.161,-0.128 0.131,-0.064 0.014,-0.032 0.112,-0.064 0.034,-0.032 0.257,-0.192 0.032,-0.033 0.417,-0.321 0.099,-0.097 0.045,-0.031 0.273,-0.227 0.082,-0.064 0.049,-0.063 0.08,-0.065 0.049,-0.063 0.081,-0.064 0.046,-0.032 0.08,-0.064 0.067,-0.064 0.126,-0.161 c 0.597,-0.579 1.145,-1.222 1.625,-1.897 v -0.033 l 0.422,-0.579 v 0 l 0.192,-0.321 v 0 l 0.257,-0.451 v -0.031 l 0.094,-0.129 v -0.032 l 0.081,-0.129 h 0.018 l 0.063,-0.161 v -0.031 l 0.098,-0.129 v -0.032 l 0.063,-0.129 0.018,-0.032 0.081,-0.129 v -0.031 l 0.063,-0.162 v 0 l 0.081,-0.161 v 0 l 0.081,-0.16 v 0 l 0.063,-0.161 v -0.031 l 0.131,-0.29 v -0.033 0 l 0.063,-0.16 v 0 l 0.063,-0.161 v -0.032 l 0.066,-0.16 v 0 l 0.063,-0.162 v -0.031 l 0.049,-0.161 v 0 l 0.049,-0.161 v -0.032 l 0.063,-0.16 v 0 l 0.032,-0.161 0.018,-0.032 0.045,-0.16 v 0 l 0.035,-0.193 h 0.014 l 0.032,-0.161 0.017,-0.032 0.032,-0.161 v 0 l 0.032,-0.193 v 0 l 0.035,-0.161 v 0 l 0.031,-0.193 v 0 l 0.031,-0.192 v 0 l 0.031,-0.16 0.018,-0.033 0.014,-0.16 v -0.033 l 0.032,-0.16 v 0 l 0.018,-0.193 h 0.018 v -0.192 0 l 0.032,-0.193 v 0 -0.193 h 0.014 v -0.192 h 0.018 v -0.161 -0.032 -0.16 l 0.014,-0.033 v -0.16 -0.032 -0.161 -0.192 -50.02 z m -244.991,-7.916 h 244.991 v -10.297 h -96.736 c -2.189,0 -3.958,-1.77 -3.958,-3.957 v -93.537 c 0,-2.188 1.769,-3.959 3.958,-3.959 h 96.736 c 0,-67.635 0,-135.303 0,-202.97 0,-4.118 -1.688,-7.851 -4.422,-10.586 -2.702,-2.702 -6.469,-4.408 -10.588,-4.408 H 145.988 c -4.12,0 -7.882,1.673 -10.602,4.408 -2.72,2.702 -4.408,6.468 -4.408,10.586 V 84.37 H 343.52 c 2.19,0 3.959,1.77 3.959,3.958 0,2.188 -1.769,3.957 -3.959,3.957 H 130.978 v 24.165 h 28.381 c 2.169,0 3.941,1.77 3.941,3.958 v 64.643 c 0,2.188 -1.772,3.957 -3.941,3.957 h -28.381 z m 129.574,33.208 c -1.818,-1.803 -4.327,-2.93 -7.079,-2.93 -2.752,0 -5.261,1.127 -7.061,2.93 -1.818,1.802 -2.931,4.311 -2.931,7.078 0,2.767 1.113,5.276 2.931,7.079 1.8,1.802 4.31,2.929 7.061,2.929 2.769,0 5.26,-1.127 7.079,-2.929 1.804,-1.803 2.931,-4.312 2.931,-7.079 0,-2.767 -1.128,-5.277 -2.931,-7.078 z m -7.079,-10.844 c 4.956,0 9.444,2.027 12.662,5.244 3.25,3.25 5.261,7.723 5.261,12.678 0,4.955 -2.011,9.429 -5.261,12.678 -3.218,3.25 -7.706,5.245 -12.662,5.245 -4.938,0 -9.426,-1.995 -12.662,-5.245 -3.25,-3.249 -5.243,-7.723 -5.243,-12.678 0,-4.955 1.993,-9.428 5.243,-12.678 3.236,-3.217 7.724,-5.244 12.662,-5.244 z m 29.715,-126.198 v 85.623 h 96.74 0.112 37.18 v -85.623 c -44.677,0 -89.353,0 -134.032,0 z M 149.206,35.977 h 211.753 c 6.307,0 12.033,2.574 16.186,6.725 4.153,4.151 6.742,9.878 6.742,16.185 v 185.08 h 9.443 V 40.996 c 0,-4.119 -1.705,-7.884 -4.408,-10.586 -2.736,-2.736 -6.485,-4.408 -10.619,-4.408 h -214.94 c -3.99,0 -7.644,1.544 -10.329,4.118 -1.705,1.609 -3.024,3.605 -3.828,5.857 z m 85.154,34.138 c -2.172,0 -3.958,-1.77 -3.958,-3.957 0,-2.188 1.786,-3.958 3.958,-3.958 h 38.243 c 2.187,0 3.958,1.77 3.958,3.958 0,2.188 -1.771,3.957 -3.958,3.957 z m 61.104,219.446 c -2.172,0 -3.958,-1.77 -3.958,-3.958 0,-2.188 1.786,-3.958 3.958,-3.958 h 49.794 c 2.189,0 3.958,1.77 3.958,3.958 0,2.188 -1.769,3.958 -3.958,3.958 z m 0,16.505 c -2.172,0 -3.958,-1.77 -3.958,-3.957 0,-2.187 1.786,-3.958 3.958,-3.958 h 109.482 c 2.187,0 3.956,1.771 3.956,3.958 0,2.187 -1.77,3.957 -3.956,3.957 z m 0,16.507 c -2.172,0 -3.958,-1.77 -3.958,-3.958 0,-2.188 1.786,-3.957 3.958,-3.957 h 109.482 c 2.187,0 3.956,1.77 3.956,3.957 0,2.188 -1.77,3.958 -3.956,3.958 z m 0,16.507 c -2.172,0 -3.958,-1.77 -3.958,-3.957 0,-2.188 1.786,-3.959 3.958,-3.959 h 109.482 c 2.187,0 3.956,1.771 3.956,3.959 0,2.188 -1.77,3.957 -3.956,3.957 z M 112.991,156.67 c -2.172,0 -3.941,-1.77 -3.941,-3.957 0,-2.187 1.769,-3.957 3.941,-3.957 h 10.086 v -10.072 c 0,-2.188 1.769,-3.957 3.959,-3.957 2.172,0 3.941,1.77 3.941,3.957 v 10.072 h 10.072 c 2.187,0 3.955,1.77 3.955,3.957 0,2.187 -1.769,3.957 -3.955,3.957 h -10.072 v 10.072 c 0,2.188 -1.769,3.957 -3.941,3.957 -2.19,0 -3.959,-1.77 -3.959,-3.957 V 156.67 Z m 84.786,-35.329 c -2.172,0 -3.958,-1.802 -3.958,-3.958 0,-2.188 1.786,-3.957 3.958,-3.957 h 67.119 c 2.172,0 3.959,1.77 3.959,3.957 0,2.156 -1.787,3.958 -3.959,3.958 z m 0,21.43 c -2.172,0 -3.958,-1.771 -3.958,-3.958 0,-2.156 1.786,-3.957 3.958,-3.957 h 98.477 c 2.187,0 3.955,1.801 3.955,3.957 0,2.188 -1.769,3.958 -3.955,3.958 z m 0,21.461 c -2.172,0 -3.958,-1.77 -3.958,-3.958 0,-2.188 1.786,-3.958 3.958,-3.958 h 146.9 c 2.19,0 3.959,1.771 3.959,3.958 0,2.188 -1.769,3.958 -3.959,3.958 z m 0,21.462 c -2.172,0 -3.958,-1.771 -3.958,-3.958 0,-2.187 1.786,-3.958 3.958,-3.958 h 146.9 c 2.19,0 3.959,1.771 3.959,3.958 0,2.187 -1.769,3.958 -3.959,3.958 z m 0,21.462 c -2.172,0 -3.958,-1.77 -3.958,-3.958 0,-2.188 1.786,-3.958 3.958,-3.958 h 146.9 c 2.19,0 3.959,1.77 3.959,3.958 0,2.188 -1.769,3.958 -3.959,3.958 z M 76.405,470.521 c -2.187,0 -3.955,-1.77 -3.955,-3.958 0,-2.187 1.769,-3.957 3.955,-3.957 h 254.309 c 2.173,0 3.94,1.771 3.94,3.957 0,2.188 -1.768,3.958 -3.94,3.958 z m 364.9,7.562 c 2.173,0 3.959,1.771 3.959,3.958 0,2.187 -1.786,3.958 -3.959,3.958 H 216.873 c -2.172,0 -3.958,-1.771 -3.958,-3.958 0,-2.187 1.786,-3.958 3.958,-3.958 z m -242.436,0 c 2.172,0 3.959,1.771 3.959,3.958 0,2.187 -1.787,3.958 -3.959,3.958 h -21.99 c -2.19,0 -3.959,-1.771 -3.959,-3.958 0,-2.187 1.769,-3.958 3.959,-3.958 z m 149.445,-7.562 c -2.173,0 -3.959,-1.77 -3.959,-3.958 0,-2.187 1.786,-3.957 3.959,-3.957 h 22.008 c 2.189,0 3.959,1.771 3.959,3.957 0,2.188 -1.77,3.958 -3.959,3.958 z M 66.736,170.925 c 0,1.513 0.965,3.057 2.221,3.571 2.639,1.32 5.679,-0.707 5.679,-3.571 v -7.884 c 0,-1.512 -0.983,-3.057 -2.222,-3.57 -2.636,-1.32 -5.678,0.707 -5.678,3.57 z m 0,31.63 c 0,1.512 0.965,3.057 2.221,3.572 2.639,1.286 5.679,-0.709 5.679,-3.572 v -7.883 c 0,-1.514 -0.983,-3.057 -2.222,-3.572 -2.636,-1.318 -5.678,0.708 -5.678,3.572 z m 29.701,9.845 c 1.495,0 3.057,-0.997 3.555,-2.252 1.319,-2.606 -0.691,-5.663 -3.555,-5.663 H 88.52 c -1.481,0 -3.039,0.966 -3.538,2.22 -1.319,2.639 0.674,5.695 3.538,5.695 z m -1.66,25.356 c 0,1.48 0.983,3.057 2.239,3.539 2.636,1.32 5.678,-0.676 5.678,-3.539 v -7.915 c 0,-1.48 -0.982,-3.058 -2.221,-3.54 -2.639,-1.318 -5.696,0.676 -5.696,3.54 z m 0,31.63 c 0,1.479 0.983,3.057 2.239,3.539 2.636,1.319 5.678,-0.675 5.678,-3.539 v -7.916 c 0,-1.479 -0.982,-3.057 -2.221,-3.539 -2.639,-1.319 -5.696,0.676 -5.696,3.539 z m 0,31.63 c 0,1.479 0.983,3.024 2.239,3.539 2.636,1.319 5.678,-0.708 5.678,-3.539 V 293.1 c 0,-1.512 -0.982,-3.057 -2.221,-3.572 -2.639,-1.318 -5.696,0.709 -5.696,3.572 z m 0,31.597 c 0,1.512 0.983,3.057 2.239,3.57 2.636,1.32 5.678,-0.707 5.678,-3.57 v -7.885 c 0,-1.512 -0.982,-3.057 -2.221,-3.57 -2.639,-1.319 -5.696,0.707 -5.696,3.57 z m 0,31.629 c 0,1.513 0.983,3.057 2.239,3.572 2.636,1.318 5.678,-0.709 5.678,-3.572 v -7.883 c 0,-1.513 -0.982,-3.057 -2.221,-3.572 -2.639,-1.318 -5.696,0.708 -5.696,3.572 z M 74.636,131.412 c 0,-1.512 -0.983,-3.057 -2.222,-3.572 -2.636,-1.318 -5.678,0.709 -5.678,3.572 v 7.916 c 0,1.479 0.965,3.023 2.221,3.539 2.639,1.319 5.679,-0.676 5.679,-3.539 z m 80.764,49.681 v -56.728 c -18.92,0 -37.826,0 -56.745,0 v 56.728 c 18.92,0 37.825,0 56.745,0 z"
         style="clip-rule:evenodd;fill:#2AA126;fill-opacity:1;fill-rule:evenodd"
         id="path132" />
    </g>
  </g>
  <g
     id="Layer_1" />
</svg>