<svg xmlns="http://www.w3.org/2000/svg" width="94" height="99" viewBox="0 0 94 99">
  <g id="angular-icon" transform="translate(-1321 -606.08)">
    <path id="Path" d="M1367.85,606.08,1321,622.47l7.4,61.03,39.5,21.58,39.7-21.87,7.4-61.03Z" fill="#b3b3b3"/>
    <path id="Path-2" data-name="Path" d="M1411,625.58l-43-14.5v89l36.04-19.71,6.96-54.79Z" fill="#a6120d"/>
    <path id="Path-3" data-name="Path" d="M1327,625.84l6.27,54.79L1368,700.08v-89l-41,14.76Z" fill="#dd1b16"/>
    <path id="Shape" d="M1380,658l-11.81,5.44h-12.45l-5.85,14.43-10.89.2,29.19-64Zm-1.14-2.74-10.59-20.67-8.69,20.31h8.61l10.67.36Z" fill="#f2f2f2"/>
    <path id="Path-4" data-name="Path" d="M1368,614.08l.08,20.46,9.68,20.27h-9.74l-.02,8.48,13.47.02,6.3,14.58,10.23.19Z" fill="#b3b3b3"/>
  </g>
</svg>
