<svg xmlns="http://www.w3.org/2000/svg" width="79.817" height="101.293" viewBox="0 0 79.817 101.293">
  <g id="Group-10" transform="translate(-777.9 -602.08)">
    <g id="binance-coin-bnb-logo">
      <path id="Shape" d="M804.79,630.65,818,617.45l13.21,13.21L838.9,623,818,602.08,797.11,623l7.68,7.68M784,636.08l7.68-7.69,7.69,7.69-7.69,7.68Zm20.79,5.43L818,654.71l13.21-13.21,7.69,7.68h0L818,670.08l-20.89-20.89h0l7.69-7.67m31.84-5.43,7.69-7.68,7.68,7.68-7.68,7.69Z" fill="#f3ba2f"/>
      <path id="Path" d="M825.99,636.08H826l-8-8-5.91,5.91h0l-.68.68-1.4,1.4-.01.01.01.01,7.99,7.99,8-8h-.01" fill="#f3ba2f"/>
    </g>
    <path id="BEP-20" d="M784.45,703.08a11.421,11.421,0,0,0,2.77-.29,5.152,5.152,0,0,0,1.89-.85,4.24,4.24,0,0,0,1.26-1.6,5,5,0,0,0,.51-2.24,4.15,4.15,0,0,0-.84-2.6,4.439,4.439,0,0,0-2.4-1.56,4.26,4.26,0,0,0,1.81-1.57,4,4,0,0,0,.59-2.07,4.22,4.22,0,0,0-.67-2.27,4.05,4.05,0,0,0-1.86-1.61,8,8,0,0,0-3.16-.52H777.9v17.18Zm-.56-10h-3.71v-5.19h3.43a9.8,9.8,0,0,1,2.61.24,2.071,2.071,0,0,1,1.17.89,2.681,2.681,0,0,1,.41,1.5,2.25,2.25,0,0,1-1.74,2.36,8.428,8.428,0,0,1-2.17.2Zm.56,7.93h-4.27v-5.9h4a8.529,8.529,0,0,1,2.51.28,2.69,2.69,0,0,1,1.37,1,2.84,2.84,0,0,1,.49,1.67,3,3,0,0,1-.34,1.45,2.589,2.589,0,0,1-.87,1A3.609,3.609,0,0,1,786,701a9.322,9.322,0,0,1-1.55.08Zm22.42,2v-2H796.32v-5.84h9.51v-2h-9.51v-5.26h10.15v-2H794.05v17.18Zm5.42,0v-7h4.4q3.64,0,5-1.52a5.28,5.28,0,0,0,1.39-3.71,5.219,5.219,0,0,0-.52-2.34,4.05,4.05,0,0,0-1.37-1.66,5.25,5.25,0,0,0-2.12-.81,17,17,0,0,0-2.62-.16H810v17.18Zm4.44-9h-4.44v-6.14h4.39a9.844,9.844,0,0,1,2.12.15,2.571,2.571,0,0,1,1.44,1,3.15,3.15,0,0,1,.54,1.85,3,3,0,0,1-.92,2.31,4.7,4.7,0,0,1-3.13.82Zm14.68,3.85V695.8h-6.48v2.12Zm12.83,5.16v-2h-8.42a6.814,6.814,0,0,1,.89-1.14q.54-.57,2.43-2.16a33.808,33.808,0,0,0,3.26-3,7.86,7.86,0,0,0,1.4-2.09,5.2,5.2,0,0,0,.42-2,4.52,4.52,0,0,0-1.44-3.4,5.47,5.47,0,0,0-3.92-1.37,5.7,5.7,0,0,0-3.9,1.27,5.3,5.3,0,0,0-1.67,3.7h0l2.16.22a3.46,3.46,0,0,1,.93-2.53,3.29,3.29,0,0,1,2.44-.91,3.18,3.18,0,0,1,2.33.86,2.81,2.81,0,0,1,.9,2.11,4.379,4.379,0,0,1-1,2.54,23.664,23.664,0,0,1-3.79,3.64,21.894,21.894,0,0,0-2.76,2.6,7.641,7.641,0,0,0-1.39,2.29,3.589,3.589,0,0,0-.24,1.46h11.35Zm7.87.29a4.76,4.76,0,0,0,3.12-1,6.189,6.189,0,0,0,1.86-2.87,15.916,15.916,0,0,0,.62-4.88,16.775,16.775,0,0,0-.39-4.06,8.472,8.472,0,0,0-1.07-2.56,4.541,4.541,0,0,0-1.72-1.6,5.06,5.06,0,0,0-2.42-.56,4.81,4.81,0,0,0-3.12,1,6.11,6.11,0,0,0-1.86,2.86,15.7,15.7,0,0,0-.63,4.91q0,4.83,1.7,7a4.72,4.72,0,0,0,3.91,1.82Zm0-1.73a2.94,2.94,0,0,1-2.45-1.4c-.66-.94-1-2.81-1-5.63s.37-4.76,1.09-5.8a2.7,2.7,0,0,1,2.32-1.23,2.93,2.93,0,0,1,2.47,1.39q1,1.39,1,5.64c0,2.81-.33,4.69-1,5.62a2.92,2.92,0,0,1-2.43,1.47Z"/>
  </g>
</svg>
