<svg xmlns="http://www.w3.org/2000/svg" width="128.86" height="87.05" viewBox="0 0 128.86 87.05">
  <g id="ethereum" transform="translate(-160.14 -239.08)">
    <path id="Shape" d="M172.55,319.85a.51.51,0,0,1-.52.51H162a5,5,0,0,0,4.72,4.67,4.69,4.69,0,0,0,4.11-2.09.51.51,0,0,1,.64-.2.47.47,0,0,1,.28.36.5.5,0,0,1-.06.34,5.65,5.65,0,0,1-5,2.59,6.17,6.17,0,1,1,5.79-6.18m-1.07-.48a4.72,4.72,0,0,0-9.44,0Zm13.2-5.42a.51.51,0,0,1,.5.49.49.49,0,0,1-.5.5H182v10.4a.51.51,0,0,1-.5.49.5.5,0,0,1-.5-.49v-10.4h-2.57a.49.49,0,0,1-.5-.5.51.51,0,0,1,.5-.49H181v-3.81a.5.5,0,0,1,1,0V314ZM201,319v6.3a.49.49,0,0,1-.49.49.48.48,0,0,1-.5-.49V319c0-2.13-1.22-4.25-3.61-4.25-3.08,0-4.4,2.66-4.22,5.38v5.15a.51.51,0,0,1-.4.5.49.49,0,0,1-.6-.49v-20.7a.5.5,0,0,1,1,0v11.72a4.82,4.82,0,0,1,4.18-2.55c2.93,0,4.61,2.55,4.61,5.24m17.92.87a.52.52,0,0,1-.52.51h-10a5,5,0,0,0,4.72,4.67,4.69,4.69,0,0,0,4.11-2.09.51.51,0,0,1,.64-.2.49.49,0,0,1,.28.36.45.45,0,0,1-.07.34,5.63,5.63,0,0,1-5,2.59,6.17,6.17,0,1,1,5.8-6.18m-1.08-.48a4.72,4.72,0,0,0-9.44,0Zm13.34-5a.49.49,0,0,1-.47.53c-2.93.43-4.25,2.8-4.25,5.56v4.73a.5.5,0,1,1-1,.01V314.46a.51.51,0,0,1,.4-.5.5.5,0,0,1,.6.49v2.2a5.32,5.32,0,0,1,4.18-2.69.5.5,0,0,1,.54.45m16.41,5.44a.52.52,0,0,1-.52.51H237a5,5,0,0,0,4.72,4.67,4.69,4.69,0,0,0,4.11-2.09.51.51,0,0,1,.64-.2.49.49,0,0,1,.28.36.45.45,0,0,1-.07.34,5.63,5.63,0,0,1-5,2.59,6.17,6.17,0,1,1,5.8-6.18m-1.07-.48a4.72,4.72,0,0,0-9.44,0Zm17.2-4.84v10.81a.5.5,0,0,1-.5.49.48.48,0,0,1-.5-.49v-2a4.67,4.67,0,0,1-4.15,2.79c-3,0-4.61-2.55-4.61-5.24v-6.33a.5.5,0,0,1,1,0v6.33c0,2.13,1.21,4.25,3.61,4.25,3.36,0,4.14-3.11,4.14-6.55v-4a.51.51,0,0,1,.65-.48.55.55,0,0,1,.36.5M289,318.94v6.33a.51.51,0,0,1-.5.5.49.49,0,0,1-.5-.5v-6.33c0-2.13-1.21-4.21-3.61-4.21-3,0-4.15,3.18-4.15,5.66v4.88a.51.51,0,0,1-.5.5.49.49,0,0,1-.49-.5v-6.33c0-2.13-1.22-4.21-3.61-4.21-3,0-4.3,2.37-4.19,5.52v5.01a.5.5,0,0,1-1,0v-10.8a.5.5,0,0,1,1,0v1.81a4.79,4.79,0,0,1,4.18-2.52,4.44,4.44,0,0,1,4.25,3.15,4.94,4.94,0,0,1,4.51-3.15c2.93,0,4.61,2.51,4.61,5.2" fill="#3c3c3b"/>
    <g id="Group" opacity="0.6">
      <path id="Path" d="M224.5,259.11l-16.46,7.36,16.46,9.57,16.46-9.57Z" fill="#010101"/>
    </g>
    <g id="Group-2" data-name="Group" opacity="0.45">
      <path id="Path-2" data-name="Path" d="M209.04,266.34l16.96,9.7V239.08Z" fill="#010101"/>
    </g>
    <g id="Group-3" data-name="Group" opacity="0.8">
      <path id="Path-3" data-name="Path" d="M224,239.08v36.96l16.95-9.7Z" fill="#010101"/>
    </g>
    <g id="Group-4" data-name="Group" opacity="0.45">
      <path id="Path-4" data-name="Path" d="M209.04,270.1,226,294.06V280.15Z" fill="#010101"/>
    </g>
    <g id="Group-5" data-name="Group" opacity="0.8">
      <path id="Path-5" data-name="Path" d="M224,280.15v13.91l16.97-23.96Z" fill="#010101"/>
    </g>
  </g>
</svg>
