<svg xmlns="http://www.w3.org/2000/svg" width="91.95" height="105.86" viewBox="0 0 91.95 105.86">
  <g id="ipfs-logo-vector-ice-text" transform="translate(-1202.27 -231.29)">
    <g id="Group">
      <path id="Path" d="M1202.27,310.69l45.97,26.46,45.98-26.46V257.75l-45.98-26.46-45.97,26.47Z" fill="#4a9ea1"/>
      <path id="Shape" d="M1243.5,237.66l-33.34,19.19a7.563,7.563,0,0,1,0,1.78l33.34,19.19a8,8,0,0,1,9.45,0l33.34-19.19a7.563,7.563,0,0,1,0-1.78L1253,237.66a8,8,0,0,1-9.46,0Zm46,26.27-33.37,19.4a7.94,7.94,0,0,1-4.73,8.17v38.17a7.573,7.573,0,0,1,1.54.88l33.34-19.19a7.92,7.92,0,0,1,4.72-8.16V264.82a8.439,8.439,0,0,1-1.54-.89Zm-82.49.21a7.69,7.69,0,0,1-1.55.89v38.38a7.93,7.93,0,0,1,4.73,8.17l33.33,19.19a7.685,7.685,0,0,1,1.55-.89V291.5a8,8,0,0,1-4.73-8.17L1207,264.14Z" fill="#63d3d7"/>
      <g id="Path-2" data-name="Path">
        <path id="Path_215" data-name="Path 215" d="M1248.24,337.15l45.98-26.46V257.75l-45.98,26.47Z" fill="rgba(0,0,0,0.25)"/>
        <path id="Path_216" data-name="Path 216" d="M1248.24,337.15V284.22l-45.97-26.47v52.94Z" fill="rgba(0,0,0,0.04)"/>
        <path id="Path_217" data-name="Path 217" d="M1202.27,257.75l45.97,26.47,45.98-26.47-45.98-26.46Z" fill="rgba(0,0,0,0.13)"/>
      </g>
    </g>
    <g id="Group-2" data-name="Group">
      <path id="Path-3" data-name="Path" d="M1217.25,268.92h-6.07v29.57h6.07Z" fill="#fff"/>
      <path id="Shape-2" data-name="Shape" d="M1227.81,298.49V287.64c1.5.13,3,.13,4.24.13,8.64,0,11.13-4.32,11.13-9.64,0-6.45-4.57-9.21-11.63-9.21h-9.8v29.57Zm3.28-15h-3.28V273.36h3.78c3.66,0,5.73,1.76,5.73,5v.09c0,2.51-.91,5-6.23,5Z" fill="#fff"/>
      <path id="Path-4" data-name="Path" d="M1263.94,268.92h-18.4v29.57h6.07V285.46h11.5v-4.44h-11.55V273.4h11.97Z" fill="#fff"/>
      <path id="Path-5" data-name="Path" d="M1283.78,274.7l1.58-4.11c-2.37-1.71-5.56-2.34-9.59-2.34-5.86,0-10.68,2.76-10.68,8.42,0,5.07,3.7,7.08,7.4,8.29l3.69,1.26c2.54.88,4.61,1.72,4.61,4.48,0,2.52-2.16,3.52-5.44,3.52a18.159,18.159,0,0,1-8.93-2.3l-1.57,4.44c2.65,1.71,6,2.55,10.54,2.55,6.44,0,11.43-2.85,11.43-8.92,0-5.66-4.28-7.46-8.6-8.92l-4-1.34c-1.74-.59-3.07-1.39-3.07-3.65s1.87-3.22,4.65-3.22a15,15,0,0,1,8,1.84Z" fill="#fff"/>
    </g>
  </g>
</svg>
