<svg xmlns="http://www.w3.org/2000/svg" width="92.39" height="96.294" viewBox="0 0 92.39 96.294">
  <g id="Group-9" transform="translate(-644 -607.079)">
    <g id="tron-trx-logo">
      <path id="Shape" d="M724.17,626.36c-3-2.77-7.15-7-10.53-10l-.2-.14a3.8,3.8,0,0,0-1.11-.62h0c-8.15-1.52-46.08-8.61-46.82-8.52a1.32,1.32,0,0,0-.58.22l-.19.15a2.161,2.161,0,0,0-.52.84l-.05.13v.82c4.27,11.89,21.13,50.84,24.45,60,.2.62.58,1.8,1.29,1.86h.16c.38,0,2-2.14,2-2.14s29-35.12,31.89-38.86a9.845,9.845,0,0,0,1-1.48,2.41,2.41,0,0,0-.79-2.26Zm-24.67,4.09,12.36-10.25,7.25,6.68Zm-4.8-.67-21.28-17.44,34.43,6.35Zm1.92,4.57,21.78-3.51-24.9,30Zm-26.09-20.27,22.39,19-3.24,27.78Z" fill="#ff060a"/>
    </g>
    <path id="TRC-721" d="M651.93,703.08V687.93h5.69v-2H644v2h5.66v15.15Zm10.33,0v-7.63h2.63a7.37,7.37,0,0,1,1.27.08,3.531,3.531,0,0,1,1,.46,5.13,5.13,0,0,1,1.15,1.15,25.633,25.633,0,0,1,1.64,2.37h0l2.28,3.57h2.85l-3-4.68a12.315,12.315,0,0,0-1.89-2.28,5.931,5.931,0,0,0-1.37-.86,5.94,5.94,0,0,0,3.66-1.59,4.36,4.36,0,0,0,1.18-3.08A4.84,4.84,0,0,0,673,688a3.8,3.8,0,0,0-1.91-1.64,10.083,10.083,0,0,0-3.49-.46H660v17.18Zm4.88-9.6h-4.88V687.8h5.44a4.149,4.149,0,0,1,2.79.78,2.59,2.59,0,0,1,.89,2,2.83,2.83,0,0,1-.46,1.54,2.6,2.6,0,0,1-1.34,1,7.189,7.189,0,0,1-2.44.32Zm17.56,9.89a7.09,7.09,0,0,0,4.54-1.47,7.59,7.59,0,0,0,2.57-4.27h0l-2.27-.57a5.671,5.671,0,0,1-1.79,3.27,4.93,4.93,0,0,1-3.24,1.1,5.569,5.569,0,0,1-2.92-.81,4.75,4.75,0,0,1-2-2.44,10.418,10.418,0,0,1-.64-3.83,10.283,10.283,0,0,1,.54-3.3,5,5,0,0,1,1.87-2.55,5.56,5.56,0,0,1,3.31-1,4.63,4.63,0,0,1,2.86.86,5.361,5.361,0,0,1,1.73,2.73h0l2.24-.53a6.86,6.86,0,0,0-2.45-3.69,7.08,7.08,0,0,0-4.34-1.31,8.52,8.52,0,0,0-4.16,1,7.09,7.09,0,0,0-2.92,3,10.151,10.151,0,0,0-1,4.68,11.809,11.809,0,0,0,.91,4.61,7.06,7.06,0,0,0,2.65,3.27,8.12,8.12,0,0,0,4.51,1.25Zm15.3-5.45V695.8h-6.48v2.12Zm6.46,5.16a22.431,22.431,0,0,1,.81-4.72,28.741,28.741,0,0,1,2.49-6,23.578,23.578,0,0,1,3.25-4.64h0v-1.64H701.89v2h8.41a23.539,23.539,0,0,0-3,4.49,26,26,0,0,0-2.19,5.54,21.392,21.392,0,0,0-.8,4.9h2.17Zm19.72,0v-2h-8.42a6.811,6.811,0,0,1,.89-1.14c.36-.38,1.17-1.1,2.44-2.16a33.429,33.429,0,0,0,3.25-3,7.86,7.86,0,0,0,1.4-2.09,5.2,5.2,0,0,0,.42-2,4.52,4.52,0,0,0-1.44-3.4,5.47,5.47,0,0,0-3.92-1.37,5.7,5.7,0,0,0-3.9,1.27,5.34,5.34,0,0,0-1.67,3.7h0l2.16.22a3.46,3.46,0,0,1,.93-2.53,3.29,3.29,0,0,1,2.44-.91,3.22,3.22,0,0,1,2.34.86,2.83,2.83,0,0,1,.89,2.11,4.38,4.38,0,0,1-1,2.54,23.657,23.657,0,0,1-3.79,3.64,21.883,21.883,0,0,0-2.76,2.6,7.86,7.86,0,0,0-1.39,2.29,3.589,3.589,0,0,0-.24,1.46h11.35Zm10.21,0V685.83H735a8,8,0,0,1-1.87,2.3,12.728,12.728,0,0,1-3.1,2h0v2a13.2,13.2,0,0,0,2.22-1.09,10.8,10.8,0,0,0,2-1.45h0v13.44Z"/>
  </g>
</svg>
