<svg xmlns="http://www.w3.org/2000/svg" width="99.125" height="99.002" viewBox="0 0 99.125 99.002">
  <g id="filecoin-fil-logo" transform="translate(-1369 -235.078)">
    <path id="Path" d="M1418.5,334.08a49.69,49.69,0,0,1-49.5-49.75c.25-27.22,22.27-49.5,49.75-49.25a49.5,49.5,0,1,1-.25,99" fill="#0090ff" fill-rule="evenodd"/>
    <path id="Path-2" data-name="Path" d="M1422.9,278.25l-1.51,8,14.32,2-1,3.74-14.07-2c-1,3.24-1.51,6.73-2.77,9.72-1.25,3.49-2.51,7-4,10.21a13.52,13.52,0,0,1-10.3,8,10.14,10.14,0,0,1-8-1.49,3.31,3.31,0,0,1-1.51-2.24,3.54,3.54,0,0,1,1.26-2.74,4.54,4.54,0,0,1,2.51.25,10.9,10.9,0,0,1,2,2.74c1.51,2,3.52,2.24,5.53.74a15,15,0,0,0,4.27-7.47c1.51-6,3-11.71,4.27-17.69v-1l-13.32-2,.51-3.73,13.82,2,1.76-7.72-14.33-2.24.5-4,14.83,2c.5-1.49.75-2.74,1.26-4,1.25-4.49,2.51-9,5.53-13s6.53-6.47,11.81-6.22a7.81,7.81,0,0,1,6,2.49c.25.25.75.75.75,1.24a4.15,4.15,0,0,1-.75,3,2.43,2.43,0,0,1-3.27-.5c-.75-.74-1.26-1.49-2-2.24-1.51-2-3.77-2.24-5.53-.5a16,16,0,0,0-3.27,4.74c-1.75,5.23-3,10.71-4.77,16.19l13.82,2-1,3.74-13.32-2" fill="#fff" fill-rule="evenodd"/>
  </g>
</svg>
