<svg xmlns="http://www.w3.org/2000/svg" width="66" height="105.06" viewBox="0 0 66 105.06">
  <g id="Group-7" transform="translate(-415 -599.08)">
    <g id="tezos-1">
      <path id="Path" d="M448,665.08a33,33,0,1,0-33-33,33,33,0,0,0,33,33" fill="#3088f9"/>
      <path id="Path-2" data-name="Path" d="M452.26,656.08c-3.5,0-6.06-.81-7.66-2.47a7.5,7.5,0,0,1-2.38-5.33,3.23,3.23,0,0,1,.43-1.75,2.75,2.75,0,0,1,1.13-1.11,3.72,3.72,0,0,1,1.78-.43,3.33,3.33,0,0,1,1.78.43,2.72,2.72,0,0,1,1.12,1.11,3.59,3.59,0,0,1,.44,1.75,3.279,3.279,0,0,1-.61,2,3,3,0,0,1-1.48,1.06,4.25,4.25,0,0,0,2.3,1.41,11.083,11.083,0,0,0,3.12.43,7,7,0,0,0,3.94-1.15,6.78,6.78,0,0,0,2.6-3.41,14.241,14.241,0,0,0,.82-5.11,13.589,13.589,0,0,0-.91-5.29A6.42,6.42,0,0,0,456,635a7.07,7.07,0,0,0-3.81-1.06,7.441,7.441,0,0,0-3.33,1.1l-2.45,1.15V635l11.05-14.49H442.22v15a5.26,5.26,0,0,0,.82,3.07,2.9,2.9,0,0,0,2.55,1.2,4.23,4.23,0,0,0,2.56-.9,10.19,10.19,0,0,0,2.12-2.13.7.7,0,0,1,.26-.34.56.56,0,0,1,.35-.13,1.27,1.27,0,0,1,.73.3,1.52,1.52,0,0,1,.39,1c0,.18-.08.43-.13.77a6.881,6.881,0,0,1-2.6,3.19,6.68,6.68,0,0,1-3.68,1.11c-3.33,0-5.59-.64-6.89-1.92a7.11,7.11,0,0,1-1.9-5.2V620.49H429v-2.81h7.84v-6.4l-1.78-1.75v-1.45h5.2l1.95,1v8.57h20.23l2,2-12.37,12.24a8.541,8.541,0,0,1,2.33-.56,10,10,0,0,1,4.51,1.28,9.079,9.079,0,0,1,3.89,3.41,12.411,12.411,0,0,1,1.78,4.13,18,18,0,0,1,.44,3.54,14.41,14.41,0,0,1-1.52,6.52,9.55,9.55,0,0,1-4.59,4.52A15.07,15.07,0,0,1,452.26,656.08Z" fill="#fff"/>
    </g>
    <path id="FA2" d="M430.73,704.08v-7.8h8.07v-2h-8.07v-5.32h9.32v-2H428.46v17.18Zm12.8,0,1.89-5.2h7.18l2,5.2h2.59l-7-17.18h-2.45l-6.59,17.18ZM451.9,697h-5.83l1.89-5a22.059,22.059,0,0,0,.93-3.28c.26.92.67,2.11,1.22,3.56h0Zm17.34,7.05v-2h-8.42a6.812,6.812,0,0,1,.89-1.14q.54-.57,2.43-2.16a33.819,33.819,0,0,0,3.26-3,7.86,7.86,0,0,0,1.4-2.09,5.2,5.2,0,0,0,.42-2,4.52,4.52,0,0,0-1.44-3.4,5.47,5.47,0,0,0-3.92-1.37,5.7,5.7,0,0,0-3.9,1.27,5.3,5.3,0,0,0-1.67,3.7h0l2.16.22a3.46,3.46,0,0,1,.93-2.53,3.29,3.29,0,0,1,2.44-.91,3.18,3.18,0,0,1,2.33.86,2.81,2.81,0,0,1,.9,2.11,4.38,4.38,0,0,1-1,2.54,23.661,23.661,0,0,1-3.79,3.64,21.889,21.889,0,0,0-2.76,2.6,7.64,7.64,0,0,0-1.39,2.29,3.59,3.59,0,0,0-.24,1.46h11.35Z"/>
  </g>
</svg>
