<svg xmlns="http://www.w3.org/2000/svg" width="81.001" height="120.003" viewBox="0 0 81.001 120.003">
  <g id="Group-4" transform="translate(-1536 -219.077)">
    <path id="path11369" d="M1604,249.08c17.26,4,17.41,17.21,0,18Z" fill="#ff009e" fill-rule="evenodd"/>
    <path id="path11371" d="M1552,283.17c-6.34,1.22-9.39,6.78-9.08,10.89,0,0-2.86.05-3.17,0a12.14,12.14,0,0,1,7.17-12.66c-3.19-1.69-6.15-1.7-8.67,1.77l-2.25-2.11c2.36-2.7,4.92-5.2,12.5-2.61-2-5.46-5.44-6.18-9.17-6.08l.09-3.29c10,.11,11.44,5.5,12.44,11.36Z" fill="#8c00f1" fill-rule="evenodd"/>
    <path id="path11373" d="M1592.12,251.08c11.61-16,17.76-23.57,13.56-27.06-4.4-3.65-11.47,3.61-27.68,16.33l7.06,5.36Z" fill="#008298" fill-rule="evenodd"/>
    <path id="path11375" d="M1604,249.08c17.26,4,17.41,17.21,0,18Z" fill="#98005e" fill-rule="evenodd"/>
    <path id="path11377" d="M1565,324.63c-.37,5.89,1,12.7-7.29,14.45-6.14-.19-9.39-4.63-8.59-15Z" fill="#580098" fill-rule="evenodd"/>
    <path id="path11379" d="M1564.15,304.89l5.85,12.4-4.26.26,4.26,8.53-24.73-.26,4.25-8.27H1545l7.98-14.47Z" fill="#98005e" fill-rule="evenodd"/>
    <path id="path11381" d="M1600,324.63c-.37,5.89,1,12.7-7.29,14.45-6.14-.19-9.39-4.63-8.59-15Z" fill="#580098" fill-rule="evenodd"/>
    <path id="path11383" d="M1604,326.08h-24l4.27-8.01-4.27-.26,6.93-14.73,12,1.29,4.8,13.18h-3.46Z" fill="#98005e" fill-rule="evenodd"/>
    <path id="path11385" d="M1599.06,280.08l4.86,11.71h-3.78l4.59,9-4.32-.26,4.59,8.51-60.46-.27,4.32-8.24-4.86-.27c7.89-13.34,10.54-17.14,23.48-16.76Z" fill="#988400" fill-rule="evenodd"/>
    <path id="path11387" d="M1603.47,284.08h-36.21l4.23-8.31H1567l6.08-11.69h26.69l4.23,11.69h-4.49Z" fill="#008298" fill-rule="evenodd"/>
    <path id="path11391" d="M1599,326.08h-19l3.38-8.01-3.38-.26,5.49-14.73,9.5,1.29,3.8,13.18h-2.75Z" fill="#ff009e" fill-rule="evenodd"/>
    <path id="path11395" d="M1563,326.08h-19l3.38-8.36-3.38-.27,5.49-15.37,9.5,1.35,3.8,13.75h-2.75Z" fill="#ff009e" fill-rule="evenodd"/>
    <path id="path11397" d="M1593.65,280.08l4.38,11.71h-3.41l4.14,9-3.9-.26,4.14,8.51-54.51-.27,3.89-8.24-4.38-.27c7.11-13.34,11.43-17.16,23.1-16.78Z" fill="#ffe001" fill-rule="evenodd"/>
    <path id="path11399" d="M1597.56,284.08h-30.34l3.54-8.31H1567l5.09-11.69h22.37l3.54,11.69h-3.76Z" fill="#00bedd" fill-rule="evenodd"/>
    <circle id="circle11401" cx="4" cy="4" r="4" transform="translate(1589 251.08)" fill="#fff"/>
    <circle id="circle11403" cx="2" cy="2" r="2" transform="translate(1590 252.08)"/>
    <path id="path11413" d="M1590.66,249.08c3.3-19.22,5.45-28.6.07-29.88-5.64-1.33-8.78,8.16-17.73,26.46l8.83,1.71Z" fill="#00bedd" fill-rule="evenodd"/>
    <path id="path11415" d="M1599.06,280.08l4.86,11.71h-3.78l4.59,9-4.32-.26,4.59,8.51-60.46-.27,4.32-8.24-4.86-.27c7.89-13.34,10.54-17.14,23.48-16.76Z" fill="#988400" fill-rule="evenodd"/>
    <path id="path11417" d="M1603.47,284.08h-36.21l4.23-8.31H1567l6.08-11.69h26.69l4.23,11.69h-4.49Z" fill="#008298" fill-rule="evenodd"/>
    <path id="path11419" d="M1593.65,280.08l4.38,11.71h-3.41l4.14,9-3.9-.26,4.14,8.51-54.51-.27,3.89-8.24-4.38-.27c7.11-13.34,11.43-17.16,23.1-16.78Z" fill="#ffe001" fill-rule="evenodd"/>
    <path id="path11421" d="M1597.56,284.08h-30.34l3.54-8.31H1567l5.09-11.69h22.37l3.54,11.69h-3.76Z" fill="#00bedd" fill-rule="evenodd"/>
    <path id="path11423" d="M1604,248.41l-28.96-6.33-7.23,14.16,4.01.07-4.82,9.77h37V248.41Z" fill="#ffe000" fill-rule="evenodd"/>
    <circle id="circle11425" cx="4" cy="4" r="4" transform="translate(1589 251.08)" fill="#fff"/>
    <circle id="circle11427" cx="2" cy="2" r="2" transform="translate(1590 252.08)"/>
  </g>
</svg>
