<svg xmlns="http://www.w3.org/2000/svg" width="99" height="99" viewBox="0 0 99 99">
  <g id="wax-waxp-logo" transform="translate(-747 -233.08)">
    <circle id="Oval" cx="49.5" cy="49.5" r="49.5" transform="translate(747 233.08)" fill="#f89022"/>
    <path id="Shape" d="M833,292.27h-7.29l-5.17-4.48-5.15,4.47h-6.16l-3-3.63h-10.1l2.57-3.22h5l-3.8-4.71-13.27,16.38h-6.16l3.84-4.76H777.9l-3.47-9.85L771,292.25h-6.51L759,276.9h5l3.67,10.45,3.66-10.41h6.17l3.65,10.39,3.65-10.39h5l-5.51,15.38,1.23-1.51,11.26-13.9H803l9.37,11.59,4.5-3.93L802.6,272.08h7.32ZM825.77,283l-3.44-3,3.43-3h6.94Z" fill="#fff"/>
  </g>
</svg>
