<svg xmlns="http://www.w3.org/2000/svg" width="106.3" height="94.592" viewBox="0 0 106.3 94.592">
  <g id="react-1" transform="translate(-1169.61 -607.684)">
    <circle id="Oval" cx="9.64" cy="9.64" r="9.64" transform="translate(1213.08 645.16)" fill="#00d8ff"/>
    <path id="Path" d="M1222.76,635.16c13,0,25,1.86,34.09,5,10.94,3.77,17.67,9.47,17.67,14.64,0,5.39-7.13,11.45-18.88,15.34-8.88,2.94-20.57,4.48-32.88,4.48-12.62,0-24.56-1.44-33.55-4.51-11.36-3.88-18.21-10-18.21-15.31,0-5.12,6.42-10.79,17.21-14.54,9.12-3.18,21.46-5.08,34.55-5.08Z" fill="none" stroke="#00d8ff" stroke-width="2.78"/>
    <path id="Path-2" data-name="Path" d="M1205.64,645c6.47-11.23,14.1-20.73,21.34-27,8.72-7.6,17-10.57,21.49-8,4.66,2.69,6.36,11.9,3.86,24-1.89,9.16-6.39,20-12.54,30.71-6.29,10.93-13.51,20.55-20.65,26.8-9,7.9-17.77,10.76-22.34,8.12s-6.13-10.95-4-22.17C1194.59,668,1199.11,656.34,1205.64,645Z" fill="none" stroke="#00d8ff" stroke-width="2.78"/>
    <path id="Path-3" data-name="Path" d="M1205.65,664.76c-6.5-11.22-10.92-22.58-12.77-32-2.22-11.36-.65-20,3.82-22.64,4.67-2.7,13.49.43,22.75,8.65,7,6.22,14.19,15.57,20.36,26.23,6.32,10.92,11.07,22,12.91,31.3,2.33,11.79.44,20.8-4.13,23.45s-12.57-.15-21.23-7.61C1220,685.83,1212.21,676.1,1205.65,664.76Z" fill="none" stroke="#00d8ff" stroke-width="2.78"/>
  </g>
</svg>
