<svg xmlns="http://www.w3.org/2000/svg" width="99" height="99" viewBox="0 0 99 99">
  <g id="tezos-1" transform="translate(-318 -233.08)">
    <path id="Path" d="M367.5,332.08a49.5,49.5,0,1,0-49.5-49.5,49.5,49.5,0,0,0,49.5,49.5" fill="#3088f9"/>
    <path id="Path-2" data-name="Path" d="M374.25,318.08c-5.16,0-8.93-1.21-11.29-3.71a11.37,11.37,0,0,1-3.5-8,4.87,4.87,0,0,1,.64-2.63,4.12,4.12,0,0,1,1.65-1.66,5.43,5.43,0,0,1,2.62-.64,4.78,4.78,0,0,1,2.62.64,4.08,4.08,0,0,1,1.66,1.66,5.44,5.44,0,0,1,.64,2.63,5,5,0,0,1-.9,3.06,4.35,4.35,0,0,1-2.17,1.6,6.29,6.29,0,0,0,3.38,2.11,16.158,16.158,0,0,0,4.6.64,9.89,9.89,0,0,0,9.63-6.83,21.771,21.771,0,0,0,1.21-7.68,20.9,20.9,0,0,0-1.34-7.93,9.6,9.6,0,0,0-3.89-4.92,10.27,10.27,0,0,0-5.61-1.59,10.769,10.769,0,0,0-4.91,1.66l-3.59,1.72v-1.79L382,264.7H359.5v22.57a8.09,8.09,0,0,0,1.2,4.61,4.28,4.28,0,0,0,3.77,1.79,6.2,6.2,0,0,0,3.76-1.34,15,15,0,0,0,3.12-3.19,1.3,1.3,0,0,1,.38-.52.88.88,0,0,1,.52-.19,1.84,1.84,0,0,1,1.08.45,2.3,2.3,0,0,1,.58,1.53c0,.26-.13.64-.2,1.15a10.45,10.45,0,0,1-3.82,4.79,9.74,9.74,0,0,1-5.42,1.66c-4.91,0-8.24-1-10.15-2.87a10.84,10.84,0,0,1-2.8-7.81V264.7H340v-4.22h11.55v-9.6l-2.62-2.62v-2.18h7.65l2.86,1.47v12.86l29.78-.06,2.93,2.93-18.22,18.36a12,12,0,0,1,3.44-.83,14.55,14.55,0,0,1,6.63,1.91,13.51,13.51,0,0,1,5.74,5.12,19.15,19.15,0,0,1,2.62,6.2,28.7,28.7,0,0,1,.64,5.31,22.14,22.14,0,0,1-2.23,9.78A14.2,14.2,0,0,1,384,315.9a21.851,21.851,0,0,1-9.75,2.18Z" fill="#fff"/>
  </g>
</svg>
