<svg xmlns="http://www.w3.org/2000/svg" width="99.024" height="91.931" viewBox="0 0 99.024 91.931">
  <g id="cardano" transform="translate(-589.965 -240.124)">
    <path id="Shape" d="M638.29,240.35a2.78,2.78,0,1,1-.84,4.55,2.84,2.84,0,0,1,.84-4.55m-23.21,2.52a2.18,2.18,0,1,1-.26,4.07,2.21,2.21,0,0,1,.26-4.07M662.61,247a2.18,2.18,0,0,1-.4-4.14c1.53-.75,2.93.66,3.16,2.12a2.38,2.38,0,0,1-2.76,2m-42.25,5.82a3.39,3.39,0,1,1-1.709,2.666,3.37,3.37,0,0,1,1.709-2.666m33.45,1.48a3.38,3.38,0,0,1,6.05-.14c1.1,1.92-.25,4.29-2.21,4.95-2.6.48-5.06-2.34-3.84-4.81m-18.32,4.66a4.19,4.19,0,0,1,4-3.95,4.41,4.41,0,0,1,3.44,2.25,4,4,0,0,1-1.85,5.42,5.19,5.19,0,0,1-3,.26,4.32,4.32,0,0,1-2.65-4M601,262.12c2-1.24,4.7,1,3.94,3.21a2.79,2.79,0,0,1-4.39,1.45,2.83,2.83,0,0,1,.45-4.66m74.11,0a2.77,2.77,0,1,1,.3,4.79,2.81,2.81,0,0,1-.3-4.79M645.2,266a6.71,6.71,0,0,1,7.73,2.71,6.81,6.81,0,0,1-2.29,9.51A6.72,6.72,0,1,1,645.2,266m-16.45.33a6.72,6.72,0,1,1-3.12,9.11,6.81,6.81,0,0,1,3.12-9.11M612.29,272a4.19,4.19,0,0,1,4-3.46,4.44,4.44,0,0,1,3.91,3.94,4.17,4.17,0,0,1-3.9,4.07,3.93,3.93,0,0,1-4-4.55m48.63-3a4,4,0,1,1-2.1,3.353,4,4,0,0,1,2.1-3.353m-38.86,10.62a6.74,6.74,0,1,1-4.346,3.689,6.71,6.71,0,0,1,4.346-3.689m31.19,0a6.74,6.74,0,1,1-4.253,3.893,6.72,6.72,0,0,1,4.253-3.893M603.55,283a3.4,3.4,0,0,1,4.23,4.3,3.34,3.34,0,0,1-5.41,1.43,3.42,3.42,0,0,1,1.18-5.73m67.39,3.6a3.83,3.83,0,0,1,3.55-4c1.7.27,3.36,1.65,3.22,3.52a3.36,3.36,0,0,1-4.88,3,4.57,4.57,0,0,1-1.89-2.48m-79.62-2.38a2.18,2.18,0,1,1-.87,3.36,2.24,2.24,0,0,1,.87-3.45Zm94.32,0a2.16,2.16,0,0,1,3.16,1,2.13,2.13,0,0,1-2.1,3c-2.12.2-2.81-3.06-1.06-4m-55.45,9.08a6.78,6.78,0,0,1,8.19,6.35c.25,4.12-3.91,7.77-7.94,6.82a6.73,6.73,0,0,1-.25-13.17m15.58,0a6.74,6.74,0,1,1-4.89,5,6.74,6.74,0,0,1,4.89-5m-30,2.5A4,4,0,0,1,620,301a3.94,3.94,0,0,1-6.68,1.28,4,4,0,0,1,2.45-6.55m45.71.13a4,4,0,1,1-.74,7.07c-2.73-1.55-2.24-6.12.74-7.07m12.78,12.89a2.76,2.76,0,0,1,2.79-3.87,3.37,3.37,0,0,1,2.32,1.43c.14,1.07.35,2.35-.53,3.18a2.75,2.75,0,0,1-4.58-.74M601,305.36a2.78,2.78,0,1,1-.12,4.76,2.81,2.81,0,0,1,.12-4.76m36.89,4.06a3.95,3.95,0,1,1-.74,7c-2.65-1.54-2.21-6.08.74-7m-17.09,4a3.36,3.36,0,1,1,1,6.43c-1.57,0-2.59-1.45-3.09-2.79a3.77,3.77,0,0,1,2.09-3.64m34.61,0a3.38,3.38,0,1,1-1.739,2.721,3.37,3.37,0,0,1,1.739-2.721m6,15a2.39,2.39,0,0,1,1.71-3.53c1.25.26,2.56,1.2,2.3,2.65a2.21,2.21,0,0,1-4,.88m-47.78-1.26c.38-1.15,1.3-2.29,2.65-2a2.2,2.2,0,0,1,.82,4c-1.54,1-3.33-.39-3.47-2m23,1.32a2.73,2.73,0,0,1,4-1.62c1,.41,1.24,1.48,1.48,2.39-.13.47-.25.95-.36,1.42a3.08,3.08,0,0,1-2.33,1.38,2.75,2.75,0,0,1-2.79-3.57" fill="#0239b6"/>
  </g>
</svg>
