<svg xmlns="http://www.w3.org/2000/svg" width="72.534" height="72.515" viewBox="0 0 72.534 72.515">
  <path id="Path_222" data-name="Path 222" d="M110.2,75.794h-1.363a10.834,10.834,0,0,1-10.9-10.747v-26.3A10.85,10.85,0,0,1,108.852,28h26.519a10.85,10.85,0,0,1,10.917,10.747V39.7c7.647,0,12.195,4.071,12.195,12.024a10.811,10.811,0,0,1,10.986,10.747V88.686a10.838,10.838,0,0,1-10.832,10.833H131.862a10.82,10.82,0,0,1-10.747-10.832V87.409C114.9,86.847,110.2,83.338,110.2,76.73c0,0,0-.936,0-.936Zm44.213-24.049V50.468a6.745,6.745,0,0,0-6.779-6.693h-26.6a6.761,6.761,0,0,0-6.846,6.693V76.746c0,4.309,2.947,6.216,6.932,6.608V62.492a10.8,10.8,0,0,1,10.747-10.747h22.549Zm4.224,3.985H131.861a6.756,6.756,0,0,0-6.693,6.779V88.72a6.757,6.757,0,0,0,6.693,6.779h26.756A6.775,6.775,0,0,0,165.4,88.72V62.492a6.745,6.745,0,0,0-6.761-6.762ZM142.217,39.72v-.953a6.761,6.761,0,0,0-6.846-6.693H108.851A6.761,6.761,0,0,0,102,38.766V65.045a6.761,6.761,0,0,0,6.846,6.693h1.363V50.467A10.82,10.82,0,0,1,121.047,39.72h21.171Z" transform="translate(-97.435 -27.504)" fill="#2AA126" stroke="#2AA126" stroke-width="1"/>
</svg>