<?xml version="1.0" encoding="UTF-8" standalone="no"?>
<svg
   version="1.1"
   viewBox="0 0 512 512"
   enable-background="new 0 0 512 512"
   id="svg426"
   sodipodi:docname="cloudcomputing.svg"
   inkscape:version="1.2.1 (9c6d41e4, 2022-07-14)"
   xmlns:inkscape="http://www.inkscape.org/namespaces/inkscape"
   xmlns:sodipodi="http://sodipodi.sourceforge.net/DTD/sodipodi-0.dtd"
   xmlns="http://www.w3.org/2000/svg"
   xmlns:svg="http://www.w3.org/2000/svg">
   <defs
     id="defs430" />
   <sodipodi:namedview
     id="namedview428"
     pagecolor="#505050"
     bordercolor="#eeeeee"
     borderopacity="1"
     inkscape:showpageshadow="0"
     inkscape:pageopacity="0"
     inkscape:pagecheckerboard="0"
     inkscape:deskcolor="#505050"
     showgrid="false"
     inkscape:zoom="0.4609375"
     inkscape:cx="252.74576"
     inkscape:cy="256"
     inkscape:window-width="1280"
     inkscape:window-height="456"
     inkscape:window-x="0"
     inkscape:window-y="25"
     inkscape:window-maximized="0"
     inkscape:current-layer="svg426" />
   <g
     id="g424"
     style="fill:#2AA126"
     transform="matrix(0.77142857,0,0,0.93877551,2.7428571,0.73469388)">
      <g
       id="g422"
       style="fill:#2AA126">
         <g
         id="g420"
         style="fill:#2AA126">
            <path
           d="m 251.9,461.2 c -17.9,0 -32.5,-14.6 -32.5,-32.5 0,-17.9 14.6,-32.5 32.5,-32.5 17.9,0 32.5,14.6 32.5,32.5 0.1,17.9 -14.5,32.5 -32.5,32.5 z m -199,-239 c 0,-14.5 14.8,-26.7 33,-27.3 11,-0.4 19.8,-9.4 19.8,-20.4 0,-0.2 0,-0.4 0,-0.6 0.2,-35.9 35.1,-65.1 77.9,-65.2 8.9,0 16.8,-5.8 19.5,-14.3 7.6,-24.5 33.9,-41.5 63.8,-41.5 35.1,0 64,23.1 65.8,52.5 0.6,10.8 10,18.9 24.2,18.9 32.9,0 59.7,21.9 60.3,49.1 0,13.9 7,20.3 16.8,22.1 15.7,2.8 27.1,14 27.1,26.8 0,15.1 -15.4,27.5 -34.4,27.5 H 87.3 C 68.3,249.7 52.9,237.4 52.9,222.2 Z M 464.3,408.3 H 322.5 c -7,-24 -26,-43 -50.1,-50 v -67.8 h 154.3 c 41.5,0 75.3,-30.6 75.3,-68.3 0,-27.6 -18.3,-52 -45.2,-62.6 C 449.7,120.4 414.4,89.5 370.3,84.2 358.4,42.5 316.4,12 266.8,12 224.6,12 186.5,34.7 169.5,68.6 117.1,74.2 75.1,110.5 66.4,156.7 34.8,164.9 12,191.1 12,222.2 c 0,37.7 33.8,68.3 75.3,68.3 h 144.2 v 67.8 c -24.1,7 -43.1,26 -50.1,50 H 39.6 c -11.3,0 -20.4,9.1 -20.4,20.4 0,11.3 9.2,20.4 20.4,20.4 h 141.8 c 8.9,30.5 37.1,52.9 70.5,52.9 33.4,0 61.6,-22.4 70.5,-52.9 h 141.8 c 11.3,0 20.4,-9.1 20.4,-20.4 0.1,-11.3 -9,-20.4 -20.3,-20.4 z"
           id="path418"
           style="fill:#2AA126" />
         </g>
      </g>
   </g>
</svg>