<?xml version="1.0" encoding="UTF-8" standalone="no"?>
<!-- Generator: Adobe Illustrator 17.1.0, SVG Export Plug-In . SVG Version: 6.00 Build 0)  -->
<svg
   version="1.1"
   id="Capa_1"
   x="0px"
   y="0px"
   viewBox="0 0 511 511"
   style="enable-background:new 0 0 511 511;"
   xml:space="preserve"
   sodipodi:docname="code.svg"
   inkscape:version="1.2.1 (9c6d41e4, 2022-07-14)"
   xmlns:inkscape="http://www.inkscape.org/namespaces/inkscape"
   xmlns:sodipodi="http://sodipodi.sourceforge.net/DTD/sodipodi-0.dtd"
   xmlns="http://www.w3.org/2000/svg"
   xmlns:svg="http://www.w3.org/2000/svg">
  <defs
   id="defs183" />
  <sodipodi:namedview
   id="namedview181"
   pagecolor="#505050"
   bordercolor="#eeeeee"
   borderopacity="1"
   inkscape:showpageshadow="0"
   inkscape:pageopacity="0"
   inkscape:pagecheckerboard="0"
   inkscape:deskcolor="#505050"
   showgrid="false"
   inkscape:zoom="0.46183953"
   inkscape:cx="202.45127"
   inkscape:cy="255.5"
   inkscape:window-width="1280"
   inkscape:window-height="456"
   inkscape:window-x="0"
   inkscape:window-y="25"
   inkscape:window-maximized="0"
   inkscape:current-layer="Capa_1" />
  <g
   id="g148"
   style="fill:#2AA126">
    <path
   d="M455.5,40h-400C24.897,40,0,64.897,0,95.5v320C0,446.103,24.897,471,55.5,471h400c30.603,0,55.5-24.897,55.5-55.5v-320   C511,64.897,486.103,40,455.5,40z M496,415.5c0,22.332-18.168,40.5-40.5,40.5h-400C33.168,456,15,437.832,15,415.5v-320   C15,73.168,33.168,55,55.5,55h400c22.332,0,40.5,18.168,40.5,40.5V415.5z"
   id="path132"
   style="fill:#2AA126" />
    <path
   d="M471.5,120h-432c-4.142,0-7.5,3.357-7.5,7.5s3.358,7.5,7.5,7.5h432c4.142,0,7.5-3.357,7.5-7.5S475.642,120,471.5,120z"
   id="path134"
   style="fill:#2AA126" />
    <path
   d="M55.5,95c1.98,0,3.91-0.8,5.3-2.2c1.4-1.39,2.2-3.32,2.2-5.3c0-1.971-0.8-3.91-2.2-5.3c-1.39-1.4-3.32-2.2-5.3-2.2   s-3.91,0.8-5.3,2.2c-1.4,1.39-2.2,3.329-2.2,5.3c0,1.979,0.8,3.91,2.2,5.3C51.59,94.2,53.52,95,55.5,95z"
   id="path136"
   style="fill:#2AA126" />
    <path
   d="M119.5,95c1.97,0,3.91-0.8,5.3-2.2c1.4-1.39,2.2-3.32,2.2-5.3c0-1.971-0.8-3.91-2.2-5.3c-1.39-1.4-3.33-2.2-5.3-2.2   c-1.98,0-3.91,0.8-5.3,2.2c-1.4,1.39-2.2,3.329-2.2,5.3c0,1.979,0.8,3.91,2.2,5.3C115.59,94.2,117.52,95,119.5,95z"
   id="path138"
   style="fill:#2AA126" />
    <path
   d="M87.5,95c1.98,0,3.91-0.8,5.3-2.2c1.4-1.39,2.2-3.32,2.2-5.3c0-1.971-0.8-3.91-2.2-5.3c-1.39-1.4-3.32-2.2-5.3-2.2   c-1.97,0-3.91,0.8-5.3,2.2c-1.4,1.39-2.2,3.329-2.2,5.3c0,1.979,0.8,3.91,2.2,5.3C83.59,94.2,85.53,95,87.5,95z"
   id="path140"
   style="fill:#2AA126" />
    <path
   d="M188.803,210.196c-2.929-2.928-7.678-2.928-10.606,0l-80,80c-2.929,2.93-2.929,7.678,0,10.607l80,80   c1.464,1.464,3.384,2.196,5.303,2.196s3.839-0.732,5.303-2.196c2.929-2.93,2.929-7.678,0-10.607L114.106,295.5l74.697-74.696   C191.732,217.874,191.732,213.126,188.803,210.196z"
   id="path142"
   style="fill:#2AA126" />
    <path
   d="M332.803,210.196c-2.929-2.928-7.678-2.928-10.606,0c-2.929,2.93-2.929,7.678,0,10.607l74.697,74.696l-74.697,74.696   c-2.929,2.93-2.929,7.678,0,10.607c1.464,1.464,3.384,2.196,5.303,2.196s3.839-0.732,5.303-2.196l80-80   c2.929-2.93,2.929-7.678,0-10.607L332.803,210.196z"
   id="path144"
   style="fill:#2AA126" />
    <path
   d="M290.063,200.451c-3.892-1.412-8.195,0.594-9.611,4.485l-64,176c-1.416,3.894,0.592,8.196,4.485,9.612   c0.846,0.308,1.711,0.453,2.563,0.453c3.064,0,5.941-1.893,7.049-4.938l64-176C295.964,206.17,293.956,201.867,290.063,200.451z"
   id="path146"
   style="fill:#2AA126" />
  </g>
  <g
   id="g150">
</g>
  <g
   id="g152">
</g>
  <g
   id="g154">
</g>
  <g
   id="g156">
</g>
  <g
   id="g158">
</g>
  <g
   id="g160">
</g>
  <g
   id="g162">
</g>
  <g
   id="g164">
</g>
  <g
   id="g166">
</g>
  <g
   id="g168">
</g>
  <g
   id="g170">
</g>
  <g
   id="g172">
</g>
  <g
   id="g174">
</g>
  <g
   id="g176">
</g>
  <g
   id="g178">
</g>
</svg>