<svg xmlns="http://www.w3.org/2000/svg" xmlns:xlink="http://www.w3.org/1999/xlink" version="1.1" width="1000" height="1000" viewBox="0 0 1000 1000" xml:space="preserve">
<desc>Created with Fabric.js 3.5.0</desc>
<defs>
</defs>
<rect x="0" y="0" width="100%" height="100%" fill="#ffffff"/>
<g transform="matrix(3.6746 0 0 3.6746 500.0021 500.0025)" id="735429">
<path style="stroke: none; stroke-width: 1; stroke-dasharray: none; stroke-linecap: butt; stroke-dashoffset: 0; stroke-linejoin: miter; stroke-miterlimit: 4; is-custom-font: none; font-file-url: none; fill: rgb(255,153,85); fill-rule: nonzero; opacity: 1;" vector-effect="non-scaling-stroke" transform=" translate(222.95, -281.7)" d="M -155.6 298 c -1.3 -3.9 -5 -6.8 -9.1 -6.8 h -4.7 V 178.9 c 0 -11.6 -9.3 -20.9 -20.9 -20.9 h -112.1 c -11.6 0 -20.9 9.3 -20.9 20.9 v 181 c 0 11.6 9.3 20.9 20.9 20.9 h 111.9 c 1.3 0 2.3 1.1 2.3 2.3 c 0 1.3 -1.1 2.3 -2.3 2.3 H -235 l 34.5 20 h 77.9 L -155.6 298 z M -246.2 372.1 c -3.1 0 -5.4 -2.3 -5.4 -5.4 c 0 -3.1 2.3 -5.4 5.4 -5.4 c 3.1 0 5.4 2.3 5.4 5.4 C -240.8 369.8 -243 372.1 -246.2 372.1 z M -184.5 291.3 h -20.2 c -5.2 0 -9.6 4.4 -9.6 9.6 c 0 5.2 4.4 9.6 9.6 9.6 h 20.2 v 42 H -308 V 186.1 h 123.5 V 291.3 z M -219.6 240.4 l -24.4 13 l -20.9 -42.8 l -30.6 59.7 h 95.5 L -219.6 240.4 z M -212.1 213.7 c 6 0 10.9 4.9 10.9 10.9 c 0 6 -4.9 10.9 -10.9 10.9 c -6 0 -10.9 -4.9 -10.9 -10.9 C -223 218.6 -218.1 213.7 -212.1 213.7 z M -300.9 274 h 109.5 v 7.4 h -109.5 V 274 z" stroke-linecap="round"/>
</g>
</svg>