<svg xmlns="http://www.w3.org/2000/svg" xmlns:xlink="http://www.w3.org/1999/xlink" version="1.1" width="1000" height="1000" viewBox="0 0 1000 1000" xml:space="preserve">
<desc>Created with Fabric.js 3.5.0</desc>
<defs>
</defs>
<rect x="0" y="0" width="100%" height="100%" fill="#ffffff"/>
<g transform="matrix(1.8568 0 0 1.8568 499.9991 499.9991)" id="475978">
<g style="" vector-effect="non-scaling-stroke">
		<g transform="matrix(1 0 0 1 -53.6 0)" id="Capa_1">
<polygon style="stroke: none; stroke-width: 1; stroke-dasharray: none; stroke-linecap: butt; stroke-dashoffset: 0; stroke-linejoin: miter; stroke-miterlimit: 4; is-custom-font: none; font-file-url: none; fill: rgb(255,153,85); fill-rule: nonzero; opacity: 1;" points="120.4,193.1 -9,227.7 0.4,193.1 -146.5,193.1 -146.5,-193.1 146.5,-193.1 146.5,-24.9 191.2,-69.6 191.2,-241.7 -191.2,-241.7 -191.2,241.7 191.2,241.7 191.2,124.4 "/>
</g>
		<g transform="matrix(1 0 0 1 7.6 157.4)" id="Capa_1">
<polygon style="stroke: none; stroke-width: 1; stroke-dasharray: none; stroke-linecap: butt; stroke-dashoffset: 0; stroke-linejoin: miter; stroke-miterlimit: 4; is-custom-font: none; font-file-url: none; fill: rgb(255,153,85); fill-rule: nonzero; opacity: 1;" points="-17.3,-37.3 -37.5,37.3 37.5,17.5 "/>
</g>
		<g transform="matrix(1 0 0 1 123.35 41.35)" id="Capa_1">
<polygon style="stroke: none; stroke-width: 1; stroke-dasharray: none; stroke-linecap: butt; stroke-dashoffset: 0; stroke-linejoin: miter; stroke-miterlimit: 4; is-custom-font: none; font-file-url: none; fill: rgb(255,153,85); fill-rule: nonzero; opacity: 1;" points="57.35,-121.45 -121.45,57.35 -121.05,57.75 -57.25,121.45 -56.85,121.45 121.45,-57.25 "/>
</g>
		<g transform="matrix(1 0 0 1 -52.65 -127.8)" id="Capa_1">
<path style="stroke: none; stroke-width: 1; stroke-dasharray: none; stroke-linecap: butt; stroke-dashoffset: 0; stroke-linejoin: miter; stroke-miterlimit: 4; is-custom-font: none; font-file-url: none; fill: rgb(255,153,85); fill-rule: nonzero; opacity: 1;" transform=" translate(-192.15, -117)" d="M 292.6 105.3 H 91.7 c -6.2 0 -11.7 5.1 -11.7 11.7 c 0 6.2 5.1 11.7 11.7 11.7 h 200.9 c 6.2 0 11.7 -5.1 11.7 -11.7 C 304.3 110.7 298.8 105.3 292.6 105.3 z" stroke-linecap="round"/>
</g>
		<g transform="matrix(1 0 0 1 -52.65 -56.7)" id="Capa_1">
<path style="stroke: none; stroke-width: 1; stroke-dasharray: none; stroke-linecap: butt; stroke-dashoffset: 0; stroke-linejoin: miter; stroke-miterlimit: 4; is-custom-font: none; font-file-url: none; fill: rgb(255,153,85); fill-rule: nonzero; opacity: 1;" transform=" translate(-192.15, -188.1)" d="M 292.6 176.4 H 91.7 c -6.2 0 -11.7 5.1 -11.7 11.7 c 0 6.2 5.1 11.7 11.7 11.7 h 200.9 c 6.2 0 11.7 -5.1 11.7 -11.7 C 304.3 181.8 298.8 176.4 292.6 176.4 z" stroke-linecap="round"/>
</g>
		<g transform="matrix(1 0 0 1 -52.65 14.4)" id="Capa_1">
<path style="stroke: none; stroke-width: 1; stroke-dasharray: none; stroke-linecap: butt; stroke-dashoffset: 0; stroke-linejoin: miter; stroke-miterlimit: 4; is-custom-font: none; font-file-url: none; fill: rgb(255,153,85); fill-rule: nonzero; opacity: 1;" transform=" translate(-192.15, -259.2)" d="M 304.3 259.2 c 0 -6.2 -5.1 -11.7 -11.7 -11.7 H 91.7 c -6.2 0 -11.7 5.1 -11.7 11.7 c 0 6.2 5.1 11.7 11.7 11.7 h 200.9 C 298.8 270.8 304.3 265.4 304.3 259.2 z" stroke-linecap="round"/>
</g>
</g>
</g>
</svg>