<svg id="development-process" xmlns="http://www.w3.org/2000/svg" width="62.733" height="62.733" viewBox="0 0 62.733 62.733">
  <path id="Path_135" data-name="Path 135" d="M62.72,45.564a1.838,1.838,0,0,0-1.051-1.582l-1.959-.925,1.366-1.687a1.838,1.838,0,0,0,.257-1.891,16.816,16.816,0,0,0-5.414-6.789,1.838,1.838,0,0,0-1.9-.172l-1.942.955-.465-2.117a1.838,1.838,0,0,0-1.319-1.381,16.612,16.612,0,0,0-2.136-.425V1.838A1.838,1.838,0,0,0,46.315,0H1.838A1.838,1.838,0,0,0,0,1.838V39.821a1.838,1.838,0,0,0,1.838,1.838H31.051l1.133,1.4-1.959.925A2.1,2.1,0,0,0,29.161,46.2,16.815,16.815,0,0,0,31.1,54.046a1.838,1.838,0,0,0,1.624.977h.015l2.167-.017-.5,2.108A1.838,1.838,0,0,0,35,58.93,16.731,16.731,0,0,0,42.825,62.7a1.836,1.836,0,0,0,1.785-.672l1.337-1.7,1.337,1.7a1.84,1.84,0,0,0,1.785.672A16.733,16.733,0,0,0,56.9,58.93a1.838,1.838,0,0,0,.589-1.815l-.5-2.108,2.167.017h.015a1.838,1.838,0,0,0,1.624-.977A16.816,16.816,0,0,0,62.733,46.2c0-.213,0-.427-.014-.636ZM44.477,3.676V7.352H3.676V3.676Zm-40.8,7.352h40.8V29.472a16.683,16.683,0,0,0-2.872.5,1.838,1.838,0,0,0-1.319,1.381l-.465,2.117-1.942-.955a1.838,1.838,0,0,0-1.9.172,16.841,16.841,0,0,0-4.67,5.293H3.676ZM58.013,51.339l-3.341-.026h-.014a1.838,1.838,0,0,0-1.789,2.261l.769,3.251a13.064,13.064,0,0,1-4.182,2.018l-2.062-2.63a1.838,1.838,0,0,0-2.892,0l-2.062,2.63a13.064,13.064,0,0,1-4.182-2.018l.769-3.251a1.838,1.838,0,0,0-1.789-2.261h-.014l-3.341.026a13.163,13.163,0,0,1-1.031-4.531l3.02-1.426a1.838,1.838,0,0,0,.643-2.819l-2.1-2.6a13.149,13.149,0,0,1,2.9-3.631l3,1.473a1.838,1.838,0,0,0,2.606-1.255l.717-3.264a13.251,13.251,0,0,1,4.643,0l.717,3.264a1.838,1.838,0,0,0,2.606,1.255l3-1.473a13.144,13.144,0,0,1,2.9,3.631l-2.1,2.6a1.838,1.838,0,0,0,.643,2.819l3.02,1.426A13.152,13.152,0,0,1,58.013,51.339Z" transform="translate(0 0)" fill="#fff"/>
  <path id="Path_136" data-name="Path 136" d="M335.511,331a5.514,5.514,0,1,0,5.514,5.514A5.52,5.52,0,0,0,335.511,331Zm0,7.351a1.838,1.838,0,1,1,1.838-1.838A1.84,1.84,0,0,1,335.511,338.35Z" transform="translate(-289.564 -290.443)" fill="#fff"/>
  <path id="Path_137" data-name="Path 137" d="M80.859,142.038a1.838,1.838,0,0,0-2.6,0l-4.472,4.472a1.838,1.838,0,0,0,0,2.6l4.472,4.472a1.838,1.838,0,1,0,2.6-2.6l-3.173-3.173,3.173-3.173A1.838,1.838,0,0,0,80.859,142.038Z" transform="translate(-64.275 -124.163)" fill="#fff"/>
  <path id="Path_138" data-name="Path 138" d="M253.788,153.581a1.838,1.838,0,0,0,2.6,0l4.472-4.472a1.838,1.838,0,0,0,0-2.6l-4.472-4.472a1.838,1.838,0,0,0-2.6,2.6l3.173,3.173-3.173,3.173A1.838,1.838,0,0,0,253.788,153.581Z" transform="translate(-222.22 -124.162)" fill="#fff"/>
  <path id="Path_139" data-name="Path 139" d="M171.888,120.19a1.838,1.838,0,0,0-2.257,1.288l-3.876,14.181a1.838,1.838,0,0,0,3.546.969l3.876-14.181A1.838,1.838,0,0,0,171.888,120.19Z" transform="translate(-145.381 -105.406)" fill="#fff"/>
</svg>
