<svg xmlns="http://www.w3.org/2000/svg" xmlns:xlink="http://www.w3.org/1999/xlink" version="1.1" width="1000" height="1000" viewBox="0 0 1000 1000" xml:space="preserve">
  <desc>Created with Fabric.js 3.5.0</desc>
  <defs>
</defs>
  <rect x="0" y="0" width="100%" height="100%" fill="#ffffff"/>
  <g transform="matrix(37.8788 0 0 37.8788 500.0001 500.0001)" id="718987">
    <g style="" vector-effect="non-scaling-stroke">
      <g transform="matrix(1 0 0 1 -0.0125 -6)" id="Layer_1">
        <path style="stroke: none; stroke-width: 1; stroke-dasharray: none; stroke-linecap: butt; stroke-dashoffset: 0; stroke-linejoin: miter; stroke-miterlimit: 4; is-custom-font: none; font-file-url: none; fill: #2AA126; fill-rule: nonzero; opacity: 1;" transform=" translate(-11.9875, -6)" d="M 19 12 H 1 c -0.4 0 -0.7 -0.2 -0.9 -0.5 c -0.2 -0.3 -0.2 -0.7 0 -1 L 2.8 6 L 0.1 1.5 C 0 1.2 0 0.8 0.1 0.5 C 0.3 0.2 0.6 0 1 0 h 18 c 0.3 0 0.6 0.1 0.8 0.4 l 4 5 c 0.3 0.4 0.3 0.9 0 1.2 l -4 5 C 19.6 11.9 19.3 12 19 12 z M 2.8 10 h 15.8 l 3.2 -4 l -3.2 -4 H 2.8 l 2.1 3.5 c 0.2 0.3 0.2 0.7 0 1 L 2.8 10 z" stroke-linecap="round"/>
      </g>
      <g transform="matrix(1 0 0 1 -0.5 5)" id="Layer_1">
        <path style="stroke: none; stroke-width: 1; stroke-dasharray: none; stroke-linecap: butt; stroke-dashoffset: 0; stroke-linejoin: miter; stroke-miterlimit: 4; is-custom-font: none; font-file-url: none; fill: #2AA126; fill-rule: nonzero; opacity: 1;" transform=" translate(-11.5, -17)" d="M 13 24 h -3 c -0.6 0 -1 -0.4 -1 -1 V 11 c 0 -0.6 0.4 -1 1 -1 h 3 c 0.6 0 1 0.4 1 1 v 12 C 14 23.6 13.6 24 13 24 z M 11 22 h 1 V 12 h -1 V 22 z" stroke-linecap="round"/>
      </g>
    </g>
  </g>
</svg>