<svg xmlns="http://www.w3.org/2000/svg" width="64.388" height="72.515" viewBox="0 0 64.388 72.515">
  <path id="Path_204" data-name="Path 204" d="M133.075,33.6a1.625,1.625,0,0,0-1.473,1.625v55.26a1.625,1.625,0,0,0,1.625,1.625h22.5a20.312,20.312,0,1,0,21.383-27.479V35.225h0a1.625,1.625,0,0,0-1.625-1.625H133.227c-.051,0-.1,0-.152,0Zm1.778,3.25H173.86V64.506a20.2,20.2,0,0,0-7.212,1.625c-.034-.01-.067-.018-.1-.026H141.354c-.051,0-.1,0-.152,0a1.627,1.627,0,1,0,.153,3.251h20.138a20.313,20.313,0,0,0-6.73,19.5h-19.91Zm6.349,4.876a1.627,1.627,0,1,0,.152,3.251h16.253a1.626,1.626,0,1,0,0-3.251H141.354c-.051,0-.1,0-.152,0Zm0,8.127a1.627,1.627,0,1,0,.152,3.25h26.005a1.625,1.625,0,1,0,0-3.25H141.354c-.051,0-.1,0-.152,0Zm0,8.127a1.627,1.627,0,1,0,.152,3.25h16.253a1.625,1.625,0,1,0,0-3.25H141.354a1.369,1.369,0,0,0-.152,0Zm33.472,9.751A17.066,17.066,0,1,1,157.607,84.8,17.041,17.041,0,0,1,174.673,67.731Zm-.178,4.851h0a1.625,1.625,0,0,0-1.448,1.651V84.8a1.625,1.625,0,0,0,.406,1.067l5.689,6.5h0a1.628,1.628,0,1,0,2.438-2.159L176.3,84.162V74.233a1.626,1.626,0,0,0-1.8-1.651Z" transform="translate(-131.102 -33.098)" fill="#2AA126" stroke="#2AA126" stroke-width="1"/>
</svg>