<svg xmlns="http://www.w3.org/2000/svg" width="73.502" height="71.515" viewBox="0 0 73.502 71.515">
  <g id="noun-filter-4651669" transform="translate(-101.109 -37.837)">
    <path id="Path_177" data-name="Path 177" d="M104.089,51.742h5.39a10.913,10.913,0,0,0,21,0h41.146a2.98,2.98,0,1,0,0-5.959H130.483a10.913,10.913,0,0,0-21,0h-5.39a2.98,2.98,0,1,0,0,5.959ZM119.98,43.8a4.972,4.972,0,1,1-3.51,1.456,4.966,4.966,0,0,1,3.51-1.456Z" fill="#2AA126"/>
    <path id="Path_178" data-name="Path 178" d="M171.634,213.953h-7.376a10.914,10.914,0,0,0-21,0h-39.16a2.98,2.98,0,1,0,0,5.959h39.16a10.914,10.914,0,0,0,21,0h7.376a2.98,2.98,0,1,0,0-5.959ZM153.756,221.9h0a4.972,4.972,0,1,1,3.51-1.456,4.966,4.966,0,0,1-3.51,1.456Z" transform="translate(-0.003 -143.338)" fill="#2AA126"/>
    <path id="Path_179" data-name="Path 179" d="M171.64,382.123H130.494a10.913,10.913,0,0,0-21,0H104.1a2.98,2.98,0,1,0,0,5.959h5.39a10.913,10.913,0,0,0,21,0H171.64a2.98,2.98,0,1,0,0-5.959Zm-51.649,7.946a4.971,4.971,0,1,1,3.51-1.456,4.966,4.966,0,0,1-3.51,1.456Z" transform="translate(-0.009 -286.677)" fill="#2AA126"/>
  </g>
</svg>