<?xml version="1.0" encoding="UTF-8" standalone="no"?>
<svg
   width="64px"
   height="64px"
   viewBox="0 0 64 64"
   id="icons"
   version="1.1"
   sodipodi:docname="ecommerce.svg"
   inkscape:version="1.2.1 (9c6d41e4, 2022-07-14)"
   xmlns:inkscape="http://www.inkscape.org/namespaces/inkscape"
   xmlns:sodipodi="http://sodipodi.sourceforge.net/DTD/sodipodi-0.dtd"
   xmlns="http://www.w3.org/2000/svg"
   xmlns:svg="http://www.w3.org/2000/svg">
  <sodipodi:namedview
     id="namedview141"
     pagecolor="#505050"
     bordercolor="#eeeeee"
     borderopacity="1"
     inkscape:showpageshadow="0"
     inkscape:pageopacity="0"
     inkscape:pagecheckerboard="0"
     inkscape:deskcolor="#505050"
     showgrid="false"
     inkscape:zoom="3.6875"
     inkscape:cx="31.864407"
     inkscape:cy="32"
     inkscape:window-width="1280"
     inkscape:window-height="456"
     inkscape:window-x="0"
     inkscape:window-y="25"
     inkscape:window-maximized="0"
     inkscape:current-layer="icons" />
  <defs
     id="defs134">
    <style
       id="style132">.cls-1{fill:#231f20;}</style>
  </defs>
  <title
     id="title136" />
  <path
     class="cls-1"
     d="M13,38H53a2,2,0,0,0,1.93-1.47l6-22A2,2,0,0,0,59,12H12.75L12,7.65A2,2,0,0,0,10,6H5a2,2,0,0,0,0,4H8.33l4.28,24A7,7,0,0,0,13,48h1.68a7,7,0,1,0,12.64,0H37.68a7,7,0,1,0,12.64,0H56a2,2,0,0,0,0-4H13a3,3,0,0,1,0-6ZM56.38,16,51.47,34H16.67L13.46,16ZM24,51a3,3,0,1,1-3-3A3,3,0,0,1,24,51Zm23,0a3,3,0,1,1-3-3A3,3,0,0,1,47,51Z"
     id="path138"
     style="fill:#2AA126" />
</svg>