<?xml version="1.0" encoding="UTF-8" standalone="no"?>
<svg
   width="64px"
   height="64px"
   viewBox="0 0 64 64"
   aria-hidden="true"
   role="img"
   class="iconify iconify--emojione"
   preserveAspectRatio="xMidYMid meet"
   version="1.1"
   id="svg615"
   sodipodi:docname="enterprise 2.svg"
   inkscape:version="1.2.1 (9c6d41e4, 2022-07-14)"
   xmlns:inkscape="http://www.inkscape.org/namespaces/inkscape"
   xmlns:sodipodi="http://sodipodi.sourceforge.net/DTD/sodipodi-0.dtd"
   xmlns="http://www.w3.org/2000/svg"
   xmlns:svg="http://www.w3.org/2000/svg">
  <defs
     id="defs619" />
  <sodipodi:namedview
     id="namedview617"
     pagecolor="#505050"
     bordercolor="#eeeeee"
     borderopacity="1"
     inkscape:showpageshadow="0"
     inkscape:pageopacity="0"
     inkscape:pagecheckerboard="0"
     inkscape:deskcolor="#505050"
     showgrid="false"
     inkscape:zoom="3.6875"
     inkscape:cx="-12.338983"
     inkscape:cy="17.898305"
     inkscape:window-width="1280"
     inkscape:window-height="456"
     inkscape:window-x="0"
     inkscape:window-y="25"
     inkscape:window-maximized="0"
     inkscape:current-layer="svg615" />
  <path
     fill="#3e4347"
     d="M26 6h20v48H26z"
     id="path499"
     style="fill:#ffb380" />
  <path
     fill="#dae3ea"
     d="M16 2h32v4H16z"
     id="path501"
     style="fill:#ffb380" />
  <path
     fill="#3e4347"
     d="M4 6h10v46H4z"
     id="path503"
     style="fill:#ffb380" />
  <path
     fill="#b2c1c0"
     d="M26 52h28v8H26z"
     id="path505" />
  <g
     fill="#b4d7ee"
     id="g537">
    <path
       d="M30 52h4v8h-4z"
       id="path507" />
    <path
       d="M38 52h4v8h-4z"
       id="path509" />
    <path
       d="M46 52h4v8h-4z"
       id="path511" />
    <path
       d="M46 42h10v4H46z"
       id="path513" />
    <path
       d="M46 32h10v4H46z"
       id="path515" />
    <path
       d="M46 22h10v4H46z"
       id="path517" />
    <path
       d="M46 12h10v4H46z"
       id="path519" />
    <path
       d="M38 42h4v4h-4z"
       id="path521" />
    <path
       d="M38 32h4v4h-4z"
       id="path523" />
    <path
       d="M38 22h4v4h-4z"
       id="path525" />
    <path
       d="M38 12h4v4h-4z"
       id="path527" />
    <path
       d="M30 42h4v4h-4z"
       id="path529" />
    <path
       d="M30 32h4v4h-4z"
       id="path531" />
    <path
       d="M30 22h4v4h-4z"
       id="path533" />
    <path
       d="M30 12h4v4h-4z"
       id="path535" />
  </g>
  <g
     fill="#3e4347"
     id="g549"
     style="fill:#ffb380">
    <path
       d="M26 46h32v6H26z"
       id="path539"
       style="fill:#ffb380" />
    <path
       d="M26 36h32v6H26z"
       id="path541"
       style="fill:#ffb380" />
    <path
       d="M26 26h32v6H26z"
       id="path543"
       style="fill:#ffb380" />
    <path
       d="M26 16h32v6H26z"
       id="path545"
       style="fill:#ffb380" />
    <path
       d="M26 6h32v6H26z"
       id="path547"
       style="fill:#ffb380" />
  </g>
  <g
     fill="#b4d7ee"
     id="g555">
    <path
       d="M14 8h12v44H14z"
       id="path551" />
    <path
       d="M4 52h22v10H4z"
       id="path553" />
  </g>
  <path
     fill="#dae3ea"
     d="M2 50h24v2H2z"
     id="path557" />
  <g
     fill="#d6eef0"
     id="g567"
     style="fill:#ffb380">
    <path
       d="M14 38h12v2H14z"
       id="path559"
       style="fill:#ffb380" />
    <path
       d="M14 28h12v2H14z"
       id="path561"
       style="fill:#ffb380" />
    <path
       d="M14 18h12v2H14z"
       id="path563"
       style="fill:#ffb380" />
    <path
       d="M14 10h12v2H14z"
       id="path565"
       style="fill:#ffb380" />
  </g>
  <path
     fill="#f5f5f5"
     d="M14 6h12v2H14z"
     id="path569"
     style="fill:#ffb380" />
  <path
     fill="#b2c1c0"
     d="M4 52h2v10H4z"
     id="path571"
     style="fill:#ffb380" />
  <g
     fill="#f5f5f5"
     id="g583"
     style="fill:#ffb380">
    <path
       d="M10 52h1.3v10H10z"
       id="path573"
       style="fill:#ffb380" />
    <path
       d="M10 52h12v1.1H10z"
       id="path575"
       style="fill:#ffb380" />
    <path
       d="M10 60.9h12V62H10z"
       id="path577"
       style="fill:#ffb380" />
    <path
       d="M15.3 52h1.3v10h-1.3z"
       id="path579"
       style="fill:#ffb380" />
    <path
       d="M20.7 52H22v10h-1.3z"
       id="path581"
       style="fill:#ffb380" />
  </g>
  <path
     fill="#83bf4f"
     d="M26 58h36v2H26z"
     id="path585" />
  <path
     fill="#dae3ea"
     d="M24 60h38v2H24z"
     id="path587"
     style="fill:#ffb380" />
  <path
     d="M61 57.8c.2-.3.3-.7.3-1.2c0-1.3-1-2.3-2.3-2.3h-.1V54c0-.6-.5-1.2-1.2-1.2c-.3 0-.5.1-.7.3c-.1-.8-.9-1.4-1.7-1.4c-1 0-1.7.8-1.7 1.8v.4c-.3-.2-.7-.4-1.1-.4c-.7 0-1.3.4-1.6 1c-.2-.1-.5-.1-.8-.1c-1.3 0-2.3 1-2.3 2.3c0 .5.2 1 .5 1.4c-.3.3-.5.7-.5 1.2c0 1 .8 1.8 1.7 1.8h9.2c.3.3.8.5 1.2.5c1.1 0 2-.9 2-2c.1-.8-.3-1.4-.9-1.8"
     fill="#83bf4f"
     id="path589" />
  <g
     fill="#699635"
     id="g597">
    <path
       d="M51.7 59.6c0 .6.5-.3 1.2-.3c.6 0 1.2.9 1.2.3c0-.6-.5-1.2-1.2-1.2s-1.2.6-1.2 1.2"
       id="path591" />
    <path
       d="M55.1 57.6c0 .3.3 0 .6 0s.6.3.6 0s-.3-.6-.6-.6s-.6.2-.6.6"
       id="path593" />
    <path
       d="M59.4 59.7c0 .3.3 0 .6 0s.6.3.6 0s-.3-.6-.6-.6c-.3.1-.6.3-.6.6"
       id="path595" />
  </g>
  <g
     fill="#b5f478"
     id="g603">
    <path
       d="M56.9 56c0 .3.3-.1.6-.1s.6.4.6.1c0-.3-.3-.6-.6-.6s-.6.2-.6.6"
       id="path599" />
    <path
       d="M58.9 57.7c0 .3.3-.1.6-.1s.6.4.6.1c0-.3-.3-.6-.6-.6c-.4 0-.6.2-.6.6"
       id="path601" />
  </g>
  <g
     fill="#699635"
     id="g609">
    <path
       d="M49.2 56.6c0 .7.5-.4 1.2-.4s1.2 1 1.2.4s-.5-1.2-1.2-1.2s-1.2.5-1.2 1.2"
       id="path605" />
    <path
       d="M49.1 59.3c0 .3.3 0 .6 0s.6.3.6 0s-.3-.6-.6-.6c-.3.1-.6.3-.6.6"
       id="path607" />
  </g>
  <path
     d="M54.3 54.7c0 .4.3-.2.8-.2c.4 0 .8.7.8.2c0-.4-.3-.8-.8-.8c-.4 0-.8.3-.8.8"
     fill="#b5f478"
     id="path611" />
  <path
     d="M56.5 59.9c0 .4.3-.2.8-.2c.4 0 .8.7.8.2c0-.4-.3-.8-.8-.8s-.8.3-.8.8"
     fill="#699635"
     id="path613" />
</svg>
