<svg xmlns="http://www.w3.org/2000/svg" xmlns:xlink="http://www.w3.org/1999/xlink" version="1.1" width="1000" height="1000" viewBox="0 0 1000 1000" xml:space="preserve">
<desc>Created with Fabric.js 3.5.0</desc>
<defs>
</defs>
<rect x="0" y="0" width="100%" height="100%" fill="#ffffff"/>
<g transform="matrix(1.8641 0 0 1.8641 499.9901 499.9901)" id="747101">
<g style="" vector-effect="non-scaling-stroke">
		<g transform="matrix(1 0 0 1 132.411 -146.3005)" id="Capa_1">
<path style="stroke: none; stroke-width: 1; stroke-dasharray: none; stroke-linecap: butt; stroke-dashoffset: 0; stroke-linejoin: miter; stroke-miterlimit: 4; is-custom-font: none; font-file-url: none; fill: rgb(255,153,85); fill-rule: nonzero; opacity: 1;" transform=" translate(-376.2475, -97.536)" d="M 376.248 161.4 c 35.214 0 63.863 -28.649 63.863 -63.864 c 0 -35.215 -28.649 -63.864 -63.863 -63.864 c -35.215 0 -63.864 28.649 -63.864 63.864 C 312.384 132.75 341.033 161.4 376.248 161.4 z M 376.248 59.671 c 20.878 0 37.863 16.986 37.863 37.864 c 0 20.878 -16.985 37.864 -37.863 37.864 s -37.864 -16.986 -37.864 -37.864 C 338.384 76.657 355.37 59.671 376.248 59.671 z" stroke-linecap="round"/>
</g>
		<g transform="matrix(1 0 0 1 0.0006 0)" id="Capa_1">
<path style="stroke: none; stroke-width: 1; stroke-dasharray: none; stroke-linecap: butt; stroke-dashoffset: 0; stroke-linejoin: miter; stroke-miterlimit: 4; is-custom-font: none; font-file-url: none; fill: rgb(255,153,85); fill-rule: nonzero; opacity: 1;" transform=" translate(-243.837, -243.8365)" d="M 349.443 469.88 c 16.712 0 30.31 -13.596 30.31 -30.308 V 350.34 h 80.867 c 0.002 0 0.004 0 0.006 0 c 7.225 0 14.017 -2.813 19.125 -7.922 c 5.109 -5.109 7.923 -11.901 7.923 -19.126 V 189.878 c -0.004 -14.913 -12.139 -27.045 -27.051 -27.046 L 321.12 162.83 c 0.009 -0.466 0.035 -0.928 0.035 -1.395 c 0 -41.722 -33.943 -75.665 -75.665 -75.665 c -41.723 0 -75.666 33.943 -75.666 75.665 c 0 4.396 0.398 8.699 1.121 12.892 h -60.328 c 31.094 -2.637 55.596 -28.771 55.596 -60.536 c 0 -21.499 -11.231 -40.412 -28.125 -51.218 c 3.385 -4.4 5.317 -9.547 5.317 -15.1 c 0 -16.643 -17.286 -29.68 -39.354 -29.68 c -22.067 0 -39.354 13.037 -39.354 29.68 c 0 6.064 2.304 11.645 6.289 16.295 C 55.104 74.743 44.67 93.067 44.67 113.791 c 0 31.765 24.502 57.899 55.596 60.536 H 37.203 c -14.222 0 -25.832 11.392 -26.186 25.529 L 0.05 324.684 c -0.319 3.631 0.901 7.231 3.364 9.919 c 2.462 2.688 5.94 4.219 9.586 4.219 h 98.228 l 0.001 100.748 c 0 16.711 13.596 30.308 30.309 30.31 H 349.443 C 349.444 469.88 349.443 469.88 349.443 469.88 z M 70.691 114.603 l 63.059 -20.965 c 4.063 5.69 6.463 12.645 6.463 20.153 c 0 19.173 -15.599 34.772 -34.771 34.772 C 86.541 148.563 71.125 133.402 70.691 114.603 z M 351.146 188.831 l 11.349 14.217 l -6.938 42.471 c -1.976 -0.407 -4.021 -0.621 -6.115 -0.621 l -58.62 -0.001 l -0.001 -22.916 c 11.217 -8.42 20.01 -19.886 25.181 -33.15 L 351.146 188.831 z M 205.254 244.897 l -2.511 -21.071 c 12.171 8.366 26.895 13.275 42.747 13.275 c 6.68 0 13.157 -0.879 19.331 -2.512 v 10.308 L 205.254 244.897 z M 245.49 111.77 c 27.386 0 49.665 22.28 49.665 49.665 c 0 27.386 -22.279 49.666 -49.665 49.666 c -27.386 0 -49.666 -22.28 -49.666 -49.666 C 195.824 134.05 218.105 111.77 245.49 111.77 z M 179.07 244.897 l -37.532 -0.001 c -16.71 0 -30.308 13.595 -30.311 30.308 v 37.617 H 27.193 l 9.816 -112.301 c 0 -0.107 0.087 -0.194 0.194 -0.194 h 136.476 c 0.108 0 0.196 0.089 0.196 0.199 L 179.07 244.897 z M 353.752 439.573 c 0 2.375 -1.933 4.308 -4.308 4.308 H 141.539 c -2.377 -0.001 -4.311 -1.934 -4.311 -4.31 l -0.002 -164.363 c 0.001 -2.377 1.935 -4.311 4.311 -4.311 l 74.48 0.001 l 15.697 19.667 l -17.083 101.575 c -0.646 3.843 0.466 7.773 3.029 10.708 l 18.038 20.651 c 2.469 2.826 6.038 4.448 9.791 4.448 c 3.752 0 7.322 -1.622 9.79 -4.447 l 18.038 -20.649 c 2.564 -2.935 3.677 -6.866 3.03 -10.708 l -17.083 -101.577 l 15.699 -19.668 l 74.476 0.001 c 2.377 0 4.311 1.934 4.312 4.31 V 439.573 z M 461.673 323.292 c 0 0.107 0 0.434 -0.308 0.742 c -0.309 0.308 -0.663 0.326 -0.743 0.307 h -80.87 v -8.534 c 2.356 -0.658 4.558 -1.971 6.287 -3.951 l 14.64 -16.76 c 2.563 -2.935 3.675 -6.865 3.029 -10.708 l -13.683 -81.368 l 11.323 -14.188 l 59.272 0 c 0.58 0 1.052 0.473 1.052 1.05 V 323.292 z" stroke-linecap="round"/>
</g>
</g>
</g>
</svg>