<svg xmlns="http://www.w3.org/2000/svg" width="71.514" height="71.515" viewBox="0 0 71.514 71.515">
  <g id="noun-inventory-management-4797092" transform="translate(-105.001 -35)">
    <path id="Path_199" data-name="Path 199" d="M150.975,91.19a2.554,2.554,0,0,0-2.554,2.554v7.662H110.109v-61.3h8.375l1.972,5.917a2.555,2.555,0,0,0,2.423,1.746H135.65a2.554,2.554,0,0,0,2.423-1.746l1.973-5.916h8.375v7.662a2.554,2.554,0,1,0,5.108,0V37.554A2.554,2.554,0,0,0,150.975,35h-43.42A2.554,2.554,0,0,0,105,37.554v66.407a2.554,2.554,0,0,0,2.554,2.554h43.42a2.554,2.554,0,0,0,2.554-2.554V93.745a2.554,2.554,0,0,0-2.554-2.554ZM133.81,42.662h-9.089l-.851-2.554h10.791Z" fill="#2AA126"/>
    <path id="Path_200" data-name="Path 200" d="M167.716,162.608a5.108,5.108,0,1,1-5.108-5.108,5.109,5.109,0,0,1,5.108,5.108" transform="translate(-44.837 -104.621)" fill="#2AA126"/>
    <path id="Path_201" data-name="Path 201" d="M167.716,267.608a5.108,5.108,0,1,1-5.108-5.108,5.109,5.109,0,0,1,5.108,5.108" transform="translate(-44.837 -194.297)" fill="#2AA126"/>
    <path id="Path_202" data-name="Path 202" d="M167.716,372.608a5.108,5.108,0,1,1-5.108-5.108,5.109,5.109,0,0,1,5.108,5.108" transform="translate(-44.837 -283.972)" fill="#2AA126"/>
    <path id="Path_203" data-name="Path 203" d="M354.313,147.866,336.434,140.2a2.542,2.542,0,0,0-2.013,0l-17.879,7.662A2.554,2.554,0,0,0,315,150.213v20.433a2.553,2.553,0,0,0,1.548,2.347l17.879,7.662a2.55,2.55,0,0,0,2.013,0l17.879-7.662a2.552,2.552,0,0,0,1.548-2.347V150.214a2.552,2.552,0,0,0-1.548-2.347Zm-18.884-2.536,11.395,4.884L335.429,155.1l-11.395-4.884ZM320.1,154.087l12.771,5.473v14.877L320.1,168.963Zm17.879,20.348V159.558l12.771-5.473v14.877Z" transform="translate(-179.346 -89.672)" fill="#2AA126"/>
  </g>
</svg>