<svg xmlns="http://www.w3.org/2000/svg" width="52.765" height="71.889" viewBox="0 0 52.765 71.889">
  <path id="noun-medal-3845236" d="M210.005,43.672a26.382,26.382,0,1,0-43.531,20.006V86.741a2.4,2.4,0,0,0,3.54,2.1l13.609-7.425,13.609,7.425a2.362,2.362,0,0,0,1.145.292,2.395,2.395,0,0,0,2.4-2.4V63.677a26.321,26.321,0,0,0,9.233-20.006Zm-47.974,0a21.616,21.616,0,1,1,6.331,15.26,21.589,21.589,0,0,1-6.331-15.26ZM195.982,82.7,184.77,76.588a2.4,2.4,0,0,0-2.295,0L171.264,82.7V66.964h0a26.264,26.264,0,0,0,24.718,0Zm-21.7-34.739-.793,7.37a2.4,2.4,0,0,0,3.353,2.441l6.781-3.032,6.761,3.032h0a2.4,2.4,0,0,0,3.353-2.441l-.774-7.37,4.972-5.5h0a2.395,2.395,0,0,0-1.284-3.95L189.4,36.992l-3.7-6.428a2.488,2.488,0,0,0-4.153,0l-3.691,6.428L170.6,38.515a2.4,2.4,0,0,0-1.284,3.95Zm5.6-6.5a2.394,2.394,0,0,0,1.588-1.152l2.156-3.739,2.156,3.739a2.394,2.394,0,0,0,1.588,1.152l4.218.886-2.9,3.2a2.4,2.4,0,0,0-.606,1.863l.462,4.287L184.6,49.93h0a2.392,2.392,0,0,0-1.959,0L178.708,51.7l.462-4.287h0a2.4,2.4,0,0,0-.606-1.863l-2.893-3.2Z" transform="translate(-157.241 -17.247)" fill="#2AA126"/>
</svg>