<svg xmlns="http://www.w3.org/2000/svg" width="47.59" height="70.729" viewBox="0 0 47.59 70.729">
  <path id="noun-manage-3266144" d="M178.877,0a13.07,13.07,0,1,0,13.067,13.067A13.1,13.1,0,0,0,178.877,0Zm0,4.421a8.649,8.649,0,1,1-8.647,8.647A8.609,8.609,0,0,1,178.877,4.421Zm0,24.218A17.287,17.287,0,0,0,161.6,45.916V60.5a2.21,2.21,0,0,0,2.21,2.215h16.827a15.175,15.175,0,1,0,14.609-22.289,17.255,17.255,0,0,0-16.37-11.789Zm0,4.421a12.779,12.779,0,0,1,11.772,7.684c-.065.015-.125.04-.19.056a14.946,14.946,0,0,0-1.7.522c-.108.04-.217.074-.324.116a15.23,15.23,0,0,0-1.749.82c-.143.079-.278.171-.419.255q-.6.359-1.166.768c-.194.141-.386.281-.574.432a15.35,15.35,0,0,0-1.3,1.161c-.042.043-.092.077-.134.121-.261.27-.5.555-.738.842-.021.025-.044.048-.065.074q-.393.478-.743.984c-.05.071-.1.14-.151.212-.2.305-.389.623-.57.941-.065.113-.137.222-.2.336-.156.292-.3.593-.432.893-.067.147-.136.291-.2.441-.12.288-.222.581-.324.876-.061.175-.131.345-.186.522-.079.26-.138.526-.2.79-.055.223-.119.443-.164.669-.061.3-.1.612-.143.92-.024.176-.056.348-.074.526a15.169,15.169,0,0,0-.082,1.515h0v0c0,.482.031.965.077,1.442.027.283.074.559.116.838.024.157.036.314.065.471H166.021V45.915a12.78,12.78,0,0,1,12.856-12.856ZM194,44.789a10.76,10.76,0,1,1-9.868,15.036h0c-.018-.057-.038-.113-.06-.168a10.772,10.772,0,0,1-.82-4.032c0-.029,0-.057,0-.086s0-.06,0-.091a10.727,10.727,0,0,1,.678-3.6c.042-.117.066-.243.112-.358a10.532,10.532,0,0,1,6.89-6.212c.253-.075.495-.177.755-.233a10.747,10.747,0,0,1,1.774-.233c.18-.009.358-.026.54-.026Zm-.945,3.341a.941.941,0,0,0-.937.945v.6a6.263,6.263,0,0,0-.932.389l-.423-.427h0a.941.941,0,0,0-1.334,0l-1.338,1.339h0a.941.941,0,0,0,0,1.334l.432.427a6.22,6.22,0,0,0-.389.924h-.6a.94.94,0,0,0-.945.941v1.9a.94.94,0,0,0,.945.937h.6a6.263,6.263,0,0,0,.389.932l-.432.419a.941.941,0,0,0,0,1.334l1.338,1.342a.941.941,0,0,0,1.334,0l.432-.432a6.267,6.267,0,0,0,.924.384v.6h0a.94.94,0,0,0,.936.941h1.9a.94.94,0,0,0,.937-.941v-.6a6.263,6.263,0,0,0,.932-.389l.423.432a.94.94,0,0,0,1.334,0l1.339-1.342a.941.941,0,0,0,0-1.334l-.432-.427a6.25,6.25,0,0,0,.384-.924h.6a.941.941,0,0,0,.945-.937V54.6a.941.941,0,0,0-.945-.941h-.6a6.206,6.206,0,0,0-.393-.928l.432-.423a.941.941,0,0,0,0-1.334l-1.339-1.338a.94.94,0,0,0-1.334,0l-.432.427a6.218,6.218,0,0,0-.924-.389v-.6a.94.94,0,0,0-.937-.945Zm.95,3.466a3.948,3.948,0,1,1-2.792,1.155,3.951,3.951,0,0,1,2.792-1.155Z" transform="translate(-161.6)" fill="#2AA126"/>
</svg>