<?xml version="1.0" encoding="UTF-8" standalone="no"?>
<!-- Generator: Adobe Illustrator 19.0.0, SVG Export Plug-In . SVG Version: 6.00 Build 0)  -->

<svg
   version="1.1"
   id="Layer_1"
   x="0px"
   y="0px"
   viewBox="0 0 511.999 511.999"
   style="enable-background:new 0 0 511.999 511.999;"
   xml:space="preserve"
   sodipodi:docname="monitor-computer-svgrepo-com.svg"
   inkscape:version="1.2.1 (9c6d41e4, 2022-07-14)"
   xmlns:inkscape="http://www.inkscape.org/namespaces/inkscape"
   xmlns:sodipodi="http://sodipodi.sourceforge.net/DTD/sodipodi-0.dtd"
   xmlns="http://www.w3.org/2000/svg"
   xmlns:svg="http://www.w3.org/2000/svg"><defs
   id="defs880" /><sodipodi:namedview
   id="namedview878"
   pagecolor="#505050"
   bordercolor="#eeeeee"
   borderopacity="1"
   inkscape:showpageshadow="0"
   inkscape:pageopacity="0"
   inkscape:pagecheckerboard="0"
   inkscape:deskcolor="#505050"
   showgrid="false"
   inkscape:zoom="0.46093841"
   inkscape:cx="202.84706"
   inkscape:cy="255.9995"
   inkscape:window-width="1280"
   inkscape:window-height="456"
   inkscape:window-x="0"
   inkscape:window-y="25"
   inkscape:window-maximized="0"
   inkscape:current-layer="Layer_1" />
<g
   id="g803"
   style="fill:#ff6600">
	<g
   id="g801"
   style="fill:#ff6600">
		<path
   d="M103.802,206.87H67.14c-4.603,0-8.332,3.731-8.332,8.332v107.762c0,4.602,3.729,8.332,8.332,8.332h36.661    c4.603,0,8.332-3.731,8.332-8.332V215.203C112.134,210.601,108.404,206.87,103.802,206.87z M95.469,314.633H75.472v-91.098h19.997    V314.633z"
   id="path799"
   style="fill:#ff6600" />
	</g>
</g>
<g
   id="g809"
   style="fill:#ff6600">
	<g
   id="g807"
   style="fill:#ff6600">
		<path
   d="M444.863,171.32h-36.661c-4.603,0-8.332,3.731-8.332,8.332v73.323c0,4.602,3.729,8.332,8.332,8.332    c4.603,0,8.332-3.731,8.332-8.332v-64.991h19.997v126.648h-19.997v-33.884c0-4.602-3.731-8.332-8.332-8.332    c-4.603,0-8.332,3.731-8.332,8.332v42.216c0,4.602,3.729,8.332,8.332,8.332h36.661c4.603,0,8.332-3.731,8.332-8.332V179.652    C453.195,175.051,449.466,171.32,444.863,171.32z"
   id="path805"
   style="fill:#ff6600" />
	</g>
</g>
<g
   id="g815"
   style="fill:#ff6600">
	<g
   id="g813"
   style="fill:#ff6600">
		<path
   d="M376.65,252.419h-36.661c-4.603,0-8.332,3.731-8.332,8.332v62.213c0,4.602,3.729,8.332,8.332,8.332h36.661    c4.603,0,8.332-3.731,8.332-8.332v-62.213C384.982,256.15,381.252,252.419,376.65,252.419z M348.32,314.633v-45.549h19.997v45.549    H348.32z"
   id="path811"
   style="fill:#ff6600" />
	</g>
</g>
<g
   id="g821"
   style="fill:#ff6600">
	<g
   id="g819"
   style="fill:#ff6600">
		<path
   d="M308.438,192.428h-36.661c-4.603,0-8.332,3.731-8.332,8.332v122.204c0,4.602,3.729,8.332,8.332,8.332h36.661    c4.603,0,8.332-3.731,8.332-8.332V200.76C316.771,196.159,313.041,192.428,308.438,192.428z M300.106,314.633h-19.997v-105.54    h19.997V314.633z"
   id="path817"
   style="fill:#ff6600" />
	</g>
</g>
<g
   id="g827"
   style="fill:#ff6600">
	<g
   id="g825"
   style="fill:#ff6600">
		<path
   d="M240.225,131.326c4.603,0,8.332-3.731,8.332-8.332V107.44c0-4.602-3.729-8.332-8.332-8.332h-36.661    c-4.603,0-8.332,3.731-8.332,8.332v215.524c0,4.602,3.729,8.332,8.332,8.332h36.661c4.603,0,8.332-3.731,8.332-8.332V150.768    c0-4.602-3.729-8.332-8.332-8.332c-4.603,0-8.332,3.731-8.332,8.332v163.865h-19.997v-198.86h19.997v7.221    C231.893,127.595,235.624,131.326,240.225,131.326z"
   id="path823"
   style="fill:#ff6600" />
	</g>
</g>
<g
   id="g833"
   style="fill:#ff6600">
	<g
   id="g831"
   style="fill:#ff6600">
		<path
   d="M172.014,156.878h-36.661c-4.603,0-8.332,3.731-8.332,8.332v157.755c0,4.602,3.729,8.332,8.332,8.332h36.661    c4.603,0,8.332-3.731,8.332-8.332V165.21C180.346,160.608,176.617,156.878,172.014,156.878z M163.682,314.633h-19.997V173.542    h19.997V314.633z"
   id="path829"
   style="fill:#ff6600" />
	</g>
</g>
<g
   id="g839"
   style="fill:#ff6600">
	<g
   id="g837"
   style="fill:#ff6600">
		<path
   d="M471.246,24.766H40.754C18.283,24.766,0,43.049,0,65.52v59.227c0,4.602,3.731,8.332,8.332,8.332    c4.601,0,8.332-3.731,8.332-8.332V65.52c0-13.284,10.807-24.09,24.09-24.09h430.492c13.284,0,24.09,10.807,24.09,24.09v284.411    h-52.21c-4.602,0-8.332,3.731-8.332,8.332s3.731,8.332,8.332,8.332h52.21v15.273c0,13.284-10.807,24.09-24.09,24.09h-155.41    H196.164H40.754c-13.284,0-24.09-10.807-24.09-24.09v-15.273h398.688c4.602,0,8.332-3.731,8.332-8.332s-3.731-8.332-8.332-8.332    H16.664V152.522c0-4.602-3.731-8.332-8.332-8.332c-4.601,0-8.332,3.73-8.332,8.332V381.87c0,22.472,18.283,40.754,40.754,40.754    H183.54l-20.494,47.945h-40.034c-4.602,0-8.332,3.731-8.332,8.332s3.731,8.332,8.332,8.332h265.975    c4.602,0,8.332-3.731,8.332-8.332s-3.731-8.332-8.332-8.332h-40.034l-20.494-47.945h142.786c22.472,0,40.754-18.282,40.754-40.754    V65.52C512,43.049,493.717,24.766,471.246,24.766z M330.83,470.568H181.17l14.238-33.31h121.185L330.83,470.568z"
   id="path835"
   style="fill:#ff6600" />
	</g>
</g>
<g
   id="g845"
   style="fill:#ff6600">
	<g
   id="g843"
   style="fill:#ff6600">
		<path
   d="M262.923,379.678c-1.913-2.905-5.581-4.298-8.951-3.456c-3.517,0.879-6.116,4.048-6.291,7.67    c-0.364,7.534,9.106,11.629,14.329,6.171C264.673,387.281,265.088,382.886,262.923,379.678z"
   id="path841"
   style="fill:#ff6600" />
	</g>
</g>
<g
   id="g847">
</g>
<g
   id="g849">
</g>
<g
   id="g851">
</g>
<g
   id="g853">
</g>
<g
   id="g855">
</g>
<g
   id="g857">
</g>
<g
   id="g859">
</g>
<g
   id="g861">
</g>
<g
   id="g863">
</g>
<g
   id="g865">
</g>
<g
   id="g867">
</g>
<g
   id="g869">
</g>
<g
   id="g871">
</g>
<g
   id="g873">
</g>
<g
   id="g875">
</g>
</svg>
