<svg xmlns="http://www.w3.org/2000/svg" width="44.873" height="70.516" viewBox="0 0 44.873 70.516">
  <g id="Group_9417" data-name="Group 9417" transform="translate(-35.434 -7921)">
    <path id="Path_183" data-name="Path 183" d="M326.475,75.973v4.579h-9.112V75.974Z" transform="translate(-264.046 7851.813)" fill="#2AA126"/>
    <path id="Path_184" data-name="Path 184" d="M333.59,347.27h4.579v4.838H333.59Z" transform="translate(-278.009 7618.375)" fill="#2AA126"/>
    <path id="Path_185" data-name="Path 185" d="M333.59,155.64h4.579v4.815H333.59Z" transform="translate(-278.009 7783.263)" fill="#2AA126"/>
    <path id="Path_186" data-name="Path 186" d="M290.658,200.2H286.7a7.451,7.451,0,0,1-7.532-7.341h4.579a2.861,2.861,0,0,0,2.953,2.763h3.953a3.307,3.307,0,0,0,3.4-3.2,3.093,3.093,0,0,0-.962-2.228,3.474,3.474,0,0,0-2.427-.962h-3.953a7.885,7.885,0,0,1-7.975-7.769,7.623,7.623,0,0,1,2.366-5.525,8.036,8.036,0,0,1,5.609-2.251h3.953a7.451,7.451,0,0,1,7.532,7.341h-4.579a2.861,2.861,0,0,0-2.953-2.763h-3.953a3.474,3.474,0,0,0-2.427.962,3.063,3.063,0,0,0-.962,2.228,3.3,3.3,0,0,0,3.4,3.19h3.953a8.036,8.036,0,0,1,5.609,2.251,7.622,7.622,0,0,1,2.366,5.525,7.905,7.905,0,0,1-7.99,7.777Z" transform="translate(-230.81 7767.736)" fill="#2AA126"/>
    <path id="Path_187" data-name="Path 187" d="M205.62,428.15h40.3v4.579h-40.3Z" transform="translate(-167.896 7548.781)" fill="#2AA126"/>
    <path id="Path_188" data-name="Path 188" d="M229.888,97.859H193.409a4.2,4.2,0,0,1-4.2-4.2V31.541a4.2,4.2,0,0,1,4.2-4.2h36.479a4.2,4.2,0,0,1,4.2,4.2V93.662A4.2,4.2,0,0,1,229.888,97.859Zm-36.1-4.579h35.716V31.923H193.792Z" transform="translate(-153.778 7893.656)" fill="#2AA126"/>
  </g>
</svg>