<svg xmlns="http://www.w3.org/2000/svg" width="73.014" height="73.015" viewBox="0 0 73.014 73.015">
  <g id="Group_9419" data-name="Group 9419" transform="translate(-2353.25 -4168.735)">
    <path id="Path_205" data-name="Path 205" d="M472.21,408.251a5.2,5.2,0,1,0-5.2-5.2A5.2,5.2,0,0,0,472.21,408.251Zm0-8.344a3.028,3.028,0,0,1,3.034,3.034,3.034,3.034,0,1,1-3.034-3.034Z" transform="translate(1937.916 3822.672)" fill="#2AA126" stroke="#2AA126" stroke-width="1.5"/>
    <path id="Path_206" data-name="Path 206" d="M77.657,75.7h44.426a3.492,3.492,0,0,0,3.467-3.467v-.217a5.284,5.284,0,0,0,1.192.433l.867,2.492a1.041,1.041,0,0,0,.975.759h3.575a1.041,1.041,0,0,0,.975-.759L134,72.445a10.276,10.276,0,0,0,2.275-.975l2.384,1.192a.989.989,0,0,0,1.192-.217l2.6-2.6a1.015,1.015,0,0,0,.217-1.192l-1.192-2.384a10.3,10.3,0,0,0,.975-2.275l2.492-.867a1.041,1.041,0,0,0,.759-.975V58.575a1.041,1.041,0,0,0-.759-.975l-2.492-.867a10.277,10.277,0,0,0-.975-2.275l1.192-2.384a.989.989,0,0,0-.217-1.192l-2.6-2.6a1.015,1.015,0,0,0-1.192-.217l-2.384,1.083A20.56,20.56,0,0,0,134,48.172l-.867-2.492a1.041,1.041,0,0,0-.975-.759h-3.576a1.041,1.041,0,0,0-.975.759l-.867,2.492c-.433.108-.867.325-1.192.434V20.434a1.056,1.056,0,0,0-.433-.975L109.948,4.506a1.171,1.171,0,0,0-.759-.325H77.658a3.492,3.492,0,0,0-3.467,3.467V72.336A3.4,3.4,0,0,0,77.658,75.7Zm50.061-25.572a1.146,1.146,0,0,0,.759-.65l.759-2.275h2.059l.759,2.275a.93.93,0,0,0,.759.65,9.192,9.192,0,0,1,2.817,1.192.984.984,0,0,0,1.084,0l2.167-1.084,1.517,1.517-1.084,2.167a1.847,1.847,0,0,0,0,1.084,12.944,12.944,0,0,1,1.192,2.817,1.146,1.146,0,0,0,.65.759l2.275.759v2.059l-2.167.759a.93.93,0,0,0-.65.759,9.192,9.192,0,0,1-1.192,2.817.98.98,0,0,0,0,1.084l1.084,2.167-1.517,1.409L136.819,69.3a1.494,1.494,0,0,0-.975,0,12.943,12.943,0,0,1-2.817,1.192,1.146,1.146,0,0,0-.759.65l-.759,2.275h-2.059l-.759-2.275a.93.93,0,0,0-.759-.65,9.192,9.192,0,0,1-2.817-1.192.813.813,0,0,0-.975,0l-2.167,1.084-1.733-1.409,1.084-2.167a1.847,1.847,0,0,0,0-1.084,11.034,11.034,0,0,1-1.192-2.817,1.146,1.146,0,0,0-.65-.759l-2.275-.759V59.334l2.275-.759a.93.93,0,0,0,.65-.759A9.193,9.193,0,0,1,121.325,55a.984.984,0,0,0,0-1.084l-1.084-2.167,1.517-1.517,2.167,1.084a1.847,1.847,0,0,0,1.084,0,12.106,12.106,0,0,1,2.709-1.192ZM110.272,7.865l11.486,11.486H110.272ZM76.357,7.648a1.252,1.252,0,0,1,1.3-1.3h30.449V20.434a1.024,1.024,0,0,0,1.084,1.084h14.087v27.09l-1.3-.65a.989.989,0,0,0-1.192.217l-2.6,2.6a1.015,1.015,0,0,0-.217,1.192l1.192,2.384a20.558,20.558,0,0,0-.975,2.275l-2.492.867a1.041,1.041,0,0,0-.759.975v3.684a1.041,1.041,0,0,0,.759.975l2.492.867a10.274,10.274,0,0,0,.975,2.275l-1.192,2.384a.989.989,0,0,0,.217,1.192l2.6,2.6a1.015,1.015,0,0,0,1.192.217l1.3-.65v.217a1.318,1.318,0,0,1-1.3,1.3H77.549a1.318,1.318,0,0,1-1.3-1.3V7.649Z" transform="translate(2279.809 4165.304)" fill="#2AA126" stroke="#2AA126" stroke-width="1.5"/>
    <path id="Path_207" data-name="Path 207" d="M129.594,126.7h19.83a1.084,1.084,0,0,0,0-2.167h-19.83a1.083,1.083,0,1,0,0,2.167Z" transform="translate(2232.531 4060.556)" fill="#2AA126" stroke="#2AA126" stroke-width="1.5"/>
    <path id="Path_208" data-name="Path 208" d="M129.594,185.209h35a1.084,1.084,0,0,0,0-2.167h-35a1.084,1.084,0,0,0,0,2.167Z" transform="translate(2232.531 4009.631)" fill="#2AA126" stroke="#2AA126" stroke-width="1.5"/>
    <path id="Path_209" data-name="Path 209" d="M129.594,243.719h35a1.084,1.084,0,0,0,0-2.167h-35a1.084,1.084,0,0,0,0,2.167Z" transform="translate(2232.531 3958.706)" fill="#2AA126" stroke="#2AA126" stroke-width="1.5"/>
    <path id="Path_210" data-name="Path 210" d="M129.594,69.031h19.83a1.084,1.084,0,0,0,0-2.167h-19.83a1.083,1.083,0,1,0,0,2.167Z" transform="translate(2232.531 4110.748)" fill="#2AA126" stroke="#2AA126" stroke-width="1.5"/>
    <path id="Path_211" data-name="Path 211" d="M128.261,434.961a1.048,1.048,0,0,0,1.517,0l7.693-7.693a1.073,1.073,0,0,0-1.517-1.517l-6.935,6.935L125.336,429a1.073,1.073,0,1,0-1.517,1.517Z" transform="translate(2236.898 3798.67)" fill="#2AA126" stroke="#2AA126" stroke-width="1.5"/>
    <path id="Path_212" data-name="Path 212" d="M274.485,423.76H263.324a1.084,1.084,0,0,0,0,2.167h11.161a1.024,1.024,0,0,0,1.084-1.084A1.086,1.086,0,0,0,274.485,423.76Z" transform="translate(2116.138 3800.119)" fill="#2AA126" stroke="#2AA126" stroke-width="1.5"/>
    <path id="Path_213" data-name="Path 213" d="M274.485,484.78H263.324a1.084,1.084,0,0,0,0,2.167h11.161a1.024,1.024,0,0,0,1.084-1.084A1.086,1.086,0,0,0,274.485,484.78Z" transform="translate(2116.138 3747.01)" fill="#2AA126" stroke="#2AA126" stroke-width="1.5"/>
    <path id="Path_214" data-name="Path 214" d="M130.768,312.941a1.048,1.048,0,0,0,1.517,0l7.693-7.693a1.073,1.073,0,0,0-1.517-1.517l-6.935,6.935-3.684-3.684a1.073,1.073,0,1,0-1.517,1.517Z" transform="translate(2234.717 3904.871)" fill="#2AA126" stroke="#2AA126" stroke-width="1.5"/>
    <path id="Path_215" data-name="Path 215" d="M265.834,301.73a1.084,1.084,0,0,0,0,2.167H283.5a1.084,1.084,0,0,0,0-2.167Z" transform="translate(2113.954 3906.329)" fill="#2AA126" stroke="#2AA126" stroke-width="1.5"/>
    <path id="Path_216" data-name="Path 216" d="M277,362.75H265.834a1.084,1.084,0,0,0,0,2.167H277a1.024,1.024,0,0,0,1.084-1.084A1.086,1.086,0,0,0,277,362.75Z" transform="translate(2113.954 3853.22)" fill="#2AA126" stroke="#2AA126" stroke-width="1.5"/>
  </g>
</svg>