<svg xmlns="http://www.w3.org/2000/svg" xmlns:xlink="http://www.w3.org/1999/xlink" version="1.1" width="1000" height="1000" viewBox="0 0 1000 1000" xml:space="preserve">
  <desc>Created with Fabric.js 3.5.0</desc>
  <defs>
</defs>
  <rect x="0" y="0" width="100%" height="100%" fill="#ffffff"/>
  <g transform="matrix(1.7756 0 0 1.7756 500.0081 500.0081)" id="212861">
    <g style="" vector-effect="non-scaling-stroke">
      <g transform="matrix(1 0 0 1 -0.0015 -0.001)" id="Layer_1">
        <path style="stroke: none; stroke-width: 1; stroke-dasharray: none; stroke-linecap: butt; stroke-dashoffset: 0; stroke-linejoin: miter; stroke-miterlimit: 4; is-custom-font: none; font-file-url: none; fill: #2AA126; fill-rule: nonzero; opacity: 1;" transform=" translate(-255.9985, -255.999)" d="M 470.929 21.067 H 41.071 C 18.424 21.067 0 39.492 0 62.138 v 275.364 c 0 22.647 18.424 41.071 41.071 41.071 h 122.36 v 43.411 h -20.004 c -31.212 0 -56.605 25.393 -56.605 56.605 v 2.128 c 0 5.641 4.574 10.214 10.214 10.214 h 317.925 c 5.641 0 10.214 -4.574 10.214 -10.214 v -2.128 c 0 -31.212 -25.393 -56.605 -56.605 -56.605 h -20.004 v -43.411 h 122.36 c 22.647 0 41.071 -18.424 41.071 -41.071 V 62.138 C 512 39.492 493.576 21.067 470.929 21.067 z M 368.571 442.414 c 17.171 0 31.584 12.021 35.267 28.09 H 108.162 c 3.682 -16.069 18.096 -28.09 35.265 -28.09 H 368.571 z M 183.86 421.985 v -43.411 H 328.14 v 43.411 H 183.86 z M 491.572 337.503 h -0.001 c 0 11.381 -9.259 20.642 -20.642 20.642 H 41.071 c -11.383 0 -20.642 -9.261 -20.642 -20.642 V 62.138 c 0 -11.381 9.259 -20.642 20.642 -20.642 H 470.93 c 11.381 0 20.642 9.261 20.642 20.642 V 337.503 z" stroke-linecap="round"/>
      </g>
      <g transform="matrix(1 0 0 1 0 -56.1795)" id="Layer_1">
        <path style="stroke: none; stroke-width: 1; stroke-dasharray: none; stroke-linecap: butt; stroke-dashoffset: 0; stroke-linejoin: miter; stroke-miterlimit: 4; is-custom-font: none; font-file-url: none; fill: #2AA126; fill-rule: nonzero; opacity: 1;" transform=" translate(-256, -199.8205)" d="M 453.905 72.14 H 58.095 c -5.641 0 -10.214 4.574 -10.214 10.214 v 234.933 c 0 5.641 4.574 10.214 10.214 10.214 h 395.81 c 5.641 0 10.214 -4.574 10.214 -10.214 V 82.354 C 464.12 76.713 459.546 72.14 453.905 72.14 z M 443.691 307.072 H 68.309 V 92.569 h 375.382 V 307.072 z" stroke-linecap="round"/>
      </g>
      <g transform="matrix(1 0 0 1 -99.273 -56.179)" id="Layer_1">
        <path style="stroke: none; stroke-width: 1; stroke-dasharray: none; stroke-linecap: butt; stroke-dashoffset: 0; stroke-linejoin: miter; stroke-miterlimit: 4; is-custom-font: none; font-file-url: none; fill: #2AA126; fill-rule: nonzero; opacity: 1;" transform=" translate(-156.727, -199.821)" d="M 146.514 268.766 v 3.833 c 0 5.641 4.573 10.214 10.214 10.214 c 5.641 0 10.214 -4.574 10.214 -10.214 v -5.051 c 17.763 -4.44 30.963 -20.529 30.963 -39.647 v -0.618 c 0 -19.12 -13.2 -35.208 -30.963 -39.647 v -42.711 c 5.82 0.066 10.534 4.815 10.534 10.65 v 2.846 c 0 5.641 4.574 10.214 10.214 10.214 s 10.214 -4.574 10.214 -10.214 v -2.846 c 0 -17.14 -13.944 -31.085 -31.085 -31.085 h -0.213 c -1.135 -4.402 -5.121 -7.661 -9.88 -7.661 c -5.18 0 -9.448 3.86 -10.114 8.859 c -17.814 4.404 -31.063 20.516 -31.063 39.67 v 0.618 c 0 19.12 13.2 35.208 30.963 39.647 v 42.711 c -5.82 -0.066 -10.534 -4.815 -10.534 -10.65 v -0.211 c 0 -5.641 -4.574 -10.214 -10.214 -10.214 s -10.214 4.573 -10.214 10.214 v 0.211 C 115.551 254.782 129.43 268.699 146.514 268.766 z M 166.943 209.417 c 6.274 3.493 10.534 10.188 10.534 17.865 v 0.618 c 0 7.677 -4.259 14.372 -10.534 17.865 V 209.417 z M 135.98 165.975 v -0.618 c 0 -7.677 4.259 -14.372 10.534 -17.865 v 36.348 C 140.24 180.347 135.98 173.652 135.98 165.975 z" stroke-linecap="round"/>
      </g>
      <g transform="matrix(1 0 0 1 104.6019 -37.5699)" id="Layer_1">
        <path style="stroke: none; stroke-width: 1; stroke-dasharray: none; stroke-linecap: butt; stroke-dashoffset: 0; stroke-linejoin: miter; stroke-miterlimit: 4; is-custom-font: none; font-file-url: none; fill: #2AA126; fill-rule: nonzero; opacity: 1;" transform=" translate(-360.6018, -218.4301)" d="M 308.437 255.496 c 0.562 3.82 3.23 6.997 6.896 8.211 c 3.666 1.214 7.703 0.257 10.433 -2.474 l 17.151 -17.153 l 37.017 37.017 c 1.994 1.994 4.608 2.992 7.223 2.992 s 5.229 -0.997 7.223 -2.992 l 28.89 -28.89 c 3.99 -3.99 3.99 -10.456 0 -14.446 l -37.016 -37.016 l 17.151 -17.151 c 2.731 -2.731 3.687 -6.768 2.474 -10.434 c -1.214 -3.664 -4.39 -6.333 -8.211 -6.895 l -91.026 -13.386 c -3.197 -0.467 -6.426 0.599 -8.709 2.883 c -2.284 2.284 -3.353 5.513 -2.883 8.709 L 308.437 255.496 z M 374.589 183.519 l -10.003 10.003 c -3.99 3.99 -3.99 10.456 0 14.446 l 37.016 37.016 l -14.445 14.445 l -37.017 -37.017 c -1.994 -1.994 -4.608 -2.992 -7.223 -2.992 c -2.615 0 -5.229 0.997 -7.223 2.992 l -10.003 10.004 l -8.431 -57.326 L 374.589 183.519 z" stroke-linecap="round"/>
      </g>
      <g transform="matrix(1 0 0 1 -7.022 -111.2987)" id="Layer_1">
        <path style="stroke: none; stroke-width: 1; stroke-dasharray: none; stroke-linecap: butt; stroke-dashoffset: 0; stroke-linejoin: miter; stroke-miterlimit: 4; is-custom-font: none; font-file-url: none; fill: #2AA126; fill-rule: nonzero; opacity: 1;" transform=" translate(-248.978, -144.7014)" d="M 253.246 163.415 c 1.994 1.994 4.608 2.992 7.223 2.992 c 2.615 0 5.229 -0.997 7.223 -2.992 c 3.99 -3.99 3.99 -10.456 0 -14.446 l -22.983 -22.983 c -3.989 -3.987 -10.456 -3.987 -14.445 0 c -3.99 3.99 -3.99 10.456 0 14.446 L 253.246 163.415 z" stroke-linecap="round"/>
      </g>
      <g transform="matrix(1 0 0 1 -11.4915 -64.057)" id="Layer_1">
        <path style="stroke: none; stroke-width: 1; stroke-dasharray: none; stroke-linecap: butt; stroke-dashoffset: 0; stroke-linejoin: miter; stroke-miterlimit: 4; is-custom-font: none; font-file-url: none; fill: #2AA126; fill-rule: nonzero; opacity: 1;" transform=" translate(-244.5085, -191.943)" d="M 229.825 202.157 h 29.367 c 5.641 0 10.214 -4.574 10.214 -10.214 s -4.574 -10.214 -10.214 -10.214 h -29.367 c -5.641 0 -10.214 4.574 -10.214 10.214 S 224.185 202.157 229.825 202.157 z" stroke-linecap="round"/>
      </g>
      <g transform="matrix(1 0 0 1 -8.6185 -15.857)" id="Layer_1">
        <path style="stroke: none; stroke-width: 1; stroke-dasharray: none; stroke-linecap: butt; stroke-dashoffset: 0; stroke-linejoin: miter; stroke-miterlimit: 4; is-custom-font: none; font-file-url: none; fill: #2AA126; fill-rule: nonzero; opacity: 1;" transform=" translate(-247.3815, -240.143)" d="M 251.969 221.109 l -23.621 23.621 c -3.99 3.99 -3.99 10.456 0 14.446 c 1.994 1.994 4.608 2.992 7.223 2.992 c 2.615 0 5.229 -0.997 7.223 -2.992 l 23.621 -23.621 c 3.99 -3.99 3.99 -10.456 0 -14.446 C 262.426 217.121 255.958 217.121 251.969 221.109 z" stroke-linecap="round"/>
      </g>
    </g>
  </g>
</svg>