<svg xmlns="http://www.w3.org/2000/svg" xmlns:xlink="http://www.w3.org/1999/xlink" version="1.1" width="1000" height="1000" viewBox="0 0 1000 1000" xml:space="preserve">
  <desc>Created with Fabric.js 3.5.0</desc>
  <defs>
</defs>
  <rect x="0" y="0" width="100%" height="100%" fill="#ffffff"/>
  <g transform="matrix(1.9323 0 0 1.9323 499.9943 499.9943)" id="425434">
    <g style="" vector-effect="non-scaling-stroke">
      <g transform="matrix(1 0 0 1 128.6725 63.499)">
        <path style="stroke: none; stroke-width: 1; stroke-dasharray: none; stroke-linecap: butt; stroke-dashoffset: 0; stroke-linejoin: miter; stroke-miterlimit: 4; is-custom-font: none; font-file-url: none; fill: #2AA126; fill-rule: nonzero; opacity: 1;" transform=" translate(-363.905, -298.7315)" d="m 363.905 127.232 c -78.652 0 -106.56 51.124 -106.56 94.904 v 153.191 c 0 43.78 27.908 94.904 106.56 94.904 s 106.56 -51.124 106.56 -94.904 v -153.19 c 0 -43.781 -27.908 -94.905 -106.56 -94.905 z m 91.56 248.096 c 0 9.209 -1.77 32.705 -18.162 51.934 c -15.822 18.56 -40.517 27.971 -73.398 27.971 s -57.576 -9.411 -73.398 -27.971 c -16.393 -19.229 -18.162 -42.725 -18.162 -51.934 v -153.191 c 0 -9.209 1.77 -32.705 18.162 -51.934 c 15.822 -18.56 40.517 -27.971 73.398 -27.971 s 57.576 9.411 73.398 27.971 c 16.393 19.229 18.162 42.725 18.162 51.934 v 153.191 z" stroke-linecap="round"/>
      </g>
      <g transform="matrix(1 0 0 1 -49.53 -63.5005)">
        <path style="stroke: none; stroke-width: 1; stroke-dasharray: none; stroke-linecap: butt; stroke-dashoffset: 0; stroke-linejoin: miter; stroke-miterlimit: 4; is-custom-font: none; font-file-url: none; fill: #2AA126; fill-rule: nonzero; opacity: 1;" transform=" translate(-185.7025, -171.732)" d="m 299.375 15.232 c 31.446 0 57.03 25.584 57.03 57.03 v 32.47 c 0 4.143 3.358 7.5 7.5 7.5 s 7.5 -3.357 7.5 -7.5 v -32.47 c 0 -39.718 -32.313 -72.03 -72.03 -72.03 c -39.718 0 -72.03 32.141 -72.03 71.647 v 199.705 c 0 31.235 -25.583 56.647 -57.03 56.647 c -31.447 0 -57.03 -25.584 -57.03 -57.03 v -59.669 c 54.843 -3.861 98.285 -49.708 98.285 -105.516 c 0 -58.33 -47.455 -105.785 -105.785 -105.785 s -105.785 47.457 -105.785 105.787 c 0 55.808 43.442 101.655 98.285 105.516 v 59.669 c 0 39.718 32.313 72.03 72.03 72.03 c 39.717 0 72.03 -32.141 72.03 -71.647 v -199.706 c 0 -31.235 25.583 -56.648 57.03 -56.648 z m -284.375 90.786 c 0 -50.06 40.726 -90.785 90.785 -90.785 c 50.059 0 90.785 40.726 90.785 90.785 s -40.726 90.785 -90.785 90.785 c -50.059 0 -90.785 -40.726 -90.785 -90.785 z" stroke-linecap="round"/>
      </g>
      <g transform="matrix(1 0 0 1 -129.4475 -129.2135)">
        <path style="stroke: none; stroke-width: 1; stroke-dasharray: none; stroke-linecap: butt; stroke-dashoffset: 0; stroke-linejoin: miter; stroke-miterlimit: 4; is-custom-font: none; font-file-url: none; fill: #2AA126; fill-rule: nonzero; opacity: 1;" transform=" translate(-105.785, -106.019)" d="m 105.761 127.518 c -3.113 0 -5.646 -2.533 -5.646 -5.646 c 0 -4.143 -3.358 -7.5 -7.5 -7.5 s -7.5 3.357 -7.5 7.5 c 0 8.737 5.463 16.205 13.146 19.215 v 3.216 c 0 4.142 3.356 7.5 7.499 7.501 c 4.143 0 7.5 -3.357 7.501 -7.499 v -3.217 c 7.683 -3.01 13.147 -10.478 13.147 -19.216 c 0 -14.463 -11.777 -19.988 -17.437 -22.644 c -6.915 -3.244 -8.808 -5.192 -8.808 -9.063 c 0 -3.113 2.533 -5.646 5.646 -5.646 s 5.646 2.533 5.646 5.646 c 0 4.143 3.358 7.5 7.5 7.5 s 7.5 -3.357 7.5 -7.5 c 0 -8.737 -5.463 -16.205 -13.146 -19.215 v -3.215 c 0 -4.143 -3.357 -7.501 -7.499 -7.501 c -4.143 0 -7.5 3.357 -7.501 7.499 v 3.217 c -7.683 3.01 -13.147 10.478 -13.147 19.216 c 0 14.462 11.777 19.988 17.437 22.644 c 6.915 3.244 8.808 5.192 8.808 9.063 c -1.42109e-14 3.111 -2.533 5.645 -5.646 5.645 z" stroke-linecap="round"/>
      </g>
      <g transform="matrix(1 0 0 1 -128.6084 -129.215)">
        <path style="stroke: none; stroke-width: 1; stroke-dasharray: none; stroke-linecap: butt; stroke-dashoffset: 0; stroke-linejoin: miter; stroke-miterlimit: 4; is-custom-font: none; font-file-url: none; fill: #2AA126; fill-rule: nonzero; opacity: 1;" transform=" translate(-106.6241, -106.0175)" d="m 181.57 106.018 c 0 -41.788 -33.997 -75.785 -75.785 -75.785 c -17.287 0 -34.207 6 -47.642 16.896 c -13.23 10.727 -22.563 25.729 -26.28 42.241 c -0.91 4.041 1.629 8.055 5.67 8.964 c 4.042 0.913 8.055 -1.628 8.964 -5.669 c 6.187 -27.484 31.121 -47.433 59.288 -47.433 c 33.517 0 60.785 27.269 60.785 60.785 s -27.268 60.785 -60.785 60.785 c -28.167 0 -53.101 -19.948 -59.288 -47.433 c -0.91 -4.041 -4.925 -6.582 -8.964 -5.669 c -4.041 0.909 -6.58 4.923 -5.67 8.964 c 3.717 16.512 13.05 31.514 26.279 42.242 c 13.435 10.896 30.355 16.896 47.642 16.896 c 41.789 0.001 75.786 -33.996 75.786 -75.784 z" stroke-linecap="round"/>
      </g>
      <g transform="matrix(1 0 0 1 128.6725 -3.5005)">
        <path style="stroke: none; stroke-width: 1; stroke-dasharray: none; stroke-linecap: butt; stroke-dashoffset: 0; stroke-linejoin: miter; stroke-miterlimit: 4; is-custom-font: none; font-file-url: none; fill: #2AA126; fill-rule: nonzero; opacity: 1;" transform=" translate(-363.905, -231.732)" d="m 371.405 291.232 v -26.075 c 11.146 -3.253 19.315 -13.557 19.315 -25.74 v -35.598 c 0 -12.183 -8.169 -22.487 -19.315 -25.74 v -13.347 c 0 -4.143 -3.358 -7.5 -7.5 -7.5 s -7.5 3.357 -7.5 7.5 v 13.347 c -11.146 3.253 -19.315 13.557 -19.315 25.74 v 35.598 c 0 12.183 8.169 22.487 19.315 25.74 v 26.075 h -61.56 c -4.142 0 -7.5 3.357 -7.5 7.5 s 3.358 7.5 7.5 7.5 h 138.12 c 4.142 0 7.5 -3.357 7.5 -7.5 s -3.358 -7.5 -7.5 -7.5 h -61.56 z m -19.316 -51.815 v -35.598 c 0 -6.515 5.3 -11.815 11.815 -11.815 s 11.815 5.301 11.815 11.815 v 35.598 c 0 6.515 -5.3 11.815 -11.815 11.815 s -11.815 -5.3 -11.815 -11.815 z" stroke-linecap="round"/>
      </g>
    </g>
  </g>
</svg>