<svg xmlns="http://www.w3.org/2000/svg" xmlns:xlink="http://www.w3.org/1999/xlink" version="1.1" width="1000" height="1000" viewBox="0 0 1000 1000" xml:space="preserve">
<desc>Created with Fabric.js 3.5.0</desc>
<defs>
</defs>
<rect x="0" y="0" width="100%" height="100%" fill="#ffffff"/>
<g transform="matrix(28.8272 0 0 28.8272 500.0002 500.0002)" id="230628">
<path style="stroke: none; stroke-width: 1; stroke-dasharray: none; stroke-linecap: butt; stroke-dashoffset: 0; stroke-linejoin: miter; stroke-miterlimit: 4; is-custom-font: none; font-file-url: none; fill: rgb(255,153,85); fill-rule: nonzero; opacity: 1;" vector-effect="non-scaling-stroke" transform=" translate(-16, -16.1182)" d="M 16 8 c -1.657 0 -3 1.343 -3 3 s 1.343 3 3 3 s 3 -1.343 3 -3 S 17.657 8 16 8 z M 16 13 c -1.103 0 -2 -0.897 -2 -2 c 0 -1.103 0.897 -2 2 -2 s 2 0.897 2 2 C 18 12.103 17.103 13 16 13 z M 23.368 17.245 C 23.736 15.625 24 13.834 24 12 c 0 -5.916 -4.684 -9.805 -6.884 -11.304 c -0.675 -0.461 -1.557 -0.461 -2.232 0 C 12.684 2.195 8 6.084 8 12 c 0 2.019 0.207 3.795 0.509 5.327 l -2.064 1.376 C 6.167 18.889 6 19.201 6 19.535 v 4.077 c 0 0.57 0.467 1.001 0.998 1.001 c 0.104 0 0.211 -0.017 0.318 -0.052 l 3.346 -1.115 C 10.867 23.806 11 24 11 24 l -0.561 1.684 C 10.223 26.331 10.705 27 11.387 27 h 0.595 c -0.085 0.321 -0.146 0.652 -0.146 1 c 0 1.223 0.307 2.318 0.58 3.052 c 0.201 0.54 0.811 0.806 1.337 0.573 c 0.275 -0.122 0.592 -0.27 0.927 -0.441 c 0.384 0.246 0.741 0.445 1.007 0.585 c 0.293 0.154 0.637 0.157 0.93 0.004 c 0.124 -0.065 0.267 -0.142 0.424 -0.231 c 0.282 -0.16 0.628 -0.177 0.922 -0.041 c 0.097 0.045 0.19 0.087 0.279 0.126 c 0.529 0.234 1.136 -0.031 1.338 -0.573 c 0.274 -0.734 0.58 -1.829 0.58 -3.052 c 0 -0.348 -0.061 -0.679 -0.146 -1 h 0.595 c 0.683 0 1.165 -0.669 0.949 -1.316 L 21 24 c 0 0 0.105 -0.203 0.277 -0.574 l 3.407 1.136 c 0.106 0.035 0.213 0.052 0.318 0.052 c 0.531 0 0.998 -0.43 0.998 -1.001 v -4.077 c 0 -0.334 -0.167 -0.647 -0.445 -0.832 L 23.368 17.245 z M 7 23.613 v -4.077 l 1.739 -1.159 c 0.443 1.827 1.003 3.225 1.458 4.171 L 7 23.613 z M 18.643 30.707 c -0.212 -0.094 -0.452 -0.205 -0.704 -0.33 l 0 0 c -0.311 -0.155 -0.679 -0.137 -0.974 0.046 l 0 0 c -0.308 0.191 -0.591 0.348 -0.807 0.461 c -0.246 -0.129 -0.579 -0.314 -0.937 -0.543 l 0 0 c -0.3 -0.192 -0.679 -0.21 -0.996 -0.048 h 0 c -0.312 0.16 -0.61 0.299 -0.868 0.413 c -0.242 -0.65 -0.521 -1.631 -0.521 -2.706 c 0 -0.353 0.071 -0.687 0.187 -1 H 14 c 0 0.645 0.682 1.56 1.25 2.21 c 0.396 0.453 1.104 0.453 1.5 0 C 17.318 28.56 18 27.645 18 27 h 0.976 c 0.116 0.313 0.187 0.647 0.187 1 C 19.163 29.079 18.885 30.058 18.643 30.707 z M 15 27 h 2 c -0.015 0.263 -0.444 0.909 -1.001 1.552 C 15.442 27.909 15.013 27.261 15 27 z M 11.387 26 l 0.665 -2 h 7.893 l 0.667 2 H 11.387 z M 20.37 23 h -8.81 C 10.863 21.777 9 17.95 9 12 c 0 -5.417 4.398 -9.067 6.446 -10.472 c 0.335 -0.23 0.776 -0.231 1.112 -0.001 C 18.606 2.927 23 6.566 23 12 C 23 16.833 21.077 21.463 20.37 23 z M 25 23.613 l -3.32 -1.107 c 0.425 -1.017 0.976 -2.492 1.435 -4.227 L 25 19.535 V 23.613 z M 16 6 c -2.757 0 -5 2.243 -5 5 s 2.243 5 5 5 s 5 -2.243 5 -5 S 18.757 6 16 6 z M 16 15 c -2.209 0 -4 -1.791 -4 -4 c 0 -2.209 1.791 -4 4 -4 c 2.209 0 4 1.791 4 4 C 20 13.209 18.209 15 16 15 z" stroke-linecap="round"/>
</g>
</svg>