<svg xmlns="http://www.w3.org/2000/svg" width="73.536" height="71.515" viewBox="0 0 73.536 71.515">
  <g id="noun-packet-sending-2940072" transform="translate(-92.236 -29.251)">
    <path id="Path_232" data-name="Path 232" d="M94.411,96.574H137.8a16.868,16.868,0,1,0,17.5-28.305V52.453c0-.022-.022-.045-.022-.089a1.9,1.9,0,0,0-.133-.687,1.409,1.409,0,0,1-.045-.155.132.132,0,0,1-.022-.089L144.61,30.471a2.216,2.216,0,0,0-1.974-1.22H104.9a2.167,2.167,0,0,0-1.974,1.22L92.46,51.433a.132.132,0,0,0-.022.089,1.406,1.406,0,0,0-.045.155,1.782,1.782,0,0,0-.133.666c0,.022-.022.066-.022.089V94.356a2.16,2.16,0,0,0,2.174,2.218Zm66.947-12.71A12.444,12.444,0,1,1,148.914,71.4a12.468,12.468,0,0,1,12.444,12.467Zm-55.1-50.177h34.981l8.252,16.526H98ZM96.63,54.649h54.237V67.115a19.317,19.317,0,0,0-1.974-.133,16.853,16.853,0,0,0-14.707,25.133H96.63Z" transform="translate(0 0)" fill="#2AA126"/>
    <path id="Path_233" data-name="Path 233" d="M239.118,241.454a6.428,6.428,0,0,0-6.411-6.411h-16.77a6.411,6.411,0,1,0,0,12.822h16.77A6.428,6.428,0,0,0,239.118,241.454Zm-25.155,0a1.979,1.979,0,0,1,1.974-1.974h16.77a1.974,1.974,0,1,1,0,3.948h-16.77A1.979,1.979,0,0,1,213.963,241.454Z" transform="translate(-100.564 -176.446)" fill="#2AA126"/>
    <path id="Path_234" data-name="Path 234" d="M450.268,338c-.066.022-.133.045-.222.066a2.191,2.191,0,0,0-.666.443l-4.192,4.192a2.212,2.212,0,1,0,3.128,3.128l.4-.4v11.4a2.218,2.218,0,0,0,4.436,0v-11.4l.4.4a2.179,2.179,0,0,0,1.575.643,2.271,2.271,0,0,0,1.575-.643,2.209,2.209,0,0,0,0-3.128l-4.192-4.192c-.022-.022-.045-.022-.066-.045a2.548,2.548,0,0,0-.643-.443.08.08,0,0,1-.066-.022,1.923,1.923,0,0,0-.71-.133H450.8c-.156.045-.355.089-.533.134Z" transform="translate(-302.065 -264.603)" fill="#2AA126"/>
  </g>
</svg>