<svg id="publish" xmlns="http://www.w3.org/2000/svg" width="62.733" height="62.734" viewBox="0 0 62.733 62.734">
  <path id="Path_143" data-name="Path 143" d="M62.66,4.683A4.876,4.876,0,0,0,58.05.074C53.022-.2,43.182.066,33.774,4.933a47.659,47.659,0,0,0-13.917,11.54l-.148.18-9.187.71a4.85,4.85,0,0,0-3.7,2.174L.559,29.017a3.359,3.359,0,0,0,2.288,5.172l7.74,1.2c-.027.15-.055.3-.08.451a4.874,4.874,0,0,0,1.366,4.239L22.655,50.86A4.886,4.886,0,0,0,26.1,52.292a4.8,4.8,0,0,0,.791-.066c.15-.025.3-.053.451-.08l1.2,7.74a3.356,3.356,0,0,0,5.172,2.288l9.48-6.268a4.849,4.849,0,0,0,2.174-3.7l.71-9.187.18-.148A47.655,47.655,0,0,0,57.8,28.96c4.867-9.409,5.133-19.248,4.859-24.276ZM41.169,52.841l-9.068,6-1.168-7.543a41.173,41.173,0,0,0,11.236-5.35l-.462,5.985a1.2,1.2,0,0,1-.537.912Zm-15.916-4.58L14.472,37.48a1.191,1.191,0,0,1-.34-1.034,31.618,31.618,0,0,1,1.435-5.46L31.744,47.162A31.751,31.751,0,0,1,26.288,48.6a1.192,1.192,0,0,1-1.034-.34ZM10.805,21.027l5.985-.462A41.17,41.17,0,0,0,11.44,31.8L3.9,30.633l6-9.068A1.2,1.2,0,0,1,10.805,21.027Zm33.1,19.027A42.139,42.139,0,0,1,35.4,45.618L17.115,27.335a42.868,42.868,0,0,1,5.565-8.507A43.862,43.862,0,0,1,35.463,8.2C44.1,3.731,53.2,3.491,57.85,3.744a1.206,1.206,0,0,1,1.14,1.14c.254,4.655.013,13.752-4.454,22.387a43.862,43.862,0,0,1-10.63,12.783Z" transform="translate(0 0)" fill="#fff"/>
  <path id="Path_144" data-name="Path 144" d="M284.912,104.688a9.182,9.182,0,1,0-6.5-2.687A9.163,9.163,0,0,0,284.912,104.688Zm-3.9-13.083a5.513,5.513,0,1,1-1.615,3.9A5.5,5.5,0,0,1,281.013,91.6Z" transform="translate(-241.94 -75.742)" fill="#fff"/>
  <path id="Path_145" data-name="Path 145" d="M2.139,352.641a1.831,1.831,0,0,0,1.3-.538l6-6a1.838,1.838,0,0,0-2.6-2.6l-6,6a1.838,1.838,0,0,0,1.3,3.138Z" transform="translate(-0.265 -300.942)" fill="#fff"/>
  <path id="Path_146" data-name="Path 146" d="M14.674,388.384a1.838,1.838,0,0,0-2.6,0L.539,399.92a1.838,1.838,0,1,0,2.6,2.6l11.536-11.536A1.838,1.838,0,0,0,14.674,388.384Z" transform="translate(0 -340.324)" fill="#fff"/>
  <path id="Path_147" data-name="Path 147" d="M96.6,433.265l-6,6a1.838,1.838,0,1,0,2.6,2.6l6-6a1.838,1.838,0,1,0-2.6-2.6Z" transform="translate(-79.027 -379.706)" fill="#fff"/>
</svg>
