<svg xmlns="http://www.w3.org/2000/svg" width="49.661" height="70.516" viewBox="0 0 49.661 70.516">
  <g id="Group_9414" data-name="Group 9414" transform="translate(-370.817 -7367.984)">
    <path id="Path_167" data-name="Path 167" d="M298.843,107.675a10.089,10.089,0,1,0-7.133-2.955A10.085,10.085,0,0,0,298.843,107.675Zm7.4-10.088a7.384,7.384,0,0,1-12.845,4.99L304.9,93.3a7.291,7.291,0,0,1,1.345,4.291Zm-7.4-7.4a7.374,7.374,0,0,1,4.035,1.224l-10.922,8.864a7.384,7.384,0,0,1,6.887-10.088Z" transform="translate(93.563 7291.745)" fill="#2AA126" stroke="#2AA126" stroke-width="1"/>
    <path id="Path_168" data-name="Path 168" d="M271.647,437.5H246.159A1.159,1.159,0,0,0,245,438.659v6.952a1.158,1.158,0,0,0,1.159,1.159h25.489a1.158,1.158,0,0,0,1.159-1.159v-6.952a1.158,1.158,0,0,0-1.159-1.159Zm-1.159,6.951H247.317v-4.634h23.172Z" transform="translate(136.745 6986.597)" fill="#2AA126" stroke="#2AA126" stroke-width="1"/>
    <path id="Path_169" data-name="Path 169" d="M245,297.5h27.806v2.317H245Z" transform="translate(136.745 7108.059)" fill="#2AA126" stroke="#2AA126" stroke-width="1"/>
    <path id="Path_170" data-name="Path 170" d="M245,385h27.806v2.317H245Z" transform="translate(136.745 7032.146)" fill="#2AA126" stroke="#2AA126" stroke-width="1"/>
    <path id="Path_171" data-name="Path 171" d="M245,350h10.427v2.317H245Z" transform="translate(136.745 7062.511)" fill="#2AA126" stroke="#2AA126" stroke-width="1"/>
    <path id="Path_172" data-name="Path 172" d="M245,262.5h10.427v2.317H245Z" transform="translate(136.745 7138.425)" fill="#2AA126" stroke="#2AA126" stroke-width="1"/>
    <path id="Path_173" data-name="Path 173" d="M213.752,20.976h-4.634V18.659a1.158,1.158,0,0,0-1.159-1.159H173.2a1.159,1.159,0,0,0-1.159,1.159v2.317h-4.634a1.159,1.159,0,0,0-1.159,1.159V82.381a1.158,1.158,0,0,0,1.159,1.159h4.634v2.317a1.158,1.158,0,0,0,1.159,1.159h34.758a1.158,1.158,0,0,0,1.159-1.159V83.539h4.634a1.158,1.158,0,0,0,1.159-1.159V22.134a1.158,1.158,0,0,0-1.159-1.159ZM168.567,81.222V23.293h3.476V81.222ZM206.8,84.7H174.36V19.817H206.8Zm5.793-3.476h-3.476V23.293h3.476Z" transform="translate(205.067 7350.985)" fill="#2AA126" stroke="#2AA126" stroke-width="1"/>
  </g>
</svg>