<svg xmlns="http://www.w3.org/2000/svg" width="69.473" height="72.516" viewBox="0 0 69.473 72.516">
  <path id="noun-push-notification-4468850" d="M103.477,7.44a2.283,2.283,0,0,1,.31,4.544l-.31.021h-9.13a2.251,2.251,0,0,0-2.262,1.888l-.02.293v53.56a2.218,2.218,0,0,0,1.97,2.161l.312.02h36.519a2.251,2.251,0,0,0,2.262-1.888l.02-.293V40.965a2.283,2.283,0,0,1,4.544-.31l.021.31v26.78a6.788,6.788,0,0,1-6.36,6.729l-.488.017H94.347a6.806,6.806,0,0,1-6.83-6.262l-.017-.483V14.185a6.788,6.788,0,0,1,6.36-6.729l.488-.017Zm45.648-4.464a6.8,6.8,0,0,1,6.847,6.746V27.576a6.8,6.8,0,0,1-6.847,6.746H126.976l-13.123,8.556a2.283,2.283,0,0,1-3.508-1.6l-.02-.312V9.723a6.8,6.8,0,0,1,6.847-6.746Zm0,4.565H117.171a2.234,2.234,0,0,0-2.282,2.181v27.03l10.166-6.626a2.275,2.275,0,0,1,.917-.346l.329-.024h22.824a2.234,2.234,0,0,0,2.282-2.181V9.721a2.234,2.234,0,0,0-2.282-2.181Z" transform="translate(-87 -2.476)" fill="#2AA126" stroke="#2AA126" stroke-width="1"/>
</svg>