<svg xmlns="http://www.w3.org/2000/svg" width="69.859" height="70.515" viewBox="0 0 69.859 70.515">
  <g id="Group_9416" data-name="Group 9416" transform="translate(-351.275 -7938.485)">
    <path id="Path_180" data-name="Path 180" d="M182.812,159.748h19.648V153.2H182.812a5.459,5.459,0,0,1-5.458-5.458v-34.93a5.459,5.459,0,0,1,5.458-5.458H197v13.1h6.55v-13.1h14.191a5.459,5.459,0,0,1,5.458,5.458v12.008h6.55V112.811A12.008,12.008,0,0,0,217.743,100.8h-34.93a12.008,12.008,0,0,0-12.007,12.007v34.93a12.008,12.008,0,0,0,12.007,12.007Z" transform="translate(180.469 7837.681)" fill="#2AA126"/>
    <path id="Path_181" data-name="Path 181" d="M377.574,257.6A16.374,16.374,0,0,0,361.2,273.974c0,10.326,10.294,18.851,12.356,20.457l4.017,3.121,4.017-3.132c2.063-1.594,12.356-10.119,12.356-20.446A16.373,16.373,0,0,0,377.574,257.6Zm0,31.656s-9.824-7.641-9.824-15.282a9.824,9.824,0,0,1,19.648,0C387.4,281.615,377.574,289.256,377.574,289.256Z" transform="translate(27.187 7711.448)" fill="#2AA126"/>
    <path id="Path_182" data-name="Path 182" d="M434.948,328.074a3.275,3.275,0,1,1-3.275-3.275,3.275,3.275,0,0,1,3.275,3.275" transform="translate(-26.913 7657.348)" fill="#2AA126"/>
  </g>
</svg>