<svg xmlns="http://www.w3.org/2000/svg" xmlns:xlink="http://www.w3.org/1999/xlink" version="1.1" width="1000" height="1000" viewBox="0 0 1000 1000" xml:space="preserve">
  <desc>Created with Fabric.js 3.5.0</desc>
  <defs>
</defs>
  <rect x="0" y="0" width="100%" height="100%" fill="#ffffff"/>
  <g transform="matrix(2.8432 0 0 2.8432 500.0066 500.0066)" id="947301">
    <path style="stroke: none; stroke-width: 1; stroke-dasharray: none; stroke-linecap: butt; stroke-dashoffset: 0; stroke-linejoin: miter; stroke-miterlimit: 4; is-custom-font: none; font-file-url: none; fill: #2AA126; fill-rule: nonzero; opacity: 1;" vector-effect="non-scaling-stroke" transform=" translate(-159.873, -159.8731)" d="M 285.505 310.745 c 0 4.971 -4.029 9 -9 9 h -65.867 c -0.056 0.001 -0.112 0.001 -0.168 0.001 c -0.057 0 -0.112 0 -0.168 -0.001 h -78.303 c -0.112 0.002 -0.225 0.002 -0.337 0 h -78.3 c -0.112 0.002 -0.225 0.002 -0.337 0 H 9.305 c -4.971 0 -9 -4.029 -9 -9 s 4.029 -9 9 -9 h 34.888 V 68.535 c 0 -4.971 4.029 -9 9 -9 s 9 4.029 9 9 v 233.21 h 60.637 V 147.218 c 0 -4.971 4.029 -9 9 -9 c 4.971 0 9 4.029 9 9 v 154.527 h 60.64 v -91.58 c 0 -4.971 4.029 -9 9 -9 s 9 4.029 9 9 v 91.58 h 57.035 C 281.476 301.745 285.505 305.774 285.505 310.745 z M 310.442 167.062 c -4.971 0 -9 4.029 -9 9 v 24.574 l -198.001 -198 c -1.805 -1.805 -4.189 -2.688 -6.552 -2.634 H 9.305 c -4.971 0 -9 4.029 -9 9 s 4.029 9 9 9 h 84.046 l 195.364 195.362 H 264.14 c -4.971 0 -9 4.029 -9 9 s 4.029 9 9 9 h 46.302 c 2.917 0 5.511 -1.388 7.155 -3.54 c 0.369 -0.482 0.684 -0.995 0.941 -1.526 c 0.579 -1.188 0.903 -2.523 0.903 -3.934 v -0.001 v -46.302 C 319.442 171.091 315.412 167.062 310.442 167.062 z" stroke-linecap="round"/>
  </g>
</svg>