<svg xmlns="http://www.w3.org/2000/svg" width="66.857" height="72" viewBox="0 0 66.857 72">
  <g id="noun-feedback-4830252" transform="translate(-122.5 -35)">
    <path id="Path_194" data-name="Path 194" d="M181.643,50.429H168.786V42.714A7.713,7.713,0,0,0,161.071,35H130.214a7.713,7.713,0,0,0-7.714,7.714V99.286A7.713,7.713,0,0,0,130.214,107h30.857a7.713,7.713,0,0,0,7.714-7.714V78.714h12.857A7.713,7.713,0,0,0,189.357,71V58.143a7.713,7.713,0,0,0-7.714-7.714Zm-18,48.857a2.571,2.571,0,0,1-2.571,2.571H130.214a2.571,2.571,0,0,1-2.571-2.571V42.714a2.571,2.571,0,0,1,2.571-2.571h30.857a2.571,2.571,0,0,1,2.571,2.571v7.714H148.214a7.713,7.713,0,0,0-7.714,7.714V81.286a2.571,2.571,0,0,0,4,2.139l7.059-4.711h12.086ZM184.214,71a2.571,2.571,0,0,1-2.571,2.571H150.786a2.582,2.582,0,0,0-1.427.432l-3.716,2.476V58.143a2.571,2.571,0,0,1,2.571-2.571h33.429a2.571,2.571,0,0,1,2.571,2.571Z" fill="#2AA126"/>
    <path id="Path_195" data-name="Path 195" d="M252.714,420h-5.143a2.571,2.571,0,1,0,0,5.143h5.143a2.571,2.571,0,1,0,0-5.143Z" transform="translate(-104.5 -328.429)" fill="#2AA126"/>
    <path id="Path_196" data-name="Path 196" d="M322.566,212.478l-1.877-.275h0a.515.515,0,0,1-.394-.285l-.841-1.7h0a.515.515,0,0,0-.939,0l-.838,1.7a.514.514,0,0,1-.394.285l-1.88.275h0a.514.514,0,0,0-.288.89l1.357,1.324a.515.515,0,0,1,.152.463l-.321,1.872h0a.514.514,0,0,0,.771.55l1.679-.882h0a.514.514,0,0,1,.486,0l1.682.882h0a.514.514,0,0,0,.758-.55l-.321-1.872h0a.514.514,0,0,1,.149-.463l1.36-1.324a.514.514,0,0,0-.3-.89Z" transform="translate(-164.172 -149.21)" fill="#2AA126"/>
    <path id="Path_197" data-name="Path 197" d="M394.413,212.478l-1.877-.275h0a.514.514,0,0,1-.394-.285l-.841-1.7a.514.514,0,0,0-.938,0l-.838,1.7a.514.514,0,0,1-.394.285l-1.88.275h0a.514.514,0,0,0-.29.89l1.36,1.324a.513.513,0,0,1,.152.463l-.321,1.872h0a.514.514,0,0,0,.771.55l1.679-.882h0a.514.514,0,0,1,.486,0l1.682.882h0a.514.514,0,0,0,.757-.55l-.319-1.872h0a.514.514,0,0,1,.149-.463l1.36-1.324a.514.514,0,0,0-.3-.89Z" transform="translate(-225.46 -149.21)" fill="#2AA126"/>
    <path id="Path_198" data-name="Path 198" d="M460.223,212.478l-1.88-.275h0a.514.514,0,0,1-.394-.285l-.838-1.7a.515.515,0,0,0-.939,0l-.841,1.7h0a.515.515,0,0,1-.394.285l-1.877.275h0a.514.514,0,0,0-.291.89l1.36,1.324a.513.513,0,0,1,.149.463l-.321,1.872h0a.514.514,0,0,0,.759.55l1.682-.882h0a.513.513,0,0,1,.486,0l1.679.882h0a.514.514,0,0,0,.758-.55L459,215.155h0a.515.515,0,0,1,.152-.463l1.357-1.324a.514.514,0,0,0-.288-.89Z" transform="translate(-281.6 -149.21)" fill="#2AA126"/>
  </g>
</svg>