<svg xmlns="http://www.w3.org/2000/svg" xmlns:xlink="http://www.w3.org/1999/xlink" version="1.1" width="1000" height="1000" viewBox="0 0 1000 1000" xml:space="preserve">
<desc>Created with Fabric.js 3.5.0</desc>
<defs>
</defs>
<rect x="0" y="0" width="100%" height="100%" fill="#ffffff"/>
<g transform="matrix(4.5455 0 0 4.5455 500.0045 500.0045)" id="236005">
<g style="" vector-effect="non-scaling-stroke">
		<g transform="matrix(1 0 0 1 -60.8755 -39.057)" id="Layer_1">
<path style="stroke: none; stroke-width: 1; stroke-dasharray: none; stroke-linecap: butt; stroke-dashoffset: 0; stroke-linejoin: miter; stroke-miterlimit: 4; is-custom-font: none; font-file-url: none; fill: rgb(255,153,85); fill-rule: nonzero; opacity: 1;" transform=" translate(-963.1245, -638.943)" d="M 984.585 638.942 c 0 13.999 -9.609 25.348 -21.462 25.348 c -11.852 0 -21.459 -11.349 -21.459 -25.348 c 0 -13.998 9.607 -25.346 21.459 -25.346 C 974.976 613.596 984.585 624.944 984.585 638.942 z" stroke-linecap="round"/>
</g>
		<g transform="matrix(1 0 0 1 -65.6877 2.0462)" id="Layer_1">
<path style="stroke: none; stroke-width: 1; stroke-dasharray: none; stroke-linecap: butt; stroke-dashoffset: 0; stroke-linejoin: miter; stroke-miterlimit: 4; is-custom-font: none; font-file-url: none; fill: rgb(255,153,85); fill-rule: nonzero; opacity: 1;" transform=" translate(-958.3123, -680.0461)" d="M 987.585 683.641 c 1.55 -0.945 3.265 -1.561 5.041 -1.855 c -3.606 -5.088 -6.161 -10.546 -7.637 -17.078 c -0.404 -2.387 -3.672 -2.667 -6.102 -0.687 c -4.546 3.706 -9.849 6.186 -15.765 6.186 c -6.03 0 -11.577 -2.399 -16.024 -6.414 c -1.419 -1.282 -3.51 -1.476 -5.143 -0.479 c -8.443 5.158 -14.834 13.344 -17.622 23.067 c -0.749 2.605 -0.223 5.42 1.411 7.588 c 1.636 2.166 4.192 3.443 6.906 3.443 h 38.668 C 975.947 692.072 981.41 687.41 987.585 683.641 z" stroke-linecap="round"/>
</g>
		<g transform="matrix(1 0 0 1 60.8765 -39.057)" id="Layer_1">
<path style="stroke: none; stroke-width: 1; stroke-dasharray: none; stroke-linecap: butt; stroke-dashoffset: 0; stroke-linejoin: miter; stroke-miterlimit: 4; is-custom-font: none; font-file-url: none; fill: rgb(255,153,85); fill-rule: nonzero; opacity: 1;" transform=" translate(-1084.8765, -638.943)" d="M 1063.416 638.942 c 0 13.999 9.608 25.348 21.461 25.348 c 11.854 0 21.46 -11.349 21.46 -25.348 c 0 -13.998 -9.606 -25.346 -21.46 -25.346 C 1073.024 613.596 1063.416 624.944 1063.416 638.942 z" stroke-linecap="round"/>
</g>
		<g transform="matrix(1 0 0 1 65.6875 2.0462)" id="Layer_1">
<path style="stroke: none; stroke-width: 1; stroke-dasharray: none; stroke-linecap: butt; stroke-dashoffset: 0; stroke-linejoin: miter; stroke-miterlimit: 4; is-custom-font: none; font-file-url: none; fill: rgb(255,153,85); fill-rule: nonzero; opacity: 1;" transform=" translate(-1089.6875, -680.0461)" d="M 1060.415 683.641 c -1.55 -0.945 -3.266 -1.561 -5.041 -1.855 c 3.606 -5.088 6.161 -10.546 7.637 -17.078 c 0.405 -2.387 3.673 -2.667 6.103 -0.687 c 4.546 3.706 9.848 6.186 15.764 6.186 c 6.029 0 11.577 -2.399 16.025 -6.414 c 1.419 -1.282 3.509 -1.476 5.142 -0.479 c 8.444 5.158 14.836 13.344 17.622 23.067 c 0.748 2.605 0.223 5.42 -1.41 7.588 c -1.637 2.166 -4.192 3.443 -6.905 3.443 h -38.67 C 1072.053 692.072 1066.591 687.41 1060.415 683.641 z" stroke-linecap="round"/>
</g>
		<g transform="matrix(1 0 0 1 -0.5671 37.7182)" id="Layer_1">
<path style="stroke: none; stroke-width: 1; stroke-dasharray: none; stroke-linecap: butt; stroke-dashoffset: 0; stroke-linejoin: miter; stroke-miterlimit: 4; is-custom-font: none; font-file-url: none; fill: rgb(255,153,85); fill-rule: nonzero; opacity: 1;" transform=" translate(-1023.4329, -715.7181)" d="M 1082.475 725.451 c -4.198 -14.654 -13.72 -27.045 -26.326 -34.992 c -2.487 -1.566 -5.715 -1.313 -7.921 0.631 c -6.766 5.959 -15.138 9.506 -24.228 9.506 c -9.269 0 -17.791 -3.686 -24.626 -9.855 c -2.182 -1.971 -5.393 -2.268 -7.902 -0.734 c -12.977 7.924 -22.799 20.504 -27.082 35.445 c -1.151 4.008 -0.344 8.328 2.166 11.662 c 2.516 3.33 6.443 5.291 10.615 5.291 h 92.523 c 4.173 0 8.103 -1.955 10.618 -5.291 C 1082.823 733.779 1083.626 729.463 1082.475 725.451 z" stroke-linecap="round"/>
</g>
		<g transform="matrix(1 0 0 1 0.001 -25.451)" id="Layer_1">
<path style="stroke: none; stroke-width: 1; stroke-dasharray: none; stroke-linecap: butt; stroke-dashoffset: 0; stroke-linejoin: miter; stroke-miterlimit: 4; is-custom-font: none; font-file-url: none; fill: rgb(255,153,85); fill-rule: nonzero; opacity: 1;" transform=" translate(-1024.001, -652.549)" d="M 1056.981 652.547 c 0 21.513 -14.766 38.955 -32.981 38.955 c -18.214 0 -32.979 -17.442 -32.979 -38.955 c 0 -21.515 14.765 -38.951 32.979 -38.951 C 1042.216 613.596 1056.981 631.033 1056.981 652.547 z" stroke-linecap="round"/>
</g>
</g>
</g>
</svg>