<svg xmlns="http://www.w3.org/2000/svg" width="71.365" height="71.515" viewBox="0 0 71.365 71.515">
  <g id="Group_9418" data-name="Group 9418" transform="translate(1499.411 -4662)">
    <path id="Path_189" data-name="Path 189" d="M172.575,224.189H192.3a2.334,2.334,0,0,0,0-4.667H172.575a2.334,2.334,0,0,0,0,4.667Z" transform="translate(-1658.21 4470.105)" fill="#2AA126"/>
    <path id="Path_190" data-name="Path 190" d="M185.9,292.32H172.578a2.334,2.334,0,0,0,0,4.667H185.9a2.334,2.334,0,1,0,0-4.667Z" transform="translate(-1658.212 4407.094)" fill="#2AA126"/>
    <path id="Path_191" data-name="Path 191" d="M139.171,46.672V31.691a2.6,2.6,0,0,0-.527-1.505L125.47,14.829A2.25,2.25,0,0,0,123.739,14H100.628a2.25,2.25,0,0,0-1.731.828L85.647,30.186a2.6,2.6,0,0,0-.527,1.505V66.019a2.345,2.345,0,0,0,2.334,2.334h30.187a19.492,19.492,0,0,0,38.844-2.334,19.781,19.781,0,0,0-17.314-19.347ZM114.479,18.593h8.13l9.259,10.765h-17.39Zm-12.8,0h8.205V29.357H92.422ZM89.713,34.025h44.867V46.747A19.5,19.5,0,0,0,117.566,63.76H89.713Zm47.2,46.9a14.905,14.905,0,1,1,14.905-14.905A14.939,14.939,0,0,1,136.913,80.924Z" transform="translate(-1584.531 4647.999)" fill="#2AA126"/>
    <path id="Path_193" data-name="Path 193" d="M209.622,139.628a19.466,19.466,0,1,0-13.765,5.7,19.468,19.468,0,0,0,13.765-5.7Zm-26.116-23.447L196.335,129H188.95v3.768h11.93a1.884,1.884,0,0,0,1.884-1.884v-11.93H199v7.385l-12.829-12.829a15.7,15.7,0,1,1-2.664,2.664Z" transform="translate(-1643.37 4587.896)" fill="#2AA126"/>
  </g>
</svg>