<svg xmlns="http://www.w3.org/2000/svg" xmlns:xlink="http://www.w3.org/1999/xlink" version="1.1" width="1000" height="1000" viewBox="0 0 1000 1000" xml:space="preserve">
<desc>Created with Fabric.js 3.5.0</desc>
<defs>
</defs>
<rect x="0" y="0" width="100%" height="100%" fill="#ffffff"/>
<g transform="matrix(1.9357 0 0 1.9357 499.9907 499.9907)" id="853991">
<g style="" vector-effect="non-scaling-stroke">
		<g transform="matrix(1 0 0 1 -28.575 -123.5315)">
<path style="stroke: none; stroke-width: 1; stroke-dasharray: none; stroke-linecap: butt; stroke-dashoffset: 0; stroke-linejoin: miter; stroke-miterlimit: 4; is-custom-font: none; font-file-url: none; fill: rgb(255,153,85); fill-rule: nonzero; opacity: 1;" transform=" translate(-206.2425, -111.286)" d="m 84.716 207.572 l -24.022 -0.072 c -0.609 0 -1.104 -0.496 -1.104 -1.106 v -119.638 c 0 -2.841 -1.605 -5.438 -4.146 -6.708 l -27.235 -13.618 l 27.235 -13.617 c 2.54 -1.27 4.146 -3.867 4.146 -6.708 v -30 c 0 -0.609 0.495 -1.104 1.104 -1.104 h 331.749 c 0.609 0 1.104 0.496 1.104 1.104 v 168.967 c 0 4.142 3.357 7.5 7.5 7.5 s 7.5 -3.358 7.5 -7.5 v -168.968 c 0 -8.88 -7.225 -16.104 -16.104 -16.104 h -331.749 c -8.88 0 -16.104 7.225 -16.104 16.104 v 25.365 l -36.506 18.253 c -2.54 1.27 -4.146 3.867 -4.146 6.708 s 1.604 5.438 4.146 6.708 l 36.506 18.253 v 115.003 c 0 8.881 7.225 16.106 16.082 16.106 l 23.999 0.072 c 4.154 0 7.51 -3.343 7.522 -7.478 c 0.013 -4.142 -3.336 -7.51 -7.477 -7.522 z" stroke-linecap="round"/>
</g>
		<g transform="matrix(1 0 0 1 51.6265 30.5665)">
<path style="stroke: none; stroke-width: 1; stroke-dasharray: none; stroke-linecap: butt; stroke-dashoffset: 0; stroke-linejoin: miter; stroke-miterlimit: 4; is-custom-font: none; font-file-url: none; fill: rgb(255,153,85); fill-rule: nonzero; opacity: 1;" transform=" translate(-286.444, -265.384)" d="m 465.696 245.955 c 0 -21.165 -17.219 -38.383 -38.383 -38.383 l -93.894 0.001 c 16.563 -30.455 25.578 -68.276 25.578 -108.058 c 0 -21.165 -17.219 -38.383 -38.383 -38.383 s -38.383 17.218 -38.383 38.383 c 0 59.583 -48.474 108.057 -108.057 108.057 h -59.482 c -4.143 0 -7.5 3.358 -7.5 7.5 v 247.063 c 0 4.142 3.357 7.5 7.5 7.5 h 59.482 c 4.143 0 7.5 -3.358 7.5 -7.5 v -239.798 c 64.374 -3.89 115.557 -57.487 115.557 -122.822 c 0 -12.894 10.489 -23.383 23.383 -23.383 s 23.383 10.489 23.383 23.383 c 0 42.128 -10.673 81.714 -30.052 111.465 c -1.502 2.306 -1.621 5.249 -0.31 7.668 s 3.842 3.926 6.594 3.926 l 107.083 -0.002 c 12.894 0 23.383 10.49 23.383 23.383 s -10.489 23.383 -23.383 23.383 h -37.948 c -4.143 0 -7.5 3.358 -7.5 7.5 s 3.357 7.5 7.5 7.5 h 25.299 c 12.894 0 23.383 10.489 23.383 23.383 s -10.489 23.383 -23.383 23.383 h -25.299 c -4.143 0 -7.5 3.358 -7.5 7.5 s 3.357 7.5 7.5 7.5 h 12.649 c 12.894 0 23.383 10.489 23.383 23.383 s -10.489 23.383 -23.383 23.383 h -12.649 c -4.143 0 -7.5 3.358 -7.5 7.5 s 3.357 7.5 7.5 7.5 c 12.894 0 23.383 10.489 23.383 23.383 s -10.489 23.383 -23.383 23.383 h -185.188 c -4.143 0 -7.5 3.358 -7.5 7.5 s 3.357 7.5 7.5 7.5 h 185.189 c 21.164 0 38.383 -17.218 38.383 -38.383 c 0 -10.258 -4.045 -19.589 -10.624 -26.482 c 13.674 -5.878 23.273 -19.481 23.273 -35.284 c 0 -10.258 -4.045 -19.589 -10.624 -26.482 c 13.674 -5.878 23.273 -19.481 23.273 -35.283 c 0 -10.258 -4.045 -19.589 -10.624 -26.482 c 13.675 -5.88 23.274 -19.483 23.274 -35.285 z m -299.02 208.68 h -44.482 v -232.063 h 44.482 v 232.063 z" stroke-linecap="round"/>
</g>
		<g transform="matrix(1 0 0 1 124.5475 103.7865)">
<path style="stroke: none; stroke-width: 1; stroke-dasharray: none; stroke-linecap: butt; stroke-dashoffset: 0; stroke-linejoin: miter; stroke-miterlimit: 4; is-custom-font: none; font-file-url: none; fill: rgb(255,153,85); fill-rule: nonzero; opacity: 1;" transform=" translate(-359.365, -338.604)" d="m 366.865 432.135 v -187.062 c 0 -4.142 -3.357 -7.5 -7.5 -7.5 s -7.5 3.358 -7.5 7.5 v 187.062 c 0 4.142 3.357 7.5 7.5 7.5 s 7.5 -3.358 7.5 -7.5 z" stroke-linecap="round"/>
</g>
</g>
</g>
</svg>