<svg xmlns="http://www.w3.org/2000/svg" width="53.417" height="70.016" viewBox="0 0 53.417 70.016">
  <g id="Group_9415" data-name="Group 9415" transform="translate(1241.583 -4072.75)">
    <path id="Path_174" data-name="Path 174" d="M166.173,64.45H148.794a6.528,6.528,0,0,1-6.521-6.52V11.59a6.528,6.528,0,0,1,6.521-6.52h17.379a2.537,2.537,0,0,0,0-5.068H148.794A11.6,11.6,0,0,0,137.2,11.59V57.929a11.6,11.6,0,0,0,11.6,11.588h17.379a2.537,2.537,0,0,0,0-5.068Z" transform="translate(-1378.531 4072.998)" fill="#2AA126" stroke="#2AA126" stroke-width="0.5"/>
    <path id="Path_175" data-name="Path 175" d="M301.511,183.379l-11.22-11.88a2.038,2.038,0,0,0-1.439-.646,2.056,2.056,0,0,0-1.529,3.469l7.556,7.994H267.039a2.086,2.086,0,1,0,.076,4.171h27.764l-7.556,7.994a2.085,2.085,0,0,0,1.494,3.476h.063a2.037,2.037,0,0,0,1.439-.646l11.192-11.88a1.494,1.494,0,0,0,0-2.051Z" transform="translate(-1490.422 3938.128)" fill="#2AA126" stroke="#2AA126" stroke-width="0.5"/>
    <path id="Path_176" data-name="Path 176" d="M265.354,183.379l11.22-11.88a2.038,2.038,0,0,1,1.439-.646,2.056,2.056,0,0,1,1.529,3.469l-7.556,7.994h27.841a2.086,2.086,0,1,1-.076,4.171H271.987l7.556,7.994a2.085,2.085,0,0,1-1.494,3.476h-.063a2.037,2.037,0,0,1-1.439-.646l-11.192-11.88a1.494,1.494,0,0,1,0-2.051Z" transform="translate(-1490.422 3911.893)" fill="#2AA126" stroke="#2AA126" stroke-width="0.5"/>
  </g>
</svg>