<svg xmlns="http://www.w3.org/2000/svg" width="62.734" height="62.734" viewBox="0 0 62.734 62.734">
  <path id="strategy" d="M58.127,15,61.17,11.96a1.838,1.838,0,0,0-1.145-3.131L54.38,8.353,53.9,2.709a1.838,1.838,0,0,0-3.131-1.145L47.731,4.606A31.368,31.368,0,0,0,9.186,53.547,31.368,31.368,0,0,0,58.127,15Zm-7.28-4.794a1.839,1.839,0,0,0,1.677,1.677l3.247.274-4.4,4.4-4.794-.4-.4-4.794,4.4-4.4ZM37.615,31.367a6.255,6.255,0,1,1-3.327-5.521l-4.221,4.222a1.838,1.838,0,1,0,2.6,2.6l4.222-4.221a6.207,6.207,0,0,1,.728,2.922Zm-.655-8.193a9.936,9.936,0,1,0,2.6,2.6l5.248-5.248a17.3,17.3,0,1,1-2.6-2.6ZM50.946,50.948A27.691,27.691,0,1,1,11.785,11.787a27.7,27.7,0,0,1,33.263-4.5L42.976,9.361a1.838,1.838,0,0,0-.538,1.253c0,.067,0,.134.006.2l.247,2.932a20.969,20.969,0,1,0,6.295,6.295l2.932.247c.052,0,.1.006.155.006H52.1c.024,0,.048,0,.073,0,.04,0,.08,0,.119-.01l.073-.011c.039-.006.077-.013.115-.022l.072-.018c.037-.01.074-.022.111-.034l.071-.025c.036-.014.071-.029.107-.046l.067-.032c.035-.018.07-.038.1-.058L53.073,20c.036-.024.071-.05.106-.076.016-.012.033-.023.049-.036a1.822,1.822,0,0,0,.144-.129l2.073-2.073a27.7,27.7,0,0,1-4.5,33.263Zm0,0" transform="translate(0.001 0)" fill="#fff"/>
</svg>
