<svg xmlns="http://www.w3.org/2000/svg" width="62.733" height="62.733" viewBox="0 0 62.733 62.733">
  <path id="ui-design" d="M45.854,32.683l1.54-1.54h0l5.432-5.432h0l5.433-5.433h0l2.984-2.984a5.072,5.072,0,0,0,0-7.173l-8.63-8.63a5.072,5.072,0,0,0-7.173,0L30.05,16.88,19.6,6.431a13.728,13.728,0,0,0-6.34-3.6L2.288.056A1.838,1.838,0,0,0,.056,2.289L2.83,13.262a13.727,13.727,0,0,0,3.6,6.34L16.88,30.051,1.485,45.445a5.072,5.072,0,0,0,0,7.173l8.63,8.63a5.072,5.072,0,0,0,7.173,0L25.7,52.833l0,0,0,0,6.972-6.972L46.835,60.006A9.313,9.313,0,0,0,60.006,46.835ZM6.394,12.361,4.375,4.375l7.986,2.019A10.049,10.049,0,0,1,17,9.03l1.449,1.449-7.973,7.973L9.03,17a10.051,10.051,0,0,1-2.636-4.642Zm6.684,8.69,7.973-7.973,6.4,6.4-7.973,7.973ZM13.7,59.058a1.387,1.387,0,0,1-.987-.409l-8.631-8.63a1.4,1.4,0,0,1,0-1.975L48.044,4.085a1.4,1.4,0,0,1,1.975,0l8.63,8.631a1.4,1.4,0,0,1,0,1.975l-1.685,1.685-5.606-5.607a1.838,1.838,0,0,0-2.6,2.6l5.606,5.607L51.53,21.809,48.64,18.92a1.838,1.838,0,1,0-2.6,2.6l2.889,2.889L46.1,27.243l-5.606-5.607a1.838,1.838,0,0,0-2.6,2.6L43.5,29.842l-2.835,2.835-2.889-2.889a1.838,1.838,0,0,0-2.6,2.6l2.889,2.889-2.786,2.786L29.67,32.456a1.838,1.838,0,0,0-2.6,2.6l5.606,5.606L29.842,43.5l-2.889-2.889a1.838,1.838,0,0,0-2.6,2.6L27.243,46.1l-2.835,2.835L18.8,43.324a1.838,1.838,0,1,0-2.6,2.6l5.606,5.606-2.835,2.835-2.889-2.889a1.838,1.838,0,0,0-2.6,2.6l2.889,2.889L14.69,58.649a1.387,1.387,0,0,1-.987.409ZM36.568,41.969l.008-.007.007-.008,5.375-5.375,0,0,0,0,1.292-1.292,7.788,7.788L43.07,51.043l-7.788-7.788ZM57.406,57.407a5.644,5.644,0,0,1-7.973,0l-3.765-3.765,7.973-7.973,3.765,3.765A5.644,5.644,0,0,1,57.406,57.407Z" transform="translate(0)" fill="#fff"/>
</svg>
