<svg xmlns="http://www.w3.org/2000/svg" width="64.57" height="72.515" viewBox="0 0 64.57 72.515">
  <g id="Group_9423" data-name="Group 9423" transform="translate(-3877.555 -4168.985)">
    <path id="Path_223" data-name="Path 223" d="M226.9,81.919V71.987A1.987,1.987,0,0,0,224.917,70h-59.6a1.987,1.987,0,0,0-1.987,1.987v9.933a12.534,12.534,0,0,0,5.96,10.681v17.13h-3.973a1.987,1.987,0,0,0-1.987,1.987v27.811a1.987,1.987,0,0,0,1.987,1.987h59.6a1.987,1.987,0,0,0,1.987-1.987V111.717a1.987,1.987,0,0,0-1.987-1.987h-3.973V92.6A12.534,12.534,0,0,0,226.9,81.919Zm-59.6-7.946H222.93v7.946a8.246,8.246,0,0,1-7.155,8.34,7.984,7.984,0,0,1-7.407-3.508,3.96,3.96,0,0,0-3.284-1.777h-.009a4.055,4.055,0,0,0-3.361,1.81,7.944,7.944,0,0,1-13.188,0,4.061,4.061,0,0,0-3.361-1.808h-.009a3.958,3.958,0,0,0-3.284,1.777,7.966,7.966,0,0,1-7.409,3.507,8.246,8.246,0,0,1-7.154-8.34Zm55.622,63.571H167.307V113.705H222.93Zm-5.96-27.813h-43.7V94.093c.27.046.54.093.815.119A12.136,12.136,0,0,0,185.231,89a11.938,11.938,0,0,0,19.832-.049,11.9,11.9,0,0,0,11.091,5.257c.276-.027.546-.074.817-.119Z" transform="translate(3714.721 4099.485)" fill="#2AA126" stroke="#2AA126" stroke-width="1"/>
    <path id="Path_224" data-name="Path 224" d="M301.6,338.33a9.944,9.944,0,1,0,7.02,2.913,9.932,9.932,0,0,0-7.02-2.913Zm0,15.892h0a5.967,5.967,0,1,1,4.212-1.748,5.96,5.96,0,0,1-4.212,1.748Z" transform="translate(3608.239 3876.845)" fill="#2AA126" stroke="#2AA126" stroke-width="1"/>
  </g>
</svg>