<svg xmlns="http://www.w3.org/2000/svg" xmlns:xlink="http://www.w3.org/1999/xlink" version="1.1" width="1000" height="1000" viewBox="0 0 1000 1000" xml:space="preserve">
<desc>Created with Fabric.js 3.5.0</desc>
<defs>
</defs>
<rect x="0" y="0" width="100%" height="100%" fill="#ffffff"/>
<g transform="matrix(11.3636 0 0 11.3636 499.5016 499.5015)" id="296185">
<path style="stroke: none; stroke-width: 0; stroke-dasharray: none; stroke-linecap: butt; stroke-dashoffset: 0; stroke-linejoin: miter; stroke-miterlimit: 4; is-custom-font: none; font-file-url: none; fill: rgb(255,153,85); fill-rule: evenodd; opacity: 1;" vector-effect="non-scaling-stroke" transform=" translate(-48, -44.0214)" d="M 37.571 9.571 c -0.955 0.956 -1.571 3.308 -1.571 6 V 20 H 25.547 C 7.715 20 8 19.513 8 50 c 0 24.317 0.426 26.962 4.657 28.89 c 3.374 1.537 67.312 1.537 70.686 0 C 87.574 76.962 88 74.317 88 50 c 0 -30.487 0.285 -30 -17.547 -30 H 60 v -4.429 C 60 8.929 58.528 8 48 8 c -6.719 0 -9.237 0.379 -10.429 1.571 M 44 18 c 0 1.667 0.667 2 4 2 s 4 -0.333 4 -2 s -0.667 -2 -4 -2 s -4 0.333 -4 2 M 16 50 v 22 h 64 V 28 h -8 v 8 h -8 v -8 H 32 v 8 h -8 v -8 h -8 v 22 m 38 -8 c -1.1 1.1 -2 2.9 -2 4 s 0.9 2.9 2 4 c 3.585 3.585 10 1.019 10 -4 c 0 -1.1 -0.9 -2.9 -2 -4 s -2.9 -2 -4 -2 s -2.9 0.9 -4 2 m 8.75 13.561 C 57.938 58.014 54 60.226 54 60.477 c 0 0.25 0.741 2.01 1.647 3.909 l 1.647 3.455 l 9.278 -4.609 l 9.277 -4.608 l -1.945 -3.812 c -1.07 -2.097 -2.048 -3.789 -2.174 -3.761 c -0.127 0.027 -4.167 2.057 -8.98 4.51" stroke-linecap="round"/>
</g>
</svg>