<svg width="63" height="63" viewBox="0 0 63 63" fill="none" xmlns="http://www.w3.org/2000/svg">
    <path d="M31.5 2.625L7.875 13.125V28.875C7.875 43.4438 17.955 57.0675 31.5 60.375C45.045 57.0675 55.125 43.4438 55.125 28.875V13.125L31.5 2.625ZM31.5 18.375C35.175 18.375 38.85 21.2625 38.85 24.9375V28.875C40.425 28.875 42 30.45 42 32.2875V41.475C42 43.05 40.425 44.625 38.5875 44.625H24.15C22.575 44.625 21 43.05 21 41.2125V32.025C21 30.45 22.575 28.875 24.15 28.875V24.9375C24.15 21.2625 27.825 18.375 31.5 18.375ZM31.5 21.525C29.4 21.525 27.5625 22.8375 27.5625 24.9375V28.875H35.4375V24.9375C35.4375 22.8375 33.6 21.525 31.5 21.525Z" fill="#2AA126"/>
</svg>