<svg width="63" height="63" viewBox="0 0 63 63" fill="none" xmlns="http://www.w3.org/2000/svg">
    <path d="M59.0626 11.8126C59.0565 9.77045 58.2557 7.81092 56.83 6.34894C55.4042 4.88696 53.4653 4.03735 51.424 3.98003C49.3827 3.92271 47.3992 4.66218 45.8937 6.04184C44.3881 7.42151 43.4786 9.33302 43.3579 11.3716L18.8726 16.2678C18.3001 15.078 17.4369 14.0516 16.3628 13.2836C15.2887 12.5156 14.0383 12.0308 12.7272 11.8739C11.4161 11.717 10.0867 11.8932 8.86167 12.3861C7.63668 12.879 6.55571 13.6727 5.71866 14.6939C4.88161 15.7151 4.3155 16.9309 4.07263 18.2288C3.82977 19.5267 3.918 20.8649 4.32917 22.1196C4.74034 23.3744 5.46118 24.5053 6.42506 25.4078C7.38895 26.3103 8.56477 26.9552 9.84387 27.283V43.5921C8.5004 43.9364 7.27195 44.63 6.28327 45.6026C5.29458 46.5752 4.58086 47.7921 4.21459 49.1297C3.84831 50.4674 3.84252 51.8781 4.19781 53.2187C4.55309 54.5593 5.2568 55.782 6.23747 56.7627C7.21814 57.7434 8.44085 58.4471 9.78145 58.8024C11.122 59.1576 12.5328 59.1519 13.8704 58.7856C15.2081 58.4193 16.425 57.7056 17.3976 56.7169C18.3701 55.7282 19.0638 54.4998 19.4081 53.1563H35.7172C36.0445 54.4362 36.6892 55.613 37.5917 56.5777C38.4943 57.5425 39.6255 58.2641 40.8809 58.6758C42.1362 59.0875 43.4751 59.1761 44.7737 58.9333C46.0723 58.6904 47.2887 58.1241 48.3105 57.2866C49.3322 56.4491 50.1263 55.3675 50.6193 54.1419C51.1123 52.9162 51.2882 51.586 51.1309 50.2742C50.9736 48.9625 50.4881 47.7116 49.7193 46.6373C48.9505 45.5629 47.9231 44.6998 46.7323 44.1276L51.6286 19.6423C53.6329 19.5323 55.5192 18.6601 56.9013 17.2044C58.2834 15.7488 59.0566 13.8198 59.0626 11.8126ZM51.1876 7.87506C51.9664 7.87506 52.7277 8.10599 53.3752 8.53865C54.0227 8.97131 54.5274 9.58626 54.8254 10.3057C55.1234 11.0252 55.2014 11.8169 55.0495 12.5807C54.8975 13.3445 54.5225 14.0461 53.9719 14.5968C53.4212 15.1475 52.7196 15.5225 51.9558 15.6744C51.192 15.8263 50.4003 15.7484 49.6808 15.4503C48.9613 15.1523 48.3464 14.6476 47.9137 14.0001C47.4811 13.3526 47.2501 12.5913 47.2501 11.8126C47.2501 10.7683 47.665 9.76675 48.4034 9.02833C49.1418 8.2899 50.1433 7.87506 51.1876 7.87506ZM7.87512 19.6876C7.87512 18.9088 8.10605 18.1475 8.53871 17.5C8.97136 16.8525 9.58632 16.3478 10.3058 16.0498C11.0253 15.7518 11.817 15.6738 12.5808 15.8257C13.3446 15.9776 14.0462 16.3527 14.5969 16.9033C15.1475 17.454 15.5225 18.1556 15.6745 18.9194C15.8264 19.6832 15.7484 20.4749 15.4504 21.1944C15.1524 21.9139 14.6477 22.5288 14.0002 22.9615C13.3527 23.3941 12.5914 23.6251 11.8126 23.6251C10.7683 23.6251 9.76681 23.2102 9.02838 22.4718C8.28996 21.7334 7.87512 20.7318 7.87512 19.6876ZM11.8126 55.125C11.0339 55.125 10.2726 54.8941 9.62506 54.4615C8.97754 54.0288 8.47286 53.4138 8.17484 52.6944C7.87682 51.9749 7.79885 51.1832 7.95077 50.4194C8.1027 49.6556 8.47771 48.954 9.02838 48.4033C9.57905 47.8526 10.2806 47.4776 11.0444 47.3257C11.8082 47.1738 12.5999 47.2518 13.3194 47.5498C14.0389 47.8478 14.6539 48.3525 15.0865 49C15.5192 49.6475 15.7501 50.4088 15.7501 51.1875C15.7501 52.2318 15.3353 53.2334 14.5969 53.9718C13.8584 54.7102 12.8569 55.125 11.8126 55.125ZM35.7172 49.2188H19.4081C19.0543 47.8658 18.3466 46.6314 17.3577 45.6425C16.3688 44.6536 15.1344 43.9459 13.7814 43.5921V27.283C15.3895 26.8638 16.8232 25.9453 17.8764 24.6597C18.9295 23.3742 19.5478 21.7877 19.6423 20.1286L44.1277 15.2323C44.8987 16.82 46.1806 18.1026 47.7679 18.8745L42.8716 43.3578C41.2124 43.4524 39.626 44.0707 38.3404 45.1238C37.0549 46.177 36.1364 47.6107 35.7172 49.2188ZM43.3126 55.125C42.5339 55.125 41.7726 54.8941 41.1251 54.4615C40.4775 54.0288 39.9729 53.4138 39.6749 52.6944C39.3768 51.9749 39.2989 51.1832 39.4508 50.4194C39.6027 49.6556 39.9777 48.954 40.5284 48.4033C41.0791 47.8526 41.7807 47.4776 42.5445 47.3257C43.3083 47.1738 44.1 47.2518 44.8194 47.5498C45.5389 47.8478 46.1539 48.3525 46.5865 49C47.0192 49.6475 47.2501 50.4088 47.2501 51.1875C47.2501 52.2318 46.8353 53.2334 46.0969 53.9718C45.3584 54.7102 44.3569 55.125 43.3126 55.125Z" fill="#2AA126"/>
</svg>