<svg width="63" height="63" viewBox="0 0 63 63" fill="none" xmlns="http://www.w3.org/2000/svg">
    <path d="M17.7188 21.6562C17.7188 18.0012 19.1707 14.4959 21.7552 11.9114C24.3397 9.32689 27.845 7.87494 31.5 7.87494C35.155 7.87494 38.6603 9.32689 41.2448 11.9114C43.8293 14.4959 45.2812 18.0012 45.2812 21.6562C45.2812 22.1783 45.4887 22.6791 45.8579 23.0483C46.2271 23.4175 46.7279 23.6249 47.25 23.6249C47.7721 23.6249 48.2729 23.4175 48.6421 23.0483C49.0113 22.6791 49.2188 22.1783 49.2188 21.6562C49.2185 18.6344 48.4454 15.6629 46.973 13.0241C45.5007 10.3853 43.3779 8.16694 40.8065 6.5798C38.2351 4.99266 35.3005 4.08952 32.2817 3.95622C29.2628 3.82291 26.2601 4.46388 23.5588 5.81818C20.8575 7.17249 18.5474 9.19514 16.8482 11.6939C15.1489 14.1926 14.117 17.0844 13.8503 20.0944C13.5837 23.1044 14.0914 26.1326 15.3249 28.8911C16.5585 31.6496 18.4771 34.0468 20.8983 35.8548C22.9745 37.4058 25.3656 38.4824 27.9031 39.0088C28.2556 39.7994 28.8588 40.4518 29.6194 40.8652C30.38 41.2785 31.2556 41.4296 32.1107 41.2952C32.9659 41.1608 33.7529 40.7483 34.3501 40.1216C34.9472 39.4949 35.3212 38.6889 35.4141 37.8282C35.5071 36.9676 35.3138 36.1003 34.8642 35.3606C34.4147 34.6208 33.7339 34.0498 32.9271 33.7359C32.1204 33.422 31.2327 33.3827 30.4014 33.6241C29.5701 33.8655 28.8415 34.3741 28.3283 35.0713C25.3075 34.3569 22.6163 32.6435 20.6907 30.2087C18.7651 27.774 17.7179 24.7604 17.7188 21.6562ZM19.6875 21.6562C19.6883 19.4831 20.2885 17.3523 21.4221 15.4983C22.5558 13.6443 24.1789 12.1389 26.1129 11.1478C28.0468 10.1568 30.2167 9.71842 32.3838 9.881C34.5508 10.0436 36.631 10.8008 38.3954 12.0693C40.1599 13.3379 41.5402 15.0686 42.3845 17.071C43.2288 19.0734 43.5044 21.2699 43.1809 23.4188C42.8574 25.5677 41.9474 27.5857 40.551 29.2508C39.1546 30.9159 37.3259 32.1636 35.2662 32.8564C34.207 31.9796 32.875 31.4999 31.5 31.5C30.0687 31.5 28.7575 32.0099 27.7338 32.8564C25.3885 32.0675 23.3502 30.562 21.9065 28.5524C20.4628 26.5428 19.6866 24.1306 19.6875 21.6562ZM31.5 43.3125C32.4451 43.313 33.3766 43.0866 34.2161 42.6525C35.0557 42.2183 35.7788 41.589 36.3246 40.8174C36.8705 40.0459 37.2233 39.1546 37.3532 38.2184C37.4832 37.2822 37.3866 36.3285 37.0716 35.4375H48.2344C50.0619 35.4375 51.8145 36.1634 53.1068 37.4557C54.399 38.7479 55.125 40.5006 55.125 42.3281V43.3125C55.125 48.0237 52.1266 52.0084 47.8702 54.7174C43.5901 57.4422 37.7961 59.0625 31.5 59.0625C25.2039 59.0625 19.4119 57.4422 15.1298 54.7174C10.8734 52.0084 7.875 48.0237 7.875 43.3125V42.3281C7.875 40.5006 8.60097 38.7479 9.89322 37.4557C11.1855 36.1634 12.9381 35.4375 14.7656 35.4375H17.4412C19.9591 38.0084 23.1335 39.8401 26.6195 40.7334C27.6826 42.2907 29.4742 43.3125 31.5 43.3125Z" fill="#2AA126"/>
</svg>