<svg width="40" height="40" viewBox="0 0 40 40" fill="none" xmlns="http://www.w3.org/2000/svg">
<path fill-rule="evenodd" clip-rule="evenodd" d="M22.0816 13.6562H25.9074C25.8201 13.5594 25.7328 13.4651 25.643 13.3707L27.0372 11.7856C27.2612 12.0621 27.4851 12.3392 27.7091 12.6163C27.934 12.8946 28.159 13.1729 28.3839 13.4505C28.7381 13.7095 29.3167 13.7119 29.8928 13.7095C31.5064 13.6998 31.9803 13.2545 31.9878 11.7227C31.9884 11.5995 31.9889 11.4764 31.9895 11.3532C31.9966 9.82354 32.0037 8.29389 31.9853 6.76424C31.9703 5.52039 31.4516 5.0243 30.1572 5.0122C28.8387 5.00024 27.5189 5.00276 26.1987 5.00527C25.6486 5.00631 25.0983 5.00736 24.5481 5.00736C22.3858 5.00978 22.1314 5.23242 21.9544 7.3426C20.9094 7.62332 20.0464 8.14844 20.044 9.35357C20.0415 10.5635 20.9044 11.0911 22.0816 11.4057V13.6562ZM31.0051 11.1008C31.0027 12.7947 31.0027 12.7947 29.0773 12.7003C28.7979 11.6501 28.2592 10.8612 27.0771 10.8297C25.7902 10.7934 25.1941 11.6356 24.9422 12.6931H23.0118V10.399C22.8356 10.3725 22.6484 10.3597 22.4628 10.347C21.7157 10.296 20.9935 10.2467 21.1114 9.31243C21.1525 8.99152 21.6175 8.72087 22.0825 8.45024C22.2942 8.32702 22.5059 8.2038 22.6776 8.07584L22.8796 8.31542C22.8914 8.29335 22.9059 8.27152 22.9204 8.2497C22.9519 8.20214 22.9835 8.15465 22.9869 8.10488C23.0461 7.04488 23.0755 6.50952 23.3582 6.23914C23.6467 5.96324 24.199 5.96324 25.3163 5.96324C25.7661 5.96324 26.2157 5.96573 26.6651 5.96821C27.7507 5.97423 28.8355 5.98023 29.9202 5.95114C30.7208 5.93178 31.0426 6.20039 31.0176 6.99655C30.986 7.96007 30.9927 8.9248 30.9994 9.88903C31.0023 10.2931 31.0051 10.697 31.0051 11.1008ZM23.2609 24.6693C25.8073 22.6147 27.0842 20.0036 26.9895 16.6181H24.1114C23.8146 15.5582 23.2958 14.7451 22.1137 14.6991C20.8093 14.6459 20.2407 15.5146 19.9464 16.5262H17.9935V14.2901C17.9504 14.3283 17.9073 14.3659 17.8641 14.4034C17.8225 14.4397 17.7808 14.4759 17.7392 14.5128C17.4661 14.319 17.1935 14.1258 16.921 13.9326C16.6286 13.7253 16.3363 13.518 16.0432 13.3101C16.3879 13.0145 16.7325 12.7179 17.1258 12.3796C17.3699 12.1695 17.6329 11.9433 17.9262 11.6911V7.91601C13.6639 7.73694 10.317 9.16228 8.27687 12.7849C6.32655 16.2527 6.63082 19.7035 9.05001 22.8688C9.61319 23.606 10.3492 24.2185 11.0843 24.8304C11.3941 25.0883 11.7039 25.3461 12.0004 25.613C12.7237 26.2616 12.8758 26.9029 12.0902 27.6264C11.4193 28.2459 11.4093 28.9138 11.9206 29.6785C12.584 30.6731 13.235 31.6871 13.7537 32.7567C14.4171 34.1215 15.5469 34.983 16.991 35C18.4849 35.0193 19.6571 34.1675 20.313 32.7131C20.372 32.5822 20.4304 32.4499 20.4891 32.3169C20.8546 31.4887 21.2302 30.6379 21.8169 29.981C22.6399 29.059 22.6823 28.4323 21.8892 27.4861C21.5999 27.14 21.7246 26.264 21.964 25.7655C22.1167 25.4475 22.4619 25.2188 22.8079 24.9896C22.9647 24.8857 23.1217 24.7818 23.2609 24.6693ZM18.026 27.2029V22.4986C17.8491 22.472 17.661 22.4593 17.4746 22.4467C16.7283 22.3964 16.0073 22.3478 16.123 21.4144C16.1642 21.0918 16.6306 20.8205 17.0965 20.5497C17.3084 20.4264 17.5202 20.3033 17.6918 20.1754C17.7467 20.2166 17.8009 20.2577 17.8552 20.2989C17.9094 20.34 17.9637 20.3812 18.0185 20.4223V17.5837H20.944C20.9712 17.4124 20.9844 17.2309 20.9976 17.051C21.0508 16.3234 21.102 15.6223 22.0638 15.7348C22.3952 15.7732 22.6757 16.2256 22.9559 16.6775C23.0827 16.882 23.2094 17.0863 23.3407 17.2521L23.0863 17.5643H25.9894C25.8597 19.8124 25.0441 21.6322 23.4978 23.1374C23.0315 23.5924 22.5401 24.0377 22.0014 24.4079C21.0138 25.0831 20.1509 25.7897 20.5923 27.2029H18.026ZM15.0531 21.4822C15.078 22.6849 15.946 23.1979 16.986 23.4762C16.986 24.737 16.986 25.9325 16.9835 27.1981H13.4819C13.962 25.7872 13.0547 25.1288 12.1413 24.4659C12.0583 24.4057 11.9753 24.3454 11.8932 24.2845C9.65357 22.622 8.23198 20.5142 8.06987 17.5861H11.9406C11.8957 17.5292 11.8508 17.473 11.8059 17.4167C11.761 17.3604 11.7161 17.3041 11.6712 17.2473C12.1198 16.7348 12.5707 16.2224 13.0216 15.7099L13.0679 15.6574C13.2831 15.9181 13.4982 16.1782 13.7134 16.4383C13.9297 16.6997 14.146 16.9611 14.3623 17.2231C14.3031 17.2929 14.2449 17.3638 14.1865 17.4349C14.1538 17.4748 14.121 17.5147 14.0879 17.5546H16.9635V19.4228C15.9834 19.7229 15.0282 20.2166 15.0531 21.4822ZM13.0055 14.6991C11.781 14.7281 11.2198 15.5461 10.9754 16.5721H8.16713C8.36915 12.2162 12.5466 8.58876 16.966 8.95659V11.195C15.9884 11.4975 15.0282 11.9888 15.0556 13.2568C15.0805 14.4547 15.941 14.9774 16.9935 15.2484V16.5576H15.1354C14.8311 15.5848 14.3074 14.6676 13.0055 14.6991ZM17.9434 29.2062C17.6141 29.204 17.2849 29.2018 16.956 29.2018C16.6343 29.2018 16.3126 29.2037 15.9909 29.2056C15.1131 29.2108 14.2357 29.2161 13.3597 29.1824C13.1801 29.1758 13.0052 29.0497 12.8302 28.9235C12.75 28.8656 12.6697 28.8078 12.589 28.7614C12.6739 28.7052 12.7585 28.6338 12.8431 28.5625C13.0246 28.4094 13.2059 28.2565 13.3896 28.2532C15.8287 28.2121 18.2704 28.2169 20.7095 28.2484C20.8872 28.25 21.0625 28.3777 21.2379 28.5054C21.3186 28.5641 21.3993 28.6229 21.4802 28.6694C21.3958 28.7253 21.3119 28.7954 21.228 28.8656C21.0465 29.0174 20.8647 29.1693 20.6771 29.1776C19.7683 29.2185 18.8554 29.2124 17.9434 29.2062ZM17.1231 34.0368C15.9535 34.0804 15.108 33.4343 14.7339 32.1614H19.2904C19.0535 33.3181 18.2679 33.9933 17.1231 34.0368ZM16.9261 31.1378V31.1329C16.6932 31.1329 16.4603 31.1346 16.2275 31.1364C15.5503 31.1414 14.8738 31.1465 14.2002 31.1087C14.053 31.1004 13.914 30.9679 13.7752 30.8355C13.7117 30.775 13.6483 30.7145 13.5841 30.6659C13.6458 30.6137 13.7072 30.5477 13.7685 30.4817C13.9009 30.3395 14.0331 30.1973 14.1677 30.194C16.0682 30.1577 17.9686 30.1577 19.8666 30.1916C20.0098 30.1949 20.1496 30.3294 20.289 30.4637C20.3535 30.5258 20.4179 30.5878 20.4826 30.6368C20.4071 30.69 20.3326 30.7565 20.2583 30.8228C20.0992 30.9647 19.9408 31.1061 19.7743 31.116C19.0884 31.1563 18.3985 31.1496 17.7086 31.1429C17.4477 31.1403 17.1868 31.1378 16.9261 31.1378Z" fill="url(#paint0_linear_139_162)"/>
<defs>
<linearGradient id="paint0_linear_139_162" x1="7.5" y1="6.5" x2="27" y2="34" gradientUnits="userSpaceOnUse">
<stop stop-color="#EC9F05"/>
<stop offset="1" stop-color="#FF4E00"/>
</linearGradient>
</defs>
</svg>
