<svg width="40" height="40" viewBox="0 0 40 40" fill="none" xmlns="http://www.w3.org/2000/svg">
<path fill-rule="evenodd" clip-rule="evenodd" d="M20.8023 34.9919H20.8023H20.8022H20.8022H20.8022H20.8022H20.8021H20.8021H20.8021H20.8021H20.8021C20.2058 35.0033 19.626 35.0143 19.0548 34.949C18.8094 34.9206 18.4047 34.4856 18.4178 34.2568C18.5209 32.6077 17.9308 31.6016 16.2504 31.1666C15.4729 30.9661 14.7405 30.3969 14.1167 29.8465C13.5734 29.3662 13.1987 29.4702 12.6536 29.7671C12.3987 29.9057 12.1842 30.0286 12.0014 30.1334L12.0014 30.1335C11.477 30.434 11.2123 30.5857 10.9979 30.533C10.7793 30.4793 10.6129 30.2134 10.2769 29.6764L10.2769 29.6764C10.1746 29.5129 10.0566 29.3243 9.91664 29.109L9.69029 28.7593L9.69026 28.7593C9.11792 27.8749 8.54527 26.99 7.94777 26.1228C7.59745 25.6141 7.56373 25.1848 8.13884 24.8727C9.44456 24.1654 9.85669 23.2368 9.45955 21.6879C9.26904 20.9468 9.32061 20.1447 9.37244 19.3384C9.40063 18.8999 9.42889 18.4602 9.41833 18.0285C9.41084 17.7164 9.2591 17.3401 9.04554 17.1188C8.82675 16.8928 8.55465 16.7197 8.28236 16.5465C8.15599 16.4661 8.02957 16.3856 7.90843 16.2999C6.78598 15.508 6.78629 15.5075 7.44341 14.3607L7.44946 14.3501C7.60898 14.0718 7.76927 13.794 7.92956 13.5161L7.92959 13.516L7.92962 13.516L7.92974 13.5158C8.47531 12.5699 9.02094 11.624 9.53635 10.6623C9.82297 10.129 10.1396 9.97767 10.6379 10.3313C11.9998 11.2958 13.1556 11.2731 14.4145 9.97578C14.9855 9.38745 15.8028 9.02904 16.6038 8.67775C16.8224 8.58187 17.0398 8.48653 17.2507 8.38718C17.7303 8.16212 17.9682 7.9314 18.0001 7.36971C18.1349 4.99624 18.1537 4.99626 20.516 5.00004L20.5216 5.00005H21.5182V15.2844C19.9577 15.3335 18.5246 15.8555 17.7022 17.2266C17.1796 18.0985 16.7824 19.2086 16.7861 20.2109C16.7936 22.73 18.6801 24.4283 21.5107 24.6912C21.5088 28.0631 21.5088 31.4446 21.5088 34.983C21.2706 34.983 21.0353 34.9875 20.8025 34.9919H20.8024H20.8024H20.8024H20.8024H20.8024H20.8023H20.8023H20.8023ZM20.0645 33.7972L20.2294 33.6875L20.3942 33.5779C20.3942 33.0583 20.395 32.5387 20.3958 32.0192C20.3986 30.1162 20.4014 28.2134 20.3661 26.3119C20.3623 26.102 19.9914 25.8013 19.7329 25.7105C17.1027 24.7895 15.5254 22.6619 15.5292 19.9821C15.5329 17.3079 17.1027 15.152 19.7629 14.3028C20.3136 14.1269 20.4111 13.8697 20.4036 13.3724C20.3888 12.1236 20.3914 10.8759 20.394 9.62774L20.394 9.62658C20.3951 9.14167 20.3961 8.6567 20.3961 8.17158V6.26715C20.1291 6.28475 19.9179 6.29915 19.7264 6.31221L19.7264 6.31221L19.7263 6.31222L19.7263 6.31222L19.7263 6.31222L19.7261 6.31223C19.5885 6.32162 19.4609 6.33031 19.3301 6.33901L19.1913 7.75361L19.0604 9.08692C16.6775 9.72047 14.6749 10.9951 13.0695 12.8447C12.1497 12.4305 11.3085 12.0504 10.4318 11.6533L10.2858 11.9094C9.76377 12.8252 9.2821 13.6702 8.80201 14.5184C8.72506 14.6544 8.65316 14.7933 8.57003 14.954L8.56996 14.9542C8.53977 15.0125 8.5081 15.0737 8.47417 15.1387C8.65892 15.2711 8.84016 15.4042 9.01985 15.5362C9.45599 15.8564 9.88299 16.17 10.3288 16.4512C10.7877 16.7425 10.8833 17.0451 10.8158 17.6105C10.6679 18.8511 10.5948 20.1145 10.6491 21.3608C10.6655 21.7207 10.7833 22.0967 10.8987 22.4655C11.0605 22.9821 11.2179 23.4844 11.0856 23.9082C10.9305 24.4015 10.4203 24.7813 9.89307 25.1738L9.89304 25.1739C9.65624 25.3502 9.41598 25.529 9.2029 25.7219C9.91289 26.8074 10.6285 27.9005 11.3703 29.0333C11.544 28.9412 11.714 28.8561 11.8797 28.7732C12.2448 28.5905 12.5889 28.4183 12.9046 28.205C13.4273 27.8532 13.7682 27.9402 14.2778 28.3298C14.3679 28.3985 14.4583 28.4679 14.5492 28.5376C15.4516 29.2299 16.3927 29.952 17.4343 30.2853C18.9499 30.7713 19.8097 31.4276 19.5587 33.141C19.5367 33.2713 19.6998 33.4295 19.8622 33.587C19.9354 33.6581 20.0086 33.729 20.0645 33.7972ZM24.945 19.5663H24.9451C26.2788 19.5636 27.613 19.5608 28.9461 19.5869C29.0994 19.5895 29.251 19.7073 29.4027 19.8252C29.4733 19.8801 29.544 19.935 29.6149 19.9783C29.5441 20.0216 29.4732 20.0767 29.4024 20.1318C29.2503 20.2502 29.0982 20.3685 28.9461 20.3698C25.4879 20.3944 22.0279 20.3944 18.5697 20.3717C18.4031 20.3704 18.2383 20.2656 18.0733 20.1607C17.9972 20.1123 17.921 20.0639 17.8447 20.0256C17.9208 19.9773 17.9968 19.9165 18.0728 19.8556C18.238 19.7233 18.4035 19.5907 18.5716 19.5869C19.8552 19.5585 21.1398 19.5621 22.4247 19.5656L22.4256 19.5656C22.8544 19.5668 23.2832 19.568 23.712 19.568C24.1225 19.568 24.5331 19.5672 24.9438 19.5663H24.9439H24.9441H24.9442H24.9444H24.9445H24.9447H24.9448H24.945ZM20.2897 21.1214L20.2885 21.1214C19.5815 21.1247 18.8744 21.128 18.1674 21.128L18.1159 21.2554C18.0825 21.3383 18.049 21.4213 18.0156 21.5025C18.1223 21.5456 18.2291 21.6001 18.3359 21.6546C18.5665 21.7723 18.7973 21.8901 19.0291 21.894C21.0841 21.9318 23.1411 21.9318 25.198 21.9053C25.2671 21.9044 25.3363 21.9029 25.4054 21.9014L25.4057 21.9014L25.4059 21.9014L25.4062 21.9014L25.4065 21.9014L25.4067 21.9013L25.407 21.9013C26.3484 21.8807 27.2645 21.8606 27.5715 23.3804C27.6768 23.226 27.7809 23.0886 27.8686 22.9729L27.8687 22.9728C28.0226 22.7696 28.1259 22.6333 28.096 22.5899C28.0133 22.4682 27.9277 22.3265 27.8398 22.1809C27.5574 21.7132 27.2507 21.2053 26.9364 21.1923C24.724 21.1006 22.5072 21.111 20.2902 21.1214H20.2901H20.29H20.29H20.2899H20.2899H20.2898H20.2898H20.2897ZM28.54 17.1301C28.2215 18.6242 27.4591 19.0648 26.1684 18.9986C24.5028 18.9133 22.8325 18.9314 21.1622 18.9495C20.4635 18.957 19.7648 18.9646 19.0665 18.9646H18.1505L18.0924 18.7867L18.0381 18.6204C18.1382 18.5749 18.238 18.5176 18.3377 18.4602C18.5532 18.3363 18.7682 18.2126 18.986 18.21C21.4157 18.176 23.8473 18.1703 26.277 18.2043C26.9533 18.2138 27.4666 18.1117 27.8169 17.4516C27.8834 17.3251 28.08 17.2699 28.2774 17.2146C28.3691 17.1889 28.4609 17.1631 28.54 17.1301ZM23.493 13.535C23.4256 14.3198 24.0887 15.0952 24.8718 15.1501C25.6473 15.2049 26.3948 14.5241 26.4323 13.7241C26.4735 12.909 25.8197 12.1923 25.0123 12.1601C24.2555 12.1317 23.5605 12.7615 23.493 13.535ZM25.4988 13.3386C25.619 13.4299 25.7555 13.5337 25.9134 13.6352C25.7611 13.7388 25.6321 13.8406 25.5182 13.9305L25.5181 13.9305L25.5181 13.9306L25.5181 13.9306L25.518 13.9306L25.518 13.9307L25.518 13.9307C25.2929 14.1083 25.1271 14.2392 24.958 14.2442C24.7575 14.2499 24.3604 13.866 24.3866 13.7147C24.4334 13.4537 24.7182 13.0868 24.9448 13.0527C25.0932 13.0303 25.2653 13.1611 25.4988 13.3386ZM32.9996 20.0387C33.0089 20.8727 32.3495 21.546 31.529 21.5422C30.7497 21.5384 30.1053 20.9068 30.0716 20.1143C30.0378 19.2955 30.6954 18.5881 31.5047 18.5711C32.3308 18.5541 32.9921 19.2028 32.9996 20.0387ZM31.5215 19.1063C31.4265 19.2604 31.3318 19.3921 31.248 19.5088C31.0807 19.7416 30.9564 19.9147 30.9576 20.086C30.9595 20.2864 31.3548 20.676 31.499 20.6439C31.7613 20.5834 32.1229 20.2902 32.151 20.0595C32.1682 19.909 32.0282 19.7405 31.8397 19.5135C31.7417 19.3955 31.6305 19.2616 31.5215 19.1063ZM29.3489 16.9542C30.1638 16.9939 30.8663 16.3395 30.8887 15.5187C30.9131 14.698 30.2574 14.0247 29.4238 14.0152C28.5902 14.0058 27.9307 14.6564 27.9326 15.4866C27.9364 16.2563 28.5714 16.9163 29.3489 16.9542ZM29.7289 15.9996L29.7289 15.9996C29.6454 16.1227 29.5498 16.2636 29.4538 16.4303C29.3387 16.2685 29.2226 16.1307 29.1216 16.0108L29.1216 16.0107C28.9333 15.7872 28.7973 15.6257 28.8168 15.4866C28.8506 15.2407 29.1821 14.9438 29.4425 14.8644C29.5718 14.8247 29.9783 15.2143 29.9933 15.4299C30.0056 15.5917 29.8897 15.7626 29.7289 15.9996ZM30.3702 24.6704C30.3795 25.512 29.7482 26.1512 28.9052 26.155C28.0791 26.1569 27.4159 25.4912 27.4309 24.6704C27.444 23.878 28.0604 23.2577 28.8603 23.2331C29.6976 23.2085 30.3608 23.8402 30.3702 24.6704ZM28.8715 23.7475C28.7767 23.9079 28.6817 24.0441 28.5982 24.1638C28.4375 24.3943 28.3196 24.5635 28.3282 24.7253C28.3395 24.9409 28.7348 25.338 28.864 25.3021C29.1282 25.2283 29.4766 24.939 29.5103 24.6988C29.5313 24.5558 29.3911 24.3892 29.199 24.1607C29.0988 24.0416 28.9845 23.9057 28.8715 23.7475ZM24.9916 28.2598C25.8233 28.2485 26.4546 27.5866 26.4321 26.7488C26.4097 25.9204 25.7353 25.3039 24.8923 25.3417C24.0924 25.3777 23.4798 26.0112 23.4854 26.8017C23.491 27.632 24.1504 28.2712 24.9916 28.2598ZM25.4999 26.4862C25.6188 26.5781 25.753 26.682 25.9076 26.7828C25.7595 26.8867 25.6333 26.9891 25.5213 27.08L25.5212 27.0801L25.5212 27.0801C25.2948 27.2639 25.1264 27.4006 24.9522 27.4069C24.7574 27.4145 24.3621 27.023 24.3865 26.8585C24.4239 26.6013 24.718 26.2268 24.9447 26.1947C25.0957 26.1734 25.2687 26.3073 25.4999 26.4862ZM25.299 15.5831V17.3986H19.1357C19.719 16.6301 20.4599 16.6595 21.183 16.6882H21.183C21.3656 16.6955 21.5471 16.7027 21.7247 16.697C22.3773 16.6756 23.0317 16.6806 23.6544 16.6854H23.6544H23.6546C23.913 16.6874 24.166 16.6894 24.4111 16.6894C24.5311 16.5398 24.5398 16.3306 24.548 16.132C24.5632 15.7632 24.577 15.4307 25.299 15.5831ZM22.4903 23.4356C23.1582 23.411 23.828 23.3862 24.4764 23.5413C24.5526 23.6727 24.556 23.856 24.5592 24.0346C24.5662 24.4136 24.5728 24.7719 25.2744 24.5701V22.7375H19.291C20.2808 23.5173 21.3828 23.4766 22.4903 23.4356Z" fill="url(#paint0_linear_139_160)"/>
<defs>
<linearGradient id="paint0_linear_139_160" x1="5" y1="4.5" x2="27.5" y2="35.5" gradientUnits="userSpaceOnUse">
<stop stop-color="#EC9F05"/>
<stop offset="1" stop-color="#FF4E00"/>
</linearGradient>
</defs>
</svg>
