<?xml version="1.0" encoding="UTF-8" standalone="no"?>
<svg
   width="24px"
   height="24px"
   viewBox="0 0 24 24"
   mirror-in-rtl="true"
   version="1.1"
   id="svg1184"
   sodipodi:docname="reporting.svg"
   inkscape:version="1.2.1 (9c6d41e4, 2022-07-14)"
   xmlns:inkscape="http://www.inkscape.org/namespaces/inkscape"
   xmlns:sodipodi="http://sodipodi.sourceforge.net/DTD/sodipodi-0.dtd"
   xmlns="http://www.w3.org/2000/svg"
   xmlns:svg="http://www.w3.org/2000/svg">
  <defs
     id="defs1188" />
  <sodipodi:namedview
     id="namedview1186"
     pagecolor="#505050"
     bordercolor="#eeeeee"
     borderopacity="1"
     inkscape:showpageshadow="0"
     inkscape:pageopacity="0"
     inkscape:pagecheckerboard="0"
     inkscape:deskcolor="#505050"
     showgrid="false"
     inkscape:zoom="9.8333333"
     inkscape:cx="11.949153"
     inkscape:cy="12"
     inkscape:window-width="1280"
     inkscape:window-height="456"
     inkscape:window-x="0"
     inkscape:window-y="25"
     inkscape:window-maximized="0"
     inkscape:current-layer="svg1184" />
  <path
     fill="#494c4e"
     d="M19 0H5C3.9 0 3 .9 3 2v20c0 1.1.9 2 2 2h14c1.1 0 2-.9 2-2V2c0-1.1-.9-2-2-2zm0 21.5c0 .28-.22.5-.5.5h-13c-.28 0-.5-.22-.5-.5v-19c0-.28.22-.5.5-.5h13c.28 0 .5.22.5.5v19z"
     id="path1178"
     style="fill:#2AA126" />
  <path
     fill="#494c4e"
     d="M12 20c-.553 0-1-.445-1-.994v-6.01c0-.55.447-.996 1-.996s1 .445 1 .994v6.01c0 .55-.447.996-1 .996zM8 20c-.553 0-1-.44-1-.983v-3.033C7 15.44 7.447 15 8 15s1 .44 1 .983v3.033C9 19.56 8.553 20 8 20zM16 20c-.553 0-1-.447-1-1V6c0-.552.447-1 1-1s1 .448 1 1v13c0 .553-.447 1-1 1zM7 7.5C7 8.88 8.12 10 9.5 10S12 8.88 12 7.5H9.5V5C8.12 5 7 6.12 7 7.5z"
     id="path1180"
     style="fill:#2AA126" />
  <path
     fill="#494c4e"
     d="M13 6.5h-2.5V4C11.88 4 13 5.12 13 6.5z"
     id="path1182"
     style="fill:#2AA126" />
</svg>