<svg width="26" height="26" viewBox="0 0 26 26" fill="none" xmlns="http://www.w3.org/2000/svg">
<path d="M2.16602 13.0002C2.16602 8.91491 2.16602 6.87175 3.43568 5.60316C4.70427 4.3335 6.74743 4.3335 10.8327 4.3335H15.166C19.2513 4.3335 21.2944 4.3335 22.563 5.60316C23.8327 6.87175 23.8327 8.91491 23.8327 13.0002V15.1668C23.8327 19.2521 23.8327 21.2952 22.563 22.5638C21.2944 23.8335 19.2513 23.8335 15.166 23.8335H10.8327C6.74743 23.8335 4.70427 23.8335 3.43568 22.5638C2.16602 21.2952 2.16602 19.2521 2.16602 15.1668V13.0002Z" stroke="black" stroke-width="1.5"/>
<path d="M7.58203 4.3335V2.7085M18.4154 4.3335V2.7085M2.70703 9.75016H23.2904" stroke="black" stroke-width="1.5" stroke-linecap="round"/>
<path d="M19.5 18.4167C19.5 18.704 19.3859 18.9795 19.1827 19.1827C18.9795 19.3859 18.704 19.5 18.4167 19.5C18.1293 19.5 17.8538 19.3859 17.6506 19.1827C17.4475 18.9795 17.3333 18.704 17.3333 18.4167C17.3333 18.1293 17.4475 17.8538 17.6506 17.6506C17.8538 17.4475 18.1293 17.3333 18.4167 17.3333C18.704 17.3333 18.9795 17.4475 19.1827 17.6506C19.3859 17.8538 19.5 18.1293 19.5 18.4167ZM19.5 14.0833C19.5 14.3707 19.3859 14.6462 19.1827 14.8494C18.9795 15.0525 18.704 15.1667 18.4167 15.1667C18.1293 15.1667 17.8538 15.0525 17.6506 14.8494C17.4475 14.6462 17.3333 14.3707 17.3333 14.0833C17.3333 13.796 17.4475 13.5205 17.6506 13.3173C17.8538 13.1141 18.1293 13 18.4167 13C18.704 13 18.9795 13.1141 19.1827 13.3173C19.3859 13.5205 19.5 13.796 19.5 14.0833ZM14.0833 18.4167C14.0833 18.704 13.9692 18.9795 13.766 19.1827C13.5629 19.3859 13.2873 19.5 13 19.5C12.7127 19.5 12.4371 19.3859 12.234 19.1827C12.0308 18.9795 11.9167 18.704 11.9167 18.4167C11.9167 18.1293 12.0308 17.8538 12.234 17.6506C12.4371 17.4475 12.7127 17.3333 13 17.3333C13.2873 17.3333 13.5629 17.4475 13.766 17.6506C13.9692 17.8538 14.0833 18.1293 14.0833 18.4167ZM14.0833 14.0833C14.0833 14.3707 13.9692 14.6462 13.766 14.8494C13.5629 15.0525 13.2873 15.1667 13 15.1667C12.7127 15.1667 12.4371 15.0525 12.234 14.8494C12.0308 14.6462 11.9167 14.3707 11.9167 14.0833C11.9167 13.796 12.0308 13.5205 12.234 13.3173C12.4371 13.1141 12.7127 13 13 13C13.2873 13 13.5629 13.1141 13.766 13.3173C13.9692 13.5205 14.0833 13.796 14.0833 14.0833ZM8.66667 18.4167C8.66667 18.704 8.55253 18.9795 8.34937 19.1827C8.1462 19.3859 7.87065 19.5 7.58333 19.5C7.29602 19.5 7.02047 19.3859 6.8173 19.1827C6.61414 18.9795 6.5 18.704 6.5 18.4167C6.5 18.1293 6.61414 17.8538 6.8173 17.6506C7.02047 17.4475 7.29602 17.3333 7.58333 17.3333C7.87065 17.3333 8.1462 17.4475 8.34937 17.6506C8.55253 17.8538 8.66667 18.1293 8.66667 18.4167ZM8.66667 14.0833C8.66667 14.3707 8.55253 14.6462 8.34937 14.8494C8.1462 15.0525 7.87065 15.1667 7.58333 15.1667C7.29602 15.1667 7.02047 15.0525 6.8173 14.8494C6.61414 14.6462 6.5 14.3707 6.5 14.0833C6.5 13.796 6.61414 13.5205 6.8173 13.3173C7.02047 13.1141 7.29602 13 7.58333 13C7.87065 13 8.1462 13.1141 8.34937 13.3173C8.55253 13.5205 8.66667 13.796 8.66667 14.0833Z" fill="black"/>
</svg>
