<svg width="30" height="26" viewBox="0 0 30 26" fill="none" xmlns="http://www.w3.org/2000/svg">
<g clip-path="url(#clip0_677_5868)">
<path d="M12.0263 10.3278C14.743 10.3278 16.9453 8.3877 16.9453 5.99447C16.9453 3.60123 14.743 1.66113 12.0263 1.66113C9.3097 1.66113 7.10742 3.60123 7.10742 5.99447C7.10742 8.3877 9.3097 10.3278 12.0263 10.3278Z" fill="#019A9A"/>
<path d="M13.4769 22.9813C13.2059 22.7452 13.0292 22.4382 12.973 22.1061C12.9168 21.7741 12.9843 21.435 13.1653 21.1396L13.5998 20.4174L12.7062 20.179C12.3418 20.0786 12.0246 19.8761 11.8027 19.6024C11.5807 19.3287 11.4662 18.9986 11.4765 18.6624V17.1818C11.4758 16.8471 11.5974 16.521 11.8233 16.2517C12.0492 15.9825 12.3673 15.7845 12.7308 15.6868L13.6244 15.4485L13.1981 14.7263C13.0224 14.4349 12.9556 14.1021 13.0071 13.7753C13.0586 13.4485 13.2259 13.1444 13.4851 12.9063C12.8544 12.8334 12.2192 12.7948 11.5831 12.7907C9.70432 12.7518 7.83895 13.0785 6.12 13.7476C4.40106 14.4168 2.8709 15.4118 1.63867 16.6618V22.259C1.63867 22.4506 1.72505 22.6343 1.87879 22.7697C2.03254 22.9052 2.24106 22.9813 2.45849 22.9813H13.4769Z" fill="#019A9A"/>
<path d="M27.6283 16.9435L25.9886 16.5102C25.875 16.1535 25.7155 15.8094 25.5131 15.4847L26.333 14.1413C26.3646 14.0915 26.3762 14.0336 26.3658 13.9772C26.3554 13.9208 26.3236 13.8692 26.2756 13.8308L25.0868 12.7763C25.0411 12.7371 24.9827 12.7112 24.9196 12.7021C24.8566 12.6931 24.7919 12.7013 24.7343 12.7258L23.2176 13.448C22.8443 13.2693 22.4516 13.1242 22.0453 13.0147L21.5452 11.5702C21.5232 11.517 21.483 11.471 21.4302 11.4387C21.3773 11.4063 21.3144 11.3892 21.2501 11.3897H19.5449C19.4809 11.3912 19.4191 11.4101 19.3678 11.4437C19.3164 11.4773 19.2781 11.524 19.2579 11.5774L18.766 13.0219C18.3519 13.128 17.953 13.2759 17.5773 13.4624L16.0934 12.7402C16.0357 12.7132 15.9699 12.7029 15.9051 12.7106C15.8404 12.7184 15.7801 12.7439 15.7327 12.7835L14.5276 13.8235C14.4801 13.8638 14.4488 13.9166 14.4385 13.974C14.4281 14.0313 14.4393 14.0901 14.4702 14.1413L15.29 15.4558C15.0704 15.782 14.8917 16.1283 14.7571 16.4885L13.1175 16.9291C13.0554 16.9449 13.001 16.9782 12.9625 17.0238C12.924 17.0695 12.9036 17.125 12.9043 17.1819V18.6624C12.9036 18.7193 12.924 18.7748 12.9625 18.8205C13.001 18.8661 13.0554 18.8994 13.1175 18.9152L14.7571 19.3558C14.88 19.7095 15.0449 20.0508 15.249 20.3741L14.4292 21.7463C14.3983 21.7976 14.3871 21.8563 14.3975 21.9137C14.4078 21.971 14.4391 22.0238 14.4866 22.0641L15.7081 23.1113C15.7555 23.151 15.8158 23.1765 15.8805 23.1842C15.9453 23.192 16.0111 23.1817 16.0688 23.1547L17.6019 22.4324C17.9667 22.6053 18.3515 22.7433 18.7496 22.8441L19.2415 24.3247C19.2622 24.3793 19.3017 24.4268 19.3547 24.4605C19.4077 24.4942 19.4713 24.5123 19.5367 24.5124H21.2173C21.2812 24.5109 21.343 24.492 21.3944 24.4584C21.4457 24.4248 21.4841 24.3781 21.5042 24.3247L21.9961 22.8441C22.3895 22.7446 22.769 22.6065 23.1275 22.4324L24.6769 23.1547C24.7346 23.1817 24.8005 23.192 24.8652 23.1842C24.93 23.1765 24.9903 23.151 25.0376 23.1113L26.2346 22.0641C26.2796 22.0224 26.3085 21.9692 26.3174 21.9122C26.3262 21.8552 26.3144 21.7971 26.2838 21.7463L25.464 20.3885C25.6601 20.0721 25.8167 19.738 25.9312 19.3919L27.5709 18.9513C27.6325 18.9339 27.6866 18.9004 27.7261 18.8552C27.7657 18.8101 27.7887 18.7555 27.7922 18.6985V17.2035C27.7942 17.1512 27.78 17.0993 27.7512 17.0535C27.7223 17.0077 27.6798 16.9697 27.6283 16.9435ZM20.3893 20.3524C19.8474 20.3539 19.3172 20.2136 18.8658 19.9494C18.4144 19.6852 18.0622 19.309 17.8537 18.8683C17.6452 18.4277 17.5898 17.9425 17.6945 17.4741C17.7992 17.0057 18.0594 16.5752 18.442 16.2371C18.8246 15.899 19.3125 15.6685 19.8439 15.5749C20.3752 15.4812 20.9262 15.5286 21.427 15.7109C21.9278 15.8933 22.356 16.2025 22.6572 16.5993C22.9585 16.9961 23.1193 17.4628 23.1193 17.9402C23.1193 18.5787 22.8319 19.1912 22.3202 19.6434C21.8084 20.0955 21.1141 20.3505 20.3893 20.3524Z" fill="#019A9A"/>
</g>
<defs>
<clipPath id="clip0_677_5868">
<rect width="29.5135" height="26" fill="white"/>
</clipPath>
</defs>
</svg>
