<svg width="26" height="26" viewBox="0 0 26 26" fill="none" xmlns="http://www.w3.org/2000/svg">
<path d="M22.7506 17.3332V14.0832C22.7506 12.8807 21.7865 11.9165 20.584 11.9165H14.084V8.6665H16.2507V2.1665H9.75065V8.6665H11.9173V11.9165H5.41732C4.21482 11.9165 3.25065 12.8807 3.25065 14.0832V17.3332H1.08398V23.8332H7.58398V17.3332H5.41732V14.0832H11.9173V17.3332H9.75065V23.8332H16.2507V17.3332H14.084V14.0832H20.584V17.3332H18.4173V23.8332H24.9173V17.3332H22.7506ZM11.9173 4.33317H14.084V6.49984H11.9173V4.33317ZM5.41732 21.6665H3.25065V19.4998H5.41732V21.6665ZM14.084 21.6665H11.9173V19.4998H14.084V21.6665ZM22.7506 21.6665H20.584V19.4998H22.7506V21.6665Z" fill="#9A016F"/>
</svg>
